<?xml version="1.0" encoding="UTF-8"?>
<svg width="2165px" height="1340px" viewBox="0 0 2165 1340" version="1.1" xmlns="http://www.w3.org/2000/svg" xmlns:xlink="http://www.w3.org/1999/xlink">
    <title>Artboard Copy</title>
    <defs>
        <polygon id="path-1" points="2715.73374 -1.08624199e-12 2721 1354.89286 418 1357 419.644947 -2.10117638e-12"></polygon>
        <linearGradient x1="50%" y1="0%" x2="50%" y2="79.6825677%" id="linearGradient-3">
            <stop stop-color="#064C62" offset="0%"></stop>
            <stop stop-color="#045065" offset="30.012141%"></stop>
            <stop stop-color="#0D6985" offset="67.8103885%"></stop>
            <stop stop-color="#011419" offset="100%"></stop>
        </linearGradient>
        <linearGradient x1="52.6872825%" y1="-7.37421249%" x2="52.6872825%" y2="92.0343846%" id="linearGradient-4">
            <stop stop-color="#064C62" offset="0%"></stop>
            <stop stop-color="#10708F" offset="32.635663%"></stop>
            <stop stop-color="#064C62" offset="67.1139872%"></stop>
            <stop stop-color="#042733" offset="91.8438845%"></stop>
            <stop stop-color="#021C24" offset="100%"></stop>
        </linearGradient>
        <linearGradient x1="50%" y1="0%" x2="50%" y2="99.5407517%" id="linearGradient-5">
            <stop stop-color="#0E6B88" offset="0%"></stop>
            <stop stop-color="#021C24" offset="100%"></stop>
        </linearGradient>
        <linearGradient x1="50%" y1="31.0396635%" x2="50%" y2="100%" id="linearGradient-6">
            <stop stop-color="#0AAFE0" offset="0%"></stop>
            <stop stop-color="#0A5292" offset="100%"></stop>
        </linearGradient>
        <linearGradient x1="50%" y1="31.0396635%" x2="50%" y2="100%" id="linearGradient-7">
            <stop stop-color="#0AAFE0" offset="0%"></stop>
            <stop stop-color="#0A5292" offset="100%"></stop>
        </linearGradient>
        <linearGradient x1="50%" y1="31.0396635%" x2="50%" y2="100%" id="linearGradient-8">
            <stop stop-color="#0AAFE0" offset="0%"></stop>
            <stop stop-color="#0A5292" offset="100%"></stop>
        </linearGradient>
        <linearGradient x1="50%" y1="31.0396635%" x2="50%" y2="100%" id="linearGradient-9">
            <stop stop-color="#0AAFE0" offset="0%"></stop>
            <stop stop-color="#0A5292" offset="100%"></stop>
        </linearGradient>
        <linearGradient x1="50%" y1="31.0396635%" x2="50%" y2="100%" id="linearGradient-10">
            <stop stop-color="#0A86AB" offset="0%"></stop>
            <stop stop-color="#063865" offset="100%"></stop>
        </linearGradient>
        <linearGradient x1="50%" y1="31.0396635%" x2="50%" y2="100%" id="linearGradient-11">
            <stop stop-color="#0AAFE0" offset="0%"></stop>
            <stop stop-color="#0A5292" offset="100%"></stop>
        </linearGradient>
        <linearGradient x1="50%" y1="31.0396635%" x2="50%" y2="100%" id="linearGradient-12">
            <stop stop-color="#0A86AB" offset="0%"></stop>
            <stop stop-color="#063865" offset="100%"></stop>
        </linearGradient>
        <linearGradient x1="50%" y1="31.0396635%" x2="50%" y2="100%" id="linearGradient-13">
            <stop stop-color="#0AAFE0" offset="0%"></stop>
            <stop stop-color="#0A5292" offset="100%"></stop>
        </linearGradient>
        <linearGradient x1="50%" y1="31.0396635%" x2="50%" y2="100%" id="linearGradient-14">
            <stop stop-color="#0A86AB" offset="0%"></stop>
            <stop stop-color="#063865" offset="100%"></stop>
        </linearGradient>
        <linearGradient x1="50%" y1="31.0396635%" x2="50%" y2="100%" id="linearGradient-15">
            <stop stop-color="#0AAFE0" offset="0%"></stop>
            <stop stop-color="#0A5292" offset="100%"></stop>
        </linearGradient>
        <linearGradient x1="50%" y1="31.0396635%" x2="50%" y2="100%" id="linearGradient-16">
            <stop stop-color="#0A86AB" offset="0%"></stop>
            <stop stop-color="#063865" offset="100%"></stop>
        </linearGradient>
        <linearGradient x1="50%" y1="31.0396635%" x2="50%" y2="100%" id="linearGradient-17">
            <stop stop-color="#0AAFE0" offset="0%"></stop>
            <stop stop-color="#0A5292" offset="100%"></stop>
        </linearGradient>
        <linearGradient x1="50%" y1="31.0396635%" x2="50%" y2="100%" id="linearGradient-18">
            <stop stop-color="#0A86AB" offset="0%"></stop>
            <stop stop-color="#063865" offset="100%"></stop>
        </linearGradient>
        <linearGradient x1="50%" y1="31.0396635%" x2="50%" y2="100%" id="linearGradient-19">
            <stop stop-color="#0AAFE0" offset="0%"></stop>
            <stop stop-color="#0A5292" offset="100%"></stop>
        </linearGradient>
        <linearGradient x1="50%" y1="31.0396635%" x2="50%" y2="100%" id="linearGradient-20">
            <stop stop-color="#0A86AB" offset="0%"></stop>
            <stop stop-color="#063865" offset="100%"></stop>
        </linearGradient>
        <linearGradient x1="50%" y1="31.0396635%" x2="50%" y2="100%" id="linearGradient-21">
            <stop stop-color="#0AAFE0" offset="0%"></stop>
            <stop stop-color="#0A5292" offset="100%"></stop>
        </linearGradient>
        <linearGradient x1="50%" y1="31.0396635%" x2="50%" y2="100%" id="linearGradient-22">
            <stop stop-color="#0AAFE0" offset="0%"></stop>
            <stop stop-color="#0A5292" offset="100%"></stop>
        </linearGradient>
        <linearGradient x1="50%" y1="31.0396635%" x2="50%" y2="100%" id="linearGradient-23">
            <stop stop-color="#0AAFE0" offset="0%"></stop>
            <stop stop-color="#0A5292" offset="100%"></stop>
        </linearGradient>
        <linearGradient x1="50%" y1="31.0396635%" x2="50%" y2="100%" id="linearGradient-24">
            <stop stop-color="#0AAFE0" offset="0%"></stop>
            <stop stop-color="#0A5292" offset="100%"></stop>
        </linearGradient>
        <linearGradient x1="50%" y1="31.0396635%" x2="50%" y2="100%" id="linearGradient-25">
            <stop stop-color="#0A86AB" offset="0%"></stop>
            <stop stop-color="#063865" offset="100%"></stop>
        </linearGradient>
        <linearGradient x1="50%" y1="31.0396635%" x2="50%" y2="100%" id="linearGradient-26">
            <stop stop-color="#0AAFE0" offset="0%"></stop>
            <stop stop-color="#0A5292" offset="100%"></stop>
        </linearGradient>
        <linearGradient x1="50%" y1="31.0396635%" x2="50%" y2="100%" id="linearGradient-27">
            <stop stop-color="#0A86AB" offset="0%"></stop>
            <stop stop-color="#063865" offset="100%"></stop>
        </linearGradient>
        <linearGradient x1="50%" y1="31.0396635%" x2="50%" y2="100%" id="linearGradient-28">
            <stop stop-color="#0AAFE0" offset="0%"></stop>
            <stop stop-color="#0A5292" offset="100%"></stop>
        </linearGradient>
        <linearGradient x1="50%" y1="31.0396635%" x2="50%" y2="100%" id="linearGradient-29">
            <stop stop-color="#0A86AB" offset="0%"></stop>
            <stop stop-color="#063865" offset="100%"></stop>
        </linearGradient>
        <linearGradient x1="50%" y1="31.0396635%" x2="50%" y2="100%" id="linearGradient-30">
            <stop stop-color="#0AAFE0" offset="0%"></stop>
            <stop stop-color="#0A5292" offset="100%"></stop>
        </linearGradient>
        <linearGradient x1="50%" y1="31.0396635%" x2="50%" y2="100%" id="linearGradient-31">
            <stop stop-color="#0A86AB" offset="0%"></stop>
            <stop stop-color="#063865" offset="100%"></stop>
        </linearGradient>
        <linearGradient x1="50%" y1="31.0396635%" x2="50%" y2="100%" id="linearGradient-32">
            <stop stop-color="#0AAFE0" offset="0%"></stop>
            <stop stop-color="#0A5292" offset="100%"></stop>
        </linearGradient>
        <linearGradient x1="50%" y1="31.0396635%" x2="50%" y2="100%" id="linearGradient-33">
            <stop stop-color="#0A86AB" offset="0%"></stop>
            <stop stop-color="#063865" offset="100%"></stop>
        </linearGradient>
        <linearGradient x1="50%" y1="31.0396635%" x2="50%" y2="100%" id="linearGradient-34">
            <stop stop-color="#0AAFE0" offset="0%"></stop>
            <stop stop-color="#0A5292" offset="100%"></stop>
        </linearGradient>
        <linearGradient x1="50%" y1="31.0396635%" x2="50%" y2="100%" id="linearGradient-35">
            <stop stop-color="#0A86AB" offset="0%"></stop>
            <stop stop-color="#063865" offset="100%"></stop>
        </linearGradient>
        <linearGradient x1="50%" y1="0%" x2="50%" y2="100%" id="linearGradient-36">
            <stop stop-color="#0AD3FF" offset="0%"></stop>
            <stop stop-color="#0A377A" offset="100%"></stop>
        </linearGradient>
        <filter x="-8.8%" y="-4.8%" width="117.6%" height="111.2%" filterUnits="objectBoundingBox" id="filter-37">
            <feOffset dx="0" dy="2" in="SourceAlpha" result="shadowOffsetOuter1"></feOffset>
            <feGaussianBlur stdDeviation="2" in="shadowOffsetOuter1" result="shadowBlurOuter1"></feGaussianBlur>
            <feColorMatrix values="0 0 0 0 0.0842131662   0 0 0 0 0.467122956   0 0 0 0 0.587466033  0 0 0 1 0" type="matrix" in="shadowBlurOuter1" result="shadowMatrixOuter1"></feColorMatrix>
            <feMerge>
                <feMergeNode in="shadowMatrixOuter1"></feMergeNode>
                <feMergeNode in="SourceGraphic"></feMergeNode>
            </feMerge>
        </filter>
        <filter x="-2.6%" y="-3.4%" width="105.1%" height="106.8%" filterUnits="objectBoundingBox" id="filter-38">
            <feOffset dx="0" dy="2" in="SourceAlpha" result="shadowOffsetOuter1"></feOffset>
            <feGaussianBlur stdDeviation="2" in="shadowOffsetOuter1" result="shadowBlurOuter1"></feGaussianBlur>
            <feColorMatrix values="0 0 0 0 0.0842131662   0 0 0 0 0.467122956   0 0 0 0 0.587466033  0 0 0 1 0" type="matrix" in="shadowBlurOuter1" result="shadowMatrixOuter1"></feColorMatrix>
            <feMerge>
                <feMergeNode in="shadowMatrixOuter1"></feMergeNode>
                <feMergeNode in="SourceGraphic"></feMergeNode>
            </feMerge>
        </filter>
        <linearGradient x1="50%" y1="0.907939189%" x2="50%" y2="100%" id="linearGradient-39">
            <stop stop-color="#01232D" offset="0%"></stop>
            <stop stop-color="#032029" offset="100%"></stop>
        </linearGradient>
        <filter x="-3.2%" y="-3.8%" width="106.5%" height="107.5%" filterUnits="objectBoundingBox" id="filter-40">
            <feOffset dx="0" dy="2" in="SourceAlpha" result="shadowOffsetOuter1"></feOffset>
            <feGaussianBlur stdDeviation="2" in="shadowOffsetOuter1" result="shadowBlurOuter1"></feGaussianBlur>
            <feColorMatrix values="0 0 0 0 0.0842131662   0 0 0 0 0.467122956   0 0 0 0 0.587466033  0 0 0 1 0" type="matrix" in="shadowBlurOuter1" result="shadowMatrixOuter1"></feColorMatrix>
            <feMerge>
                <feMergeNode in="shadowMatrixOuter1"></feMergeNode>
                <feMergeNode in="SourceGraphic"></feMergeNode>
            </feMerge>
        </filter>
        <linearGradient x1="50%" y1="1.59945101%" x2="50%" y2="99.5870543%" id="linearGradient-41">
            <stop stop-color="#032834" offset="0%"></stop>
            <stop stop-color="#010A0E" offset="100%"></stop>
        </linearGradient>
    </defs>
    <g id="Artboard-Copy" stroke="none" stroke-width="1" fill="none" fill-rule="evenodd">
        <g id="Group" transform="translate(-445.000000, 0.000000)">
            <mask id="mask-2" fill="white">
                <use xlink:href="#path-1"></use>
            </mask>
            <use id="Rectangle-2" fill="#064C62" xlink:href="#path-1"></use>
            <polygon id="Rectangle" fill="url(#linearGradient-3)" mask="url(#mask-2)" points="2715.73374 1.01493438e-12 2721 1354.89286 418 1357 419.644947 0"></polygon>
            <polygon id="Rectangle" fill="url(#linearGradient-4)" mask="url(#mask-2)" points="416.213048 584 2712.32425 584 2717 1354 440.503903 1354 412 1354"></polygon>
            <path d="M417.5,211.525676 L1228.02653,252.131281 L987.351502,252.131281 L879.505523,270.3008 L938.996351,251.60882 L839.054053,262.160599 L883.35554,252.24914 L417.5,238.491159 L417.5,211.525676 Z" id="Rectangle" stroke="#FFFFFF" fill="url(#linearGradient-5)" mask="url(#mask-2)"></path>
            <g id="Group-4" transform="translate(0.000000, 232.000000)">
                <polygon id="Path-2" fill="#023242" points="1128.14458 186.854295 1350.68255 64.2399267 1529.47332 168.011601 1637.96902 125.320513 1836 335.943223 1473.64544 345.421245 1271.84058 324.252847"></polygon>
                <path d="M815.674493,0 L898.770857,67.9068556 L914.082021,48.8491614 L1080.80607,181.844508 L1092.53266,161.418857 L1298.44513,319.093407 L955.056745,350.686813 C879.57794,354.894419 802.444281,356.649608 723.655766,355.952381 C677.822731,355.546788 610.78388,322.828443 536.290017,319.093407 C500.58097,317.302996 436.633465,328.536208 344.447504,352.79304 L815.674493,0 Z" id="Path" fill="#023242"></path>
                <polygon id="Path-3" fill="#096C8B" points="816.351119 0 885.190017 121.690927 920.423995 105.275164 1092.81268 311.623648 1328.38821 339.629121 1092.81268 161.347994 1081.10289 181.764678 914.617674 48.8277166 899.328445 67.8770444"></polygon>
                <path d="M0,355.795614 C57.7113278,329.221249 111.861727,315.934066 162.451196,315.934066 C238.335401,315.934066 372.253061,354.350279 439.24957,354.350279 C506.246078,354.350279 602.601213,334.640321 663.705658,330.187415 C704.441954,327.218812 776.039782,343.014784 878.499139,377.575332 C774.499543,352.002068 702.901716,345.244763 663.705658,357.303415 C604.911571,375.391394 491.521362,384.30438 439.24957,389.264766 C386.977777,394.225152 236.513902,349.989179 184.827733,344.711813 C150.370287,341.193568 88.7610429,344.888169 0,355.795614 Z" id="Path-6" fill="url(#linearGradient-6)"></path>
                <path d="M814.244406,380.017226 C871.955734,353.44286 926.106133,340.155678 976.695602,340.155678 C1052.57981,340.155678 1186.49747,378.57189 1253.49398,378.57189 C1320.49048,378.57189 1416.84562,358.861933 1477.95006,354.409027 C1518.68636,351.440423 1590.28419,367.236396 1692.74355,401.796944 C1588.74395,376.22368 1517.14612,369.466374 1477.95006,381.525027 C1419.15598,399.613005 1305.76577,408.525991 1253.49398,413.486378 C1201.22218,418.446764 1050.75831,374.210791 999.07214,368.933424 C964.614694,365.41518 903.005449,369.109781 814.244406,380.017226 Z" id="Path-6" fill="url(#linearGradient-6)"></path>
                <path d="M706.802065,617.458842 C764.513393,577.217661 818.663792,557.09707 869.253262,557.09707 C945.137466,557.09707 1079.05513,615.270192 1146.05164,615.270192 C1213.04814,615.270192 1309.40328,585.423684 1370.50772,578.680713 C1411.24402,574.185399 1482.84185,598.105014 1585.3012,650.439559 C1481.30161,611.714331 1409.70378,601.481839 1370.50772,619.742084 C1311.71364,647.132451 1198.32343,660.629259 1146.05164,668.140701 C1093.77984,675.652143 943.315968,608.666241 891.629799,600.6748 C857.172353,595.347173 795.563108,600.941854 706.802065,617.458842 Z" id="Path-6" fill="url(#linearGradient-7)"></path>
                <path d="M25.2805508,836.506461 C82.9918786,796.26528 137.142277,776.144689 187.731747,776.144689 C263.615952,776.144689 397.533612,834.317811 464.53012,834.317811 C531.526629,834.317811 627.881764,804.471304 688.986209,797.728332 C729.722505,793.233018 801.320332,817.152633 903.77969,869.487178 C799.780093,830.76195 728.182266,820.529458 688.986209,838.789703 C630.192122,866.18007 516.801913,879.676878 464.53012,887.18832 C412.258328,894.699762 261.794453,827.71386 210.108284,819.722419 C175.650838,814.394792 114.041594,819.989473 25.2805508,836.506461 Z" id="Path-6" fill="url(#linearGradient-7)"></path>
                <path d="M301.259897,1098.73174 C358.971225,1058.49055 413.121623,1038.36996 463.711093,1038.36996 C539.595298,1038.36996 673.512958,1096.54309 740.509466,1096.54309 C807.505975,1096.54309 903.86111,1066.69658 964.965555,1059.95361 C1005.70185,1055.45829 1077.29968,1079.37791 1179.75904,1131.71245 C1075.75944,1092.98722 1004.16161,1082.75473 964.965555,1101.01498 C906.171468,1128.40535 792.781259,1141.90215 740.509466,1149.41359 C688.237674,1156.92504 537.773799,1089.93913 486.08763,1081.94769 C451.630184,1076.62007 390.02094,1082.21475 301.259897,1098.73174 Z" id="Path-6-Copy" fill="url(#linearGradient-7)"></path>
                <path d="M900.619621,961.826974 C958.330949,921.585792 1012.48135,901.465201 1063.07082,901.465201 C1138.95502,901.465201 1272.87268,959.638324 1339.86919,959.638324 C1406.8657,959.638324 1503.22083,929.791816 1564.32528,923.048845 C1605.06158,918.553531 1676.6594,942.473146 1779.11876,994.807691 C1675.11916,956.082462 1603.52134,945.849971 1564.32528,964.110216 C1505.53119,991.500583 1392.14098,1004.99739 1339.86919,1012.50883 C1287.5974,1020.02027 1137.13352,953.034373 1085.44735,945.042932 C1050.98991,939.715305 989.380664,945.309986 900.619621,961.826974 Z" id="Path-6" fill="url(#linearGradient-7)"></path>
                <path d="M46.3476764,464.071075 C104.059004,429.904033 158.209403,412.820513 208.798873,412.820513 C284.683077,412.820513 418.600738,462.212786 485.597246,462.212786 C552.593755,462.212786 648.948889,436.871412 710.053334,431.146248 C750.789631,427.329472 822.387458,447.638579 924.846816,492.07357 C820.847219,459.193659 749.249392,450.505694 710.053334,466.009676 C651.259248,489.265648 537.869039,500.725202 485.597246,507.102841 C433.325453,513.480481 282.861579,456.605658 231.17541,449.820473 C196.717964,445.297016 135.108719,450.047217 46.3476764,464.071075 Z" id="Path-6" fill="url(#linearGradient-8)"></path>
                <g id="wave" transform="translate(344.447504, 308.562271)">
                    <path d="M0,39.6807225 C61.7940237,13.2269075 119.775206,-6.89207276e-15 173.943547,-6.89207276e-15 C255.196059,-6.89207276e-15 398.58751,38.2419437 470.32358,38.2419437 C542.05965,38.2419437 645.231275,18.6213971 710.658456,14.1886914 C754.276577,11.2335542 830.939478,26.9578706 940.64716,61.3616405 C829.290278,35.9043857 752.627376,29.1777334 710.658456,41.1816836 C647.705076,59.1876088 526.293257,68.0601627 470.32358,72.9980469 C414.353903,77.9359311 253.245701,33.9006274 197.903077,28.647201 C161.007994,25.1449167 95.0403013,28.8227572 0,39.6807225 Z" id="Path-6" fill="url(#linearGradient-9)"></path>
                    <path d="M0,39.7573638 C61.7940237,24.0225421 119.775206,16.1551313 173.943547,16.1551313 C255.196059,16.1551313 398.58751,50.6594416 470.32358,50.6594416 C542.05965,50.6594416 645.231275,27.2312034 710.658456,24.5946145 C754.276577,22.8368886 830.939478,35.092564 940.64716,61.3616405 C829.304855,38.1270884 752.641953,31.2232551 710.658456,40.6501407 C647.68321,54.790469 526.293257,70.4464681 470.32358,73.3835389 C414.353903,76.3206097 253.245701,36.319343 197.903077,33.1945866 C161.007994,31.1114157 95.0403013,33.2990081 0,39.7573638 Z" id="Path-6" fill="url(#linearGradient-10)"></path>
                </g>
                <g id="wave" transform="translate(164.323580, 355.952381)">
                    <path d="M0,39.6807225 C57.7113278,13.2269075 111.861727,-6.89207276e-15 162.451196,-6.89207276e-15 C238.335401,-6.89207276e-15 372.253061,38.2419437 439.24957,38.2419437 C506.246078,38.2419437 602.601213,18.6213971 663.705658,14.1886914 C704.441954,11.2335542 776.039782,26.9578706 878.499139,61.3616405 C774.499543,35.9043857 702.901716,29.1777334 663.705658,41.1816836 C604.911571,59.1876088 491.521362,68.0601627 439.24957,72.9980469 C386.977777,77.9359311 236.513902,33.9006274 184.827733,28.647201 C150.370287,25.1449167 88.7610429,28.8227572 0,39.6807225 Z" id="Path-6" fill="url(#linearGradient-11)"></path>
                    <path d="M0,39.7573638 C57.7113278,24.0225421 111.861727,16.1551313 162.451196,16.1551313 C238.335401,16.1551313 372.253061,50.6594416 439.24957,50.6594416 C506.246078,50.6594416 602.601213,27.2312034 663.705658,24.5946145 C704.441954,22.8368886 776.039782,35.092564 878.499139,61.3616405 C774.513157,38.1270884 702.915329,31.2232551 663.705658,40.6501407 C604.891151,54.790469 491.521362,70.4464681 439.24957,73.3835389 C386.977777,76.3206097 236.513902,36.319343 184.827733,33.1945866 C150.370287,31.1114157 88.7610429,33.2990081 0,39.7573638 Z" id="Path-6" fill="url(#linearGradient-12)"></path>
                </g>
                <g id="wave" transform="translate(606.733219, 407.554945)">
                    <path d="M0,39.6807225 C57.7113278,13.2269075 111.861727,-6.89207276e-15 162.451196,-6.89207276e-15 C238.335401,-6.89207276e-15 372.253061,38.2419437 439.24957,38.2419437 C506.246078,38.2419437 602.601213,18.6213971 663.705658,14.1886914 C704.441954,11.2335542 776.039782,26.9578706 878.499139,61.3616405 C774.499543,35.9043857 702.901716,29.1777334 663.705658,41.1816836 C604.911571,59.1876088 491.521362,68.0601627 439.24957,72.9980469 C386.977777,77.9359311 236.513902,33.9006274 184.827733,28.647201 C150.370287,25.1449167 88.7610429,28.8227572 0,39.6807225 Z" id="Path-6" fill="url(#linearGradient-11)"></path>
                    <path d="M0,39.7573638 C57.7113278,24.0225421 111.861727,16.1551313 162.451196,16.1551313 C238.335401,16.1551313 372.253061,50.6594416 439.24957,50.6594416 C506.246078,50.6594416 602.601213,27.2312034 663.705658,24.5946145 C704.441954,22.8368886 776.039782,35.092564 878.499139,61.3616405 C774.513157,38.1270884 702.915329,31.2232551 663.705658,40.6501407 C604.891151,54.790469 491.521362,70.4464681 439.24957,73.3835389 C386.977777,76.3206097 236.513902,36.319343 184.827733,33.1945866 C150.370287,31.1114157 88.7610429,33.2990081 0,39.7573638 Z" id="Path-6" fill="url(#linearGradient-12)"></path>
                </g>
                <g id="wave" transform="translate(377.101549, 497.069597)">
                    <path d="M0,64.6228909 C57.7113278,21.5409636 111.861727,-1.12242328e-14 162.451196,-1.12242328e-14 C238.335401,-1.12242328e-14 372.253061,62.2797369 439.24957,62.2797369 C506.246078,62.2797369 602.601213,30.3262753 663.705658,23.1072974 C704.441954,18.2946454 776.039782,43.9028178 878.499139,99.9318146 C774.499543,58.4728568 702.901716,47.518023 663.705658,67.0673132 C604.911571,96.3912486 491.521362,110.840836 439.24957,118.882533 C386.977777,126.924231 236.513902,55.2095931 184.827733,46.654013 C150.370287,40.9502929 88.7610429,46.9399189 0,64.6228909 Z" id="Path-6" fill="url(#linearGradient-13)"></path>
                    <path d="M0,64.7477067 C57.7113278,39.1224258 111.861727,26.3097853 162.451196,26.3097853 C238.335401,26.3097853 372.253061,82.5025192 439.24957,82.5025192 C506.246078,82.5025192 602.601213,44.3479599 663.705658,40.0540866 C704.441954,37.1915043 776.039782,57.150747 878.499139,99.9318146 C774.513157,62.0926868 702.915329,50.8493011 663.705658,66.2016577 C604.891151,89.2301924 491.521362,114.727105 439.24957,119.510335 C386.977777,124.293564 236.513902,59.1486443 184.827733,54.0597553 C150.370287,50.6671627 88.7610429,54.2298131 0,64.7477067 Z" id="Path-6" fill="url(#linearGradient-14)"></path>
                </g>
                <g id="wave" transform="translate(247.538726, 599.221612)">
                    <path d="M0,75.3933727 C57.7113278,25.1311242 111.861727,-1.30949382e-14 162.451196,-1.30949382e-14 C238.335401,-1.30949382e-14 372.253061,72.659693 439.24957,72.659693 C506.246078,72.659693 602.601213,35.3806545 663.705658,26.9585136 C704.441954,21.3437529 776.039782,51.2199541 878.499139,116.587117 C774.499543,68.2183329 702.901716,55.4376935 663.705658,78.2451988 C604.911571,112.456457 491.521362,129.314309 439.24957,138.696289 C386.977777,148.078269 236.513902,64.411192 184.827733,54.4296818 C150.370287,47.7753418 88.7610429,54.7632387 0,75.3933727 Z" id="Path-6" fill="url(#linearGradient-15)"></path>
                    <path d="M0,75.5389912 C57.7113278,45.6428301 111.861727,30.6947495 162.451196,30.6947495 C238.335401,30.6947495 372.253061,96.2529391 439.24957,96.2529391 C506.246078,96.2529391 602.601213,51.7392865 663.705658,46.7297676 C704.441954,43.3900884 776.039782,66.6758715 878.499139,116.587117 C774.513157,72.4414679 702.915329,59.3241846 663.705658,77.2352673 C604.891151,104.101891 491.521362,133.848289 439.24957,139.428724 C386.977777,145.009158 236.513902,69.0067517 184.827733,63.0697145 C150.370287,59.1116898 88.7610429,63.2681153 0,75.5389912 Z" id="Path-6" fill="url(#linearGradient-16)"></path>
                </g>
                <g id="wave" transform="translate(116.922547, 671.886447)">
                    <path d="M0,75.3933727 C57.7113278,25.1311242 111.861727,-1.30949382e-14 162.451196,-1.30949382e-14 C238.335401,-1.30949382e-14 372.253061,72.659693 439.24957,72.659693 C506.246078,72.659693 602.601213,35.3806545 663.705658,26.9585136 C704.441954,21.3437529 776.039782,51.2199541 878.499139,116.587117 C774.499543,68.2183329 702.901716,55.4376935 663.705658,78.2451988 C604.911571,112.456457 491.521362,129.314309 439.24957,138.696289 C386.977777,148.078269 236.513902,64.411192 184.827733,54.4296818 C150.370287,47.7753418 88.7610429,54.7632387 0,75.3933727 Z" id="Path-6" fill="url(#linearGradient-15)"></path>
                    <path d="M0,75.5389912 C57.7113278,45.6428301 111.861727,30.6947495 162.451196,30.6947495 C238.335401,30.6947495 372.253061,96.2529391 439.24957,96.2529391 C506.246078,96.2529391 602.601213,51.7392865 663.705658,46.7297676 C704.441954,43.3900884 776.039782,66.6758715 878.499139,116.587117 C774.513157,72.4414679 702.915329,59.3241846 663.705658,77.2352673 C604.891151,104.101891 491.521362,133.848289 439.24957,139.428724 C386.977777,145.009158 236.513902,69.0067517 184.827733,63.0697145 C150.370287,59.1116898 88.7610429,63.2681153 0,75.5389912 Z" id="Path-6" fill="url(#linearGradient-16)"></path>
                </g>
                <g id="wave" transform="translate(650.974182, 741.391941)">
                    <path d="M0,74.2596378 C57.7113278,24.7532126 111.861727,-1.28980219e-14 162.451196,-1.28980219e-14 C238.335401,-1.28980219e-14 372.253061,71.567066 439.24957,71.567066 C506.246078,71.567066 602.601213,34.8486146 663.705658,26.5531224 C704.441954,21.0227943 776.039782,50.4497292 878.499139,114.833927 C774.499543,67.1924933 702.901716,54.6040439 663.705658,77.0685793 C604.911571,110.765382 491.521362,127.369733 439.24957,136.610631 C386.977777,145.851528 236.513902,63.4426026 184.827733,53.6111904 C150.370287,47.0569156 88.7610429,53.9397314 0,74.2596378 Z" id="Path-6" fill="url(#linearGradient-17)"></path>
                    <path d="M0,74.4030665 C57.7113278,44.9564717 111.861727,30.2331744 162.451196,30.2331744 C238.335401,30.2331744 372.253061,94.8055265 439.24957,94.8055265 C506.246078,94.8055265 602.601213,50.9612521 663.705658,46.0270644 C704.441954,42.7376059 776.039782,65.6732268 878.499139,114.833927 C774.513157,71.3521225 702.915329,58.4320916 663.705658,76.0738347 C604.891151,102.536449 491.521362,131.835533 439.24957,137.332051 C386.977777,142.82857 236.513902,67.9690561 184.827733,62.1212978 C150.370287,58.2227922 88.7610429,62.3167151 0,74.4030665 Z" id="Path-6" fill="url(#linearGradient-18)"></path>
                </g>
                <g id="wave" transform="translate(116.922547, 861.446886)">
                    <path d="M0,87.2975895 C57.7113278,29.0991965 111.861727,-1.51625601e-14 162.451196,-1.51625601e-14 C238.335401,-1.51625601e-14 372.253061,84.1322761 439.24957,84.1322761 C506.246078,84.1322761 602.601213,40.9670737 663.705658,31.215121 C704.441954,24.7138192 776.039782,59.3073153 878.499139,134.995609 C774.499543,78.9896486 702.901716,64.1910135 663.705658,90.5997039 C604.911571,130.212739 491.521362,149.732358 439.24957,160.595703 C386.977777,171.459048 236.513902,74.5813802 184.827733,63.0238421 C150.370287,55.3188168 88.7610429,63.4100659 0,87.2975895 Z" id="Path-6" fill="url(#linearGradient-19)"></path>
                    <path d="M0,87.4662003 C57.7113278,52.8495927 111.861727,35.5412889 162.451196,35.5412889 C238.335401,35.5412889 372.253061,111.450772 439.24957,111.450772 C506.246078,111.450772 602.601213,59.9086476 663.705658,54.108152 C704.441954,50.241155 776.039782,77.2036407 878.499139,134.995609 C774.513157,83.8795944 702.915329,68.6911612 663.705658,89.4303095 C604.891151,120.539032 491.521362,154.98223 439.24957,161.443786 C386.977777,167.905341 236.513902,79.9025546 184.827733,73.0280905 C150.370287,68.4451145 88.7610429,73.2578178 0,87.4662003 Z" id="Path-6" fill="url(#linearGradient-20)"></path>
                </g>
            </g>
            <polygon id="Path-36" fill="#022C3A" points="2399 577.738357 2583.40928 441.529735 2652.80973 476.502849 2718.89247 391 2721 572.726781 2562.87316 584"></polygon>
            <polygon id="Path-38" fill="#09607D" points="2583 442 2473.86946 570 2411 570"></polygon>
            <polygon id="Path-37" fill="#096C8B" points="1350 297 1514.32425 455 1637 358.289724 1529.09141 398.973293"></polygon>
            <g id="Group-4-Copy" transform="translate(1086.000000, 533.000000)">
                <path d="M0,89.3555828 C57.7115142,62.7819021 111.862088,49.4950617 162.451721,49.4950617 C238.33617,49.4950617 372.254263,87.9102847 439.250988,87.9102847 C506.247713,87.9102847 602.603159,68.2008349 663.707801,63.7480439 C704.444229,60.7795166 776.042288,76.575082 878.501976,111.13474 C774.502044,85.562135 702.903985,78.8050033 663.707801,90.8633449 C604.913525,108.950857 491.52295,117.863614 439.250988,122.823872 C386.979027,127.784131 236.514666,83.5492973 184.82833,78.2720669 C150.370773,74.7539134 88.7613295,78.4484187 0,89.3555828 Z" id="Path-6" fill="url(#linearGradient-21)"></path>
                <path d="M33.7075099,39.8605211 C91.4190241,13.2868404 145.569598,0 196.159231,0 C272.04368,0 405.961773,38.415223 472.958498,38.415223 C539.955223,38.415223 636.310669,18.7057731 697.415311,14.2529822 C738.151739,11.2844549 809.749798,27.0800202 912.209486,61.6396782 C808.209554,36.0670732 736.611495,29.3099416 697.415311,41.3682832 C638.621035,59.4557957 525.23046,68.3685523 472.958498,73.3288106 C420.686536,78.289069 270.222176,34.0542356 218.53584,28.7770052 C184.078283,25.2588516 122.468839,28.9533569 33.7075099,39.8605211 Z" id="Path-6-Copy-2" fill="url(#linearGradient-21)"></path>
                <path d="M814.247036,113.57657 C871.95855,87.0028897 926.109123,73.7160494 976.698756,73.7160494 C1052.58321,73.7160494 1186.5013,112.131272 1253.49802,112.131272 C1320.49475,112.131272 1416.85019,92.4218225 1477.95484,87.9690316 C1518.69126,85.0005043 1590.28932,100.79607 1692.74901,135.355728 C1588.74908,109.783123 1517.15102,103.025991 1477.95484,115.084333 C1419.16056,133.171845 1305.76999,142.084602 1253.49802,147.04486 C1201.22606,152.005118 1050.7617,107.770285 999.075366,102.493055 C964.617808,98.974901 903.008365,102.669406 814.247036,113.57657 Z" id="Path-6" fill="url(#linearGradient-21)"></path>
                <path d="M706.804348,351.012069 C764.515862,310.771924 818.666436,290.651852 869.256069,290.651852 C945.140518,290.651852 1079.05861,348.823475 1146.05534,348.823475 C1213.05206,348.823475 1309.40751,318.977737 1370.51215,312.234939 C1411.24858,307.739741 1482.84664,331.65874 1585.30632,383.991936 C1481.30639,345.267706 1409.70833,335.035478 1370.51215,353.295252 C1311.71787,380.684914 1198.3273,394.181374 1146.05534,401.692622 C1093.78337,409.203871 943.319014,342.219694 891.632678,334.22846 C857.175121,328.90097 795.565677,334.495507 706.804348,351.012069 Z" id="Path-6" fill="url(#linearGradient-22)"></path>
                <path d="M25.2806324,570.054045 C82.9921466,529.8139 137.14272,509.693827 187.732353,509.693827 C263.616803,509.693827 397.534896,567.865451 464.531621,567.865451 C531.528345,567.865451 627.883791,538.019712 688.988434,531.276914 C729.724862,526.781716 801.32292,550.700715 903.782609,603.033911 C799.782676,564.309681 728.184618,554.077453 688.988434,572.337227 C630.194157,599.726889 516.803582,613.223349 464.531621,620.734598 C412.259659,628.245846 261.795298,561.26167 210.108963,553.270435 C175.651405,547.942945 114.041962,553.537482 25.2806324,570.054045 Z" id="Path-6" fill="url(#linearGradient-22)"></path>
                <path d="M903.782609,751.184909 C961.494123,710.944764 1015.6447,690.824691 1066.23433,690.824691 C1142.11878,690.824691 1276.03687,748.996315 1343.0336,748.996315 C1410.03032,748.996315 1506.38577,719.150576 1567.49041,712.407779 C1608.22684,707.91258 1679.8249,731.831579 1782.28458,784.164776 C1678.28465,745.440545 1606.68659,735.208317 1567.49041,753.468092 C1508.69613,780.857753 1395.30556,794.354213 1343.0336,801.865462 C1290.76164,809.37671 1140.29727,742.392534 1088.61094,734.401299 C1054.15338,729.07381 992.543938,734.668346 903.782609,751.184909 Z" id="Path-6" fill="url(#linearGradient-22)"></path>
                <path d="M46.3478261,197.628254 C104.05934,163.462093 158.209914,146.379012 208.799547,146.379012 C284.683997,146.379012 418.602089,195.770013 485.598814,195.770013 C552.595539,195.770013 648.950985,170.429292 710.055627,164.704275 C750.792055,160.887597 822.390114,181.196181 924.849802,225.630027 C820.84987,192.750964 749.251811,184.063223 710.055627,199.566805 C651.261351,222.822178 537.870776,234.281437 485.598814,240.658912 C433.326853,247.036387 282.862492,190.16303 231.176156,183.378019 C196.718599,178.854679 135.109156,183.604757 46.3478261,197.628254 Z" id="Path-6" fill="url(#linearGradient-23)"></path>
                <g id="wave" transform="translate(464.531621, 4.212346)">
                    <path d="M0,39.6797001 C61.7942232,13.2265667 119.775593,-6.89189518e-15 173.944109,-6.89189518e-15 C255.196883,-6.89189518e-15 398.588797,38.2409584 470.325099,38.2409584 C542.0614,38.2409584 645.233358,18.6209173 710.660751,14.1883258 C754.279013,11.2332648 830.942162,26.957176 940.650198,61.3600596 C829.292956,35.9034607 752.629807,29.1769816 710.660751,41.1806225 C647.707168,59.1860839 526.294957,68.0584091 470.325099,72.9961661 C414.355241,77.9339231 253.246519,33.8997539 197.903716,28.6464629 C161.008513,25.1442689 95.0406082,28.8220146 0,39.6797001 Z" id="Path-6" fill="url(#linearGradient-24)"></path>
                    <path d="M0,39.7563394 C61.7942232,24.0219232 119.775593,16.1547151 173.944109,16.1547151 C255.196883,16.1547151 398.588797,50.6581364 470.325099,50.6581364 C542.0614,50.6581364 645.233358,27.2305018 710.660751,24.5939809 C754.279013,22.8363002 830.942162,35.0916598 940.650198,61.3600596 C829.307533,38.126106 752.644384,31.2224506 710.660751,40.6490933 C647.685302,54.7890574 526.294957,70.4446531 470.325099,73.3816482 C414.355241,76.3186433 253.246519,36.3184072 197.903716,33.1937313 C161.008513,31.1106141 95.0406082,33.2981501 0,39.7563394 Z" id="Path-6" fill="url(#linearGradient-25)"></path>
                </g>
                <g id="wave-copy-5" transform="translate(258.073123, 4.212346)">
                    <path d="M0,39.6797001 C61.7942232,13.2265667 119.775593,-6.89189518e-15 173.944109,-6.89189518e-15 C255.196883,-6.89189518e-15 398.588797,38.2409584 470.325099,38.2409584 C542.0614,38.2409584 645.233358,18.6209173 710.660751,14.1883258 C754.279013,11.2332648 830.942162,26.957176 940.650198,61.3600596 C829.292956,35.9034607 752.629807,29.1769816 710.660751,41.1806225 C647.707168,59.1860839 526.294957,68.0584091 470.325099,72.9961661 C414.355241,77.9339231 253.246519,33.8997539 197.903716,28.6464629 C161.008513,25.1442689 95.0406082,28.8220146 0,39.6797001 Z" id="Path-6" fill="url(#linearGradient-24)"></path>
                    <path d="M0,39.7563394 C61.7942232,24.0219232 119.775593,16.1547151 173.944109,16.1547151 C255.196883,16.1547151 398.588797,50.6581364 470.325099,50.6581364 C542.0614,50.6581364 645.233358,27.2305018 710.660751,24.5939809 C754.279013,22.8363002 830.942162,35.0916598 940.650198,61.3600596 C829.307533,38.126106 752.644384,31.2224506 710.660751,40.6490933 C647.685302,54.7890574 526.294957,70.4446531 470.325099,73.3816482 C414.355241,76.3186433 253.246519,36.3184072 197.903716,33.1937313 C161.008513,31.1106141 95.0406082,33.2981501 0,39.7563394 Z" id="Path-6" fill="url(#linearGradient-25)"></path>
                </g>
                <g id="wave" transform="translate(164.324111, 89.512346)">
                    <path d="M0,39.6797001 C57.7115142,13.2265667 111.862088,-6.89189518e-15 162.451721,-6.89189518e-15 C238.33617,-6.89189518e-15 372.254263,38.2409584 439.250988,38.2409584 C506.247713,38.2409584 602.603159,18.6209173 663.707801,14.1883258 C704.444229,11.2332648 776.042288,26.957176 878.501976,61.3600596 C774.502044,35.9034607 702.903985,29.1769816 663.707801,41.1806225 C604.913525,59.1860839 491.52295,68.0584091 439.250988,72.9961661 C386.979027,77.9339231 236.514666,33.8997539 184.82833,28.6464629 C150.370773,25.1442689 88.7613295,28.8220146 0,39.6797001 Z" id="Path-6" fill="url(#linearGradient-26)"></path>
                    <path d="M0,39.7563394 C57.7115142,24.0219232 111.862088,16.1547151 162.451721,16.1547151 C238.33617,16.1547151 372.254263,50.6581364 439.250988,50.6581364 C506.247713,50.6581364 602.603159,27.2305018 663.707801,24.5939809 C704.444229,22.8363002 776.042288,35.0916598 878.501976,61.3600596 C774.515658,38.126106 702.917599,31.2224506 663.707801,40.6490933 C604.893104,54.7890574 491.52295,70.4446531 439.250988,73.3816482 C386.979027,76.3186433 236.514666,36.3184072 184.82833,33.1937313 C150.370773,31.1106141 88.7613295,33.2981501 0,39.7563394 Z" id="Path-6" fill="url(#linearGradient-27)"></path>
                </g>
                <g id="wave" transform="translate(706.804348, 144.272840)">
                    <path d="M0,39.6797001 C57.7115142,13.2265667 111.862088,-6.89189518e-15 162.451721,-6.89189518e-15 C238.33617,-6.89189518e-15 372.254263,38.2409584 439.250988,38.2409584 C506.247713,38.2409584 602.603159,18.6209173 663.707801,14.1883258 C704.444229,11.2332648 776.042288,26.957176 878.501976,61.3600596 C774.502044,35.9034607 702.903985,29.1769816 663.707801,41.1806225 C604.913525,59.1860839 491.52295,68.0584091 439.250988,72.9961661 C386.979027,77.9339231 236.514666,33.8997539 184.82833,28.6464629 C150.370773,25.1442689 88.7613295,28.8220146 0,39.6797001 Z" id="Path-6" fill="url(#linearGradient-26)"></path>
                    <path d="M0,39.7563394 C57.7115142,24.0219232 111.862088,16.1547151 162.451721,16.1547151 C238.33617,16.1547151 372.254263,50.6581364 439.250988,50.6581364 C506.247713,50.6581364 602.603159,27.2305018 663.707801,24.5939809 C704.444229,22.8363002 776.042288,35.0916598 878.501976,61.3600596 C774.515658,38.126106 702.917599,31.2224506 663.707801,40.6490933 C604.893104,54.7890574 491.52295,70.4446531 439.250988,73.3816482 C386.979027,76.3186433 236.514666,36.3184072 184.82833,33.1937313 C150.370773,31.1106141 88.7613295,33.2981501 0,39.7563394 Z" id="Path-6" fill="url(#linearGradient-27)"></path>
                </g>
                <g id="wave" transform="translate(496.132411, 226.413580)">
                    <path d="M0,64.6212259 C57.7115142,21.5404086 111.862088,-1.12239436e-14 162.451721,-1.12239436e-14 C238.33617,-1.12239436e-14 372.254263,62.2781322 439.250988,62.2781322 C506.247713,62.2781322 602.603159,30.325494 663.707801,23.106702 C704.444229,18.294174 776.042288,43.9016866 878.501976,99.9292399 C774.502044,58.4713502 702.903985,47.5167987 663.707801,67.0655853 C604.913525,96.3887651 491.52295,110.837981 439.250988,118.87947 C386.979027,126.92096 236.514666,55.2081707 184.82833,46.652811 C150.370773,40.9492379 88.7613295,46.9387095 0,64.6212259 Z" id="Path-6" fill="url(#linearGradient-28)"></path>
                    <path d="M0,64.7460385 C57.7115142,39.1214178 111.862088,26.3091074 162.451721,26.3091074 C238.33617,26.3091074 372.254263,82.5003935 439.250988,82.5003935 C506.247713,82.5003935 602.603159,44.3468173 663.707801,40.0530546 C704.444229,37.1905461 776.042288,57.1492745 878.501976,99.9292399 C774.515658,62.091087 702.917599,50.847991 663.707801,66.199952 C604.893104,89.2278934 491.52295,114.724149 439.250988,119.507256 C386.979027,124.290362 236.514666,59.1471203 184.82833,54.0583625 C150.370773,50.6658573 88.7613295,54.2284159 0,64.7460385 Z" id="Path-6" fill="url(#linearGradient-29)"></path>
                </g>
                <g id="wave" transform="translate(116.922925, 346.465432)">
                    <path d="M0,75.3914302 C57.7115142,25.1304767 111.862088,-1.30946008e-14 162.451721,-1.30946008e-14 C238.33617,-1.30946008e-14 372.254263,72.6578209 439.250988,72.6578209 C506.247713,72.6578209 602.603159,35.379743 663.707801,26.957819 C704.444229,21.343203 776.042288,51.2186344 878.501976,116.584113 C774.502044,68.2165753 702.903985,55.4362651 663.707801,78.2431828 C604.913525,112.453559 491.52295,129.310977 439.250988,138.692716 C386.979027,148.074454 236.514666,64.4095324 184.82833,54.4282795 C150.370773,47.7741108 88.7613295,54.7618277 0,75.3914302 Z" id="Path-6" fill="url(#linearGradient-30)"></path>
                    <path d="M0,75.5370449 C57.7115142,45.6416541 111.862088,30.6939587 162.451721,30.6939587 C238.33617,30.6939587 372.254263,96.2504591 439.250988,96.2504591 C506.247713,96.2504591 602.603159,51.7379535 663.707801,46.7285637 C704.444229,43.3889705 776.042288,66.6741536 878.501976,116.584113 C774.515658,72.4396015 702.917599,59.3226562 663.707801,77.2332773 C604.893104,104.099209 491.52295,133.844841 439.250988,139.425132 C386.979027,145.005422 236.514666,69.0049737 184.82833,63.0680896 C150.370773,59.1101668 88.7613295,63.2664852 0,75.5370449 Z" id="Path-6" fill="url(#linearGradient-31)"></path>
                </g>
                <g id="wave-copy-6" transform="translate(164.324111, 231.679012)">
                    <path d="M0,75.3914302 C57.7115142,25.1304767 111.862088,-1.30946008e-14 162.451721,-1.30946008e-14 C238.33617,-1.30946008e-14 372.254263,72.6578209 439.250988,72.6578209 C506.247713,72.6578209 602.603159,35.379743 663.707801,26.957819 C704.444229,21.343203 776.042288,51.2186344 878.501976,116.584113 C774.502044,68.2165753 702.903985,55.4362651 663.707801,78.2431828 C604.913525,112.453559 491.52295,129.310977 439.250988,138.692716 C386.979027,148.074454 236.514666,64.4095324 184.82833,54.4282795 C150.370773,47.7741108 88.7613295,54.7618277 0,75.3914302 Z" id="Path-6" fill="url(#linearGradient-30)"></path>
                    <path d="M0,75.5370449 C57.7115142,45.6416541 111.862088,30.6939587 162.451721,30.6939587 C238.33617,30.6939587 372.254263,96.2504591 439.250988,96.2504591 C506.247713,96.2504591 602.603159,51.7379535 663.707801,46.7285637 C704.444229,43.3889705 776.042288,66.6741536 878.501976,116.584113 C774.515658,72.4396015 702.917599,59.3226562 663.707801,77.2332773 C604.893104,104.099209 491.52295,133.844841 439.250988,139.425132 C386.979027,145.005422 236.514666,69.0049737 184.82833,63.0680896 C150.370773,59.1101668 88.7613295,63.2664852 0,75.5370449 Z" id="Path-6" fill="url(#linearGradient-31)"></path>
                </g>
                <g id="wave" transform="translate(650.976285, 474.941975)">
                    <path d="M0,74.2577245 C57.7115142,24.7525748 111.862088,-1.28976896e-14 162.451721,-1.28976896e-14 C238.33617,-1.28976896e-14 372.254263,71.5652221 439.250988,71.5652221 C506.247713,71.5652221 602.603159,34.8477168 663.707801,26.5524383 C704.444229,21.0222526 776.042288,50.4484294 878.501976,114.830969 C774.502044,67.1907621 702.903985,54.6026371 663.707801,77.0665936 C604.913525,110.762528 491.52295,127.366451 439.250988,136.607111 C386.979027,145.84777 236.514666,63.440968 184.82833,53.6098091 C150.370773,47.0557031 88.7613295,53.9383416 0,74.2577245 Z" id="Path-6" fill="url(#linearGradient-32)"></path>
                    <path d="M0,74.4011495 C57.7115142,44.9553134 111.862088,30.2323954 162.451721,30.2323954 C238.33617,30.2323954 372.254263,94.8030838 439.250988,94.8030838 C506.247713,94.8030838 602.603159,50.9599391 663.707801,46.0258785 C704.444229,42.7365047 776.042288,65.6715348 878.501976,114.830969 C774.515658,71.3502841 702.917599,58.4305861 663.707801,76.0718746 C604.893104,102.533807 491.52295,131.832136 439.250988,137.328513 C386.979027,142.82489 236.514666,67.9673049 184.82833,62.1196972 C150.370773,58.2212921 88.7613295,62.3151095 0,74.4011495 Z" id="Path-6" fill="url(#linearGradient-33)"></path>
                </g>
                <g id="wave-copy-2" transform="translate(995.424901, 552.870370)">
                    <path d="M0,74.2577245 C57.7115142,24.7525748 111.862088,-1.28976896e-14 162.451721,-1.28976896e-14 C238.33617,-1.28976896e-14 372.254263,71.5652221 439.250988,71.5652221 C506.247713,71.5652221 602.603159,34.8477168 663.707801,26.5524383 C704.444229,21.0222526 776.042288,50.4484294 878.501976,114.830969 C774.502044,67.1907621 702.903985,54.6026371 663.707801,77.0665936 C604.913525,110.762528 491.52295,127.366451 439.250988,136.607111 C386.979027,145.84777 236.514666,63.440968 184.82833,53.6098091 C150.370773,47.0557031 88.7613295,53.9383416 0,74.2577245 Z" id="Path-6" fill="url(#linearGradient-32)"></path>
                    <path d="M0,74.4011495 C57.7115142,44.9553134 111.862088,30.2323954 162.451721,30.2323954 C238.33617,30.2323954 372.254263,94.8030838 439.250988,94.8030838 C506.247713,94.8030838 602.603159,50.9599391 663.707801,46.0258785 C704.444229,42.7365047 776.042288,65.6715348 878.501976,114.830969 C774.515658,71.3502841 702.917599,58.4305861 663.707801,76.0718746 C604.893104,102.533807 491.52295,131.832136 439.250988,137.328513 C386.979027,142.82489 236.514666,67.9673049 184.82833,62.1196972 C150.370773,58.2212921 88.7613295,62.3151095 0,74.4011495 Z" id="Path-6" fill="url(#linearGradient-33)"></path>
                </g>
                <g id="wave-copy" transform="translate(924.849802, 371.739506)">
                    <path d="M0,74.2577245 C57.7115142,24.7525748 111.862088,-1.28976896e-14 162.451721,-1.28976896e-14 C238.33617,-1.28976896e-14 372.254263,71.5652221 439.250988,71.5652221 C506.247713,71.5652221 602.603159,34.8477168 663.707801,26.5524383 C704.444229,21.0222526 776.042288,50.4484294 878.501976,114.830969 C774.502044,67.1907621 702.903985,54.6026371 663.707801,77.0665936 C604.913525,110.762528 491.52295,127.366451 439.250988,136.607111 C386.979027,145.84777 236.514666,63.440968 184.82833,53.6098091 C150.370773,47.0557031 88.7613295,53.9383416 0,74.2577245 Z" id="Path-6" fill="url(#linearGradient-32)"></path>
                    <path d="M0,74.4011495 C57.7115142,44.9553134 111.862088,30.2323954 162.451721,30.2323954 C238.33617,30.2323954 372.254263,94.8030838 439.250988,94.8030838 C506.247713,94.8030838 602.603159,50.9599391 663.707801,46.0258785 C704.444229,42.7365047 776.042288,65.6715348 878.501976,114.830969 C774.515658,71.3502841 702.917599,58.4305861 663.707801,76.0718746 C604.893104,102.533807 491.52295,131.832136 439.250988,137.328513 C386.979027,142.82489 236.514666,67.9673049 184.82833,62.1196972 C150.370773,58.2212921 88.7613295,62.3151095 0,74.4011495 Z" id="Path-6" fill="url(#linearGradient-33)"></path>
                </g>
                <g id="wave-copy-3" transform="translate(1253.498024, 208.511111)">
                    <path d="M0,74.2577245 C57.7115142,24.7525748 111.862088,-1.28976896e-14 162.451721,-1.28976896e-14 C238.33617,-1.28976896e-14 372.254263,71.5652221 439.250988,71.5652221 C506.247713,71.5652221 602.603159,34.8477168 663.707801,26.5524383 C704.444229,21.0222526 776.042288,50.4484294 878.501976,114.830969 C774.502044,67.1907621 702.903985,54.6026371 663.707801,77.0665936 C604.913525,110.762528 491.52295,127.366451 439.250988,136.607111 C386.979027,145.84777 236.514666,63.440968 184.82833,53.6098091 C150.370773,47.0557031 88.7613295,53.9383416 0,74.2577245 Z" id="Path-6" fill="url(#linearGradient-32)"></path>
                    <path d="M0,74.4011495 C57.7115142,44.9553134 111.862088,30.2323954 162.451721,30.2323954 C238.33617,30.2323954 372.254263,94.8030838 439.250988,94.8030838 C506.247713,94.8030838 602.603159,50.9599391 663.707801,46.0258785 C704.444229,42.7365047 776.042288,65.6715348 878.501976,114.830969 C774.515658,71.3502841 702.917599,58.4305861 663.707801,76.0718746 C604.893104,102.533807 491.52295,131.832136 439.250988,137.328513 C386.979027,142.82489 236.514666,67.9673049 184.82833,62.1196972 C150.370773,58.2212921 88.7613295,62.3151095 0,74.4011495 Z" id="Path-6" fill="url(#linearGradient-33)"></path>
                </g>
                <g id="wave" transform="translate(116.922925, 690.824691)">
                    <path d="M0,87.2953403 C57.7115142,29.0984468 111.862088,-1.51621694e-14 162.451721,-1.51621694e-14 C238.33617,-1.51621694e-14 372.254263,84.1301085 439.250988,84.1301085 C506.247713,84.1301085 602.603159,40.9660182 663.707801,31.2143167 C704.444229,24.7131825 776.042288,59.3057872 878.501976,134.992131 C774.502044,78.9876135 702.903985,64.1893596 663.707801,90.5973696 C604.913525,130.209384 491.52295,149.7285 439.250988,160.591565 C386.979027,171.454631 236.514666,74.5794586 184.82833,63.0222183 C150.370773,55.3173915 88.7613295,63.4084321 0,87.2953403 Z" id="Path-6" fill="url(#linearGradient-34)"></path>
                    <path d="M0,87.4639467 C57.7115142,52.8482311 111.862088,35.5403732 162.451721,35.5403732 C238.33617,35.5403732 372.254263,111.4479 439.250988,111.4479 C506.247713,111.4479 602.603159,59.907104 663.707801,54.1067579 C704.444229,50.2398605 776.042288,77.2016516 878.501976,134.992131 C774.515658,83.8774333 702.917599,68.6893913 663.707801,89.4280053 C604.893104,120.535926 491.52295,154.978237 439.250988,161.439626 C386.979027,167.901015 236.514666,79.9004959 184.82833,73.026209 C150.370773,68.443351 88.7613295,73.2559303 0,87.4639467 Z" id="Path-6" fill="url(#linearGradient-35)"></path>
                </g>
                <path d="M840.581028,51.4298141 C866.562936,38.124559 889.1131,29.4762573 908.23152,25.4849091 C952.641014,16.2135491 1016.30457,13.5119158 1053.76841,15.5085288 C1146.25284,20.4374309 1124.104,34.2253086 1285.11643,34.2253086 C1343.95014,34.2253086 1424.94603,22.075714 1491.69307,19.5816877 C1536.1911,17.9190034 1592.47318,11.3917742 1660.5393,1.49652581e-14 L1667.46838,37.3534407 C1510.42521,58.1741665 1382.97456,68.5400826 1285.11643,68.451189 C1138.32925,68.3167052 1114.65082,44.8106128 1031.23307,36.7730113 C975.621232,31.4146103 937.967853,31.6080867 918.272931,37.3534407 L840.581028,51.4298141 Z" id="Path-5" fill="url(#linearGradient-36)"></path>
            </g>
            <g id="Group-5" transform="translate(723.000000, 392.000000)">
                <g id="Kite" filter="url(#filter-37)">
                    <path d="M13.1184181,0 L135.992523,10.6849521 C115.642222,36.4431852 102.087455,62.5269587 95.3282244,88.9362727 C88.5689934,115.345587 84.742173,149.826212 83.847763,192.378148 L13.1184181,188.500491 C1.30594512,136.433125 -2.52912634,94.9739868 1.6132037,64.1230762 C5.75553374,33.2721656 9.5906052,11.8978069 13.1184181,0 Z" id="Rectangle" fill="#032834"></path>
                    <path d="M100.051642,151.570662 C91.4723462,134.061596 84.1789376,114.791395 78.1714166,93.7600569 C72.1638955,72.728719 68.4483855,53.4585173 67.0248865,35.9494519" id="Line" stroke="#ABB3BB" stroke-width="2" stroke-linecap="round"></path>
                    <path d="M100.051642,242.901702 C85.9071496,223.606065 74.9306465,206.025724 67.1221329,190.160678 C59.3136194,174.295633 55.7462559,165.64259 56.4200424,164.20155" id="Line" stroke="#ABB3BB" stroke-width="2" stroke-linecap="round"></path>
                    <path d="M100.051642,207.923857 C88.9749173,190.944266 80.0318354,173.430787 73.2223968,155.383419 C66.4129581,137.33605 61.7567876,119.223947 59.2538852,101.047108" id="Line" stroke="#ABB3BB" stroke-width="2" stroke-linecap="round"></path>
                    <line x1="103.451455" y1="250.674556" x2="103.451455" y2="151.570662" id="Path-7" stroke="#011E32" stroke-width="7" stroke-linecap="round"></line>
                </g>
                <g id="SURFER" filter="url(#filter-38)" transform="translate(51.656075, 216.970414)">
                    <path d="M46.7174933,213.842568 C47.4773144,224.649703 49.3746233,233.9002 52.40942,241.594058 C56.961615,253.134846 56.961615,257.197762 65.6190755,263.217244 C71.3907158,267.230232 83.6275117,269.564232 102.329463,270.219245 L105.11436,265.325306 C100.752632,262.77128 97.3424441,261.093977 94.8837959,260.293398 C91.3946411,259.157268 86.4021351,254.319789 84.6748695,253.614367 C80.6400635,251.966535 76.3218283,255.049346 74.5234782,253.614367 C70.349752,250.283974 68.7738804,240.533586 69.7958635,224.363203 L59.1267347,222.029081 L46.7174933,213.842568 Z" id="Path-11" fill="#033140"></path>
                    <path d="M67.1563966,119.439605 L77.8616794,93.213709 L104.681369,89.4250738 C111.131492,92.1677407 115.451553,94.166216 117.641554,95.4204995 C119.831554,96.6747829 121.819937,98.2893556 123.606701,100.264217 C117.616531,97.9782762 113.772298,97.0546242 112.074005,97.4932617 C110.375711,97.9318991 108.840637,98.855551 107.468782,100.264217 L114.681391,105.123026 C116.233078,108.475706 116.233078,113.370052 114.681391,119.806065 C113.82575,123.355054 112.655406,126.690276 111.153069,130.005401 C110.338324,131.803254 109.110228,134.454933 107.468782,137.960437 C107.698351,142.321636 107.337966,145.247476 106.387626,146.737955 C105.437285,148.228435 102.918755,148.065694 98.8320337,146.249732 L90.7279711,137.960437 L85.8077017,144.934581 L73.9859109,135.57754 L81.992767,129.203406 L67.1563966,119.439605 Z" id="Path-13" fill="#033140"></path>
                    <path d="M67.1563966,119.101587 L77.8616794,93.0867903 L91.9037866,91.1191241 C94.0181368,90.3017907 95.4482694,89.5523248 96.1941844,88.8707264 C96.9400993,88.1891281 98.3716399,88.3417696 100.488806,89.3286509 L97.3130568,90.361144 L104.681369,89.3286509 C111.131492,92.0492413 115.451553,94.0316303 117.641554,95.2758176 C119.831554,96.520005 121.819937,98.1215815 123.606701,100.080547 C121.09505,99.7703891 119.353652,99.5864407 118.382508,99.5287017 C116.845874,99.4373419 116.54227,100.767807 115.670452,100.991169 C114.835416,101.205107 113.199312,100.544603 112.443195,100.991169 C112.126892,101.177978 113.898871,103.835295 113.421655,104.227088 C113.215652,104.396216 111.231361,103.014036 107.468782,100.080547 C104.106043,100.456734 101.779384,100.760275 100.488806,100.991169 C98.2756055,101.387127 98.7632146,106.86727 97.5715771,107.375113 C95.3376249,108.327162 92.9312051,108.327162 90.3523179,107.375113 L87.7848712,119.101587 L82.5691132,120.627404 L77.2687394,114.759089 L73.9859109,135.109622 L71.4672051,130.164214 L67.1563966,119.101587 Z" id="Path-13" fill="#011015"></path>
                    <path d="M181.946073,276.527313 C175.211521,276.529992 167.305103,279.857116 157.735168,278.73973 C151.355211,277.994807 145.53018,275.739016 140.260073,271.972359 L136.130956,267.770713 L126.196739,212.598015 C123.396318,223.155806 121.753155,233.685916 120.882326,242.050544 C120.011497,250.415173 122.674156,259.325972 128.870304,268.782942 L101.917693,261.175353 L77.4584346,258.479127 C61.3206866,252.618598 50.4289818,244.538 44.7833202,234.237332 C43.1986704,231.346093 38.0270415,226.537775 36.1496054,219.297381 C35.4195753,216.481996 35.4215892,211.433296 36.1556471,204.151281 C33.846547,180.028649 33.8524293,165.282264 36.1732939,159.912124 C38.4941586,154.541985 42.5397722,147.877143 48.3101348,139.917598 C44.470437,132.44285 43.3099332,126.025696 44.8286233,120.666137 C47.1066586,112.626798 51.5157668,102.955371 51.5166425,100.760139 C51.5175182,98.5649077 46.9971084,99.8628896 41.998478,91.4230509 C36.9998477,82.9832121 41.1867537,76.3839668 39.687808,68.5843728 C39.1617134,65.8468995 38.3177994,63.2243203 37.1560657,60.7166353 C36.8259911,60.0041457 29.3240587,60.2041229 27.1895447,55.8817992 C26.0404621,53.5549431 21.2969312,52.0717344 20.3457179,44.741217 C20.107765,42.9074352 20.9958935,38.6893407 23.0101034,32.0869334 C34.7663795,37.1604386 42.0493162,41.3752817 44.8589134,44.7314627 C47.9673474,48.4446169 43.2042233,56.3057666 45.7216483,59.2703556 C52.5237269,67.2806707 56.8795126,72.7883707 59.366754,75.3335641 C65.8076509,81.9245321 74.1935924,94.4412452 75.0064716,96.6068754 C76.4339542,100.4099 76.9770589,103.101817 76.9844014,106.117409 C76.9893239,108.139069 76.7534539,110.306202 76.3818312,113.051114 C76.0173804,115.743053 75.5223661,118.990686 74.995863,123.201771 C73.1316874,138.111851 68.9631225,147.876593 69.8715963,148.967132 C71.8051765,151.288218 75.1696793,154.93074 79.9651046,159.894699 C88.1184622,168.065899 93.4328507,173.50923 95.9082703,176.224691 C101.097052,181.916628 101.407299,193.090378 105.297779,197.826181 C111.548253,205.434758 118.578728,210.715002 126.389202,213.666914 C135.097011,212.725794 139.728791,211.714821 140.284541,210.633994 C152.911737,186.076519 158.784669,181.300269 185.440383,168.226922 C203.210859,159.511358 223.11755,151.015019 245.160456,142.737905 C249.752692,139.131228 254.396622,137.326955 259.092248,137.325087 C263.787873,137.323218 269.549054,139.123351 276.375789,142.725484 L369.840941,139.789654 L394.725428,139.779752 L423.686728,138.424067 C431.472616,137.513459 436.626802,137.511408 439.149288,138.417914 C441.671775,139.32442 444.91149,141.125556 448.868434,143.821321 C444.241251,146.849845 439.229075,150.597852 433.831906,155.065343 C425.736152,161.766578 421.798997,165.476602 411.383345,166.216188 C396.500329,167.272988 382.651656,161.483516 369.837328,148.84777 C368.021131,153.957698 365.553732,156.744506 362.435131,157.208195 C359.31653,157.671883 355.315029,155.846902 350.430627,151.733251 C349.688255,152.237352 346.393688,154.923271 340.546926,159.791008 C331.776783,167.092614 315.838059,178.101936 304.729933,179.751777 C289.723698,181.980588 275.857583,177.488389 263.131588,166.27518 C255.636572,170.671595 250.148457,173.968102 246.667243,176.164701 C239.222929,180.861964 232.319828,185.555959 225.95794,190.246686 C215.1335,198.227727 208.352866,205.014831 205.616039,210.607997 C203.944148,213.610733 203.107655,216.485049 203.10656,219.230946 C203.105464,221.976842 203.939803,224.503326 205.609575,226.810397 L236.652531,249.615355 C249.953595,254.108068 258.767697,257.038036 263.094838,258.405258 C270.803127,260.840803 275.313657,261.306061 276.327988,262.557839 C278.19643,264.863668 280.062673,269.506897 281.926716,276.487528 C284.621517,287.453565 286.785237,295.489813 288.417879,300.596273 C290.050521,305.702733 292.412418,310.880814 295.503571,316.130517 L284.76512,320.827004 C279.523587,314.755173 275.714198,311.304121 273.336954,310.473849 C254.772735,303.990145 243.892833,305.039208 240.967099,300.615154 C237.479381,295.341316 238.859989,285.77981 245.108922,271.930638" id="Path-8" fill="#033140" transform="translate(234.588220, 176.456969) rotate(9.000000) translate(-234.588220, -176.456969) "></path>
                    <path d="M115.896989,252.007027 C114.202072,247.806999 113.006518,244.447886 112.310327,241.929687 C111.614136,239.411488 110.837616,235.373612 109.980766,229.816059 C112.355021,220.854978 114.327095,214.174533 115.896989,209.774722 C117.466883,205.374911 119.503764,200.60941 122.007633,195.478221 L135.518087,195.478221 C142.2339,186.685314 147.048446,180.827135 149.961725,177.903684 C152.875004,174.980233 156.669987,172.379686 161.346674,170.102042 L212.689569,196.109359 C205.759025,200.213362 201.516288,203.353543 199.961358,205.529903 C198.406427,207.706263 198.406427,212.755368 199.961358,220.677219 L214.121844,238.650361 L199.961358,270.219245 L163.220398,267.26196 C156.819359,267.614875 151.920734,267.614875 148.524522,267.26196 C145.128309,266.909045 141.722334,266.04608 138.306595,264.673062 C134.058657,262.591565 130.67807,260.51328 128.164836,258.438207 C125.651602,256.363134 123.599201,253.955627 122.007633,251.215687 L115.896989,252.007027 Z" id="Path-9" stroke="#127B9C" stroke-width="0.5" fill="url(#linearGradient-39)"></path>
                    <path d="M137.232637,235.226824 C139.52971,236.418284 142.107962,237.575909 144.967392,238.6997 C147.826822,239.82349 155.954662,238.665865 169.350913,235.226824" id="Path-10" stroke="#FFFFFF" stroke-linecap="round"></path>
                    <path d="M53.5304611,174.962101 C54.7532004,185.065548 56.8212029,190.781589 59.7344686,192.110225 C62.6477343,193.43886 71.610251,198.738951 86.6220188,208.010498" id="Path-10" stroke="#FFFFFF" stroke-width="0.5" stroke-linecap="round"></path>
                    <path d="M102.194517,270.93019 C102.916282,268.447948 103.857476,266.775843 105.018097,265.913874 C106.178718,265.051905 109.509405,264.250378 115.010157,263.509293 L125.695673,257.583093 C126.787559,260.303605 126.787559,262.528121 125.695673,264.256641 C124.603787,265.985161 122.357412,267.31679 118.956548,268.251528 C117.925423,270.344302 119.032325,272.345198 122.277253,274.254216 C125.522182,276.163234 129.773798,277.314798 135.032102,277.708908 L142.099042,277.708908 C139.532059,282.772861 135.926617,285.709137 131.282716,286.517737 C126.638814,287.326337 121.214628,285.962307 115.010157,282.425647 L102.194517,270.93019 Z" id="Path-12" fill="#033140"></path>
                </g>
                <g id="SURFBOARD" filter="url(#filter-40)" transform="translate(191.811215, 393.917160)">
                    <path d="M183.645916,349.91879 C225.071057,289.050887 243.958639,221.21182 240.308661,146.401587 C236.658683,71.5913548 225.519194,12.1757121 206.890193,-31.8453409 L168.082115,-31.2036652 C142.280401,42.5749327 129.786317,102.588203 130.599862,148.836146 C131.92098,223.938335 149.602998,290.965883 183.645916,349.91879 Z" id="Oval" fill="url(#linearGradient-41)" transform="translate(185.657279, 159.036724) scale(1, -1) rotate(-53.000000) translate(-185.657279, -159.036724) "></path>
                    <line x1="72.8602804" y1="248.259778" x2="256.539136" y2="108.613653" id="Line-2" stroke="#FFFFFF" stroke-linecap="square"></line>
                </g>
            </g>
            <path d="M1304.12171,190.853632 C1316.24806,190.853632 1326.07841,199.78323 1326.07841,210.798446 C1326.07841,211.106693 1326.07071,211.413307 1326.05548,211.718138 L1326.15574,211.71678 C1345.97197,211.71678 1362.0362,225.536395 1362.0362,242.583754 C1362.0362,259.631112 1345.97197,273.450727 1326.15574,273.450727 C1310.58454,273.450727 1297.33001,264.917798 1292.36581,252.990909 C1289.38096,254.133767 1286.11571,254.76353 1282.69434,254.76353 C1268.49764,254.76353 1256.98893,243.920447 1256.98893,230.544827 C1256.98893,217.169207 1268.49764,206.326125 1282.69434,206.326125 C1282.70269,206.326125 1282.71104,206.326128 1282.71939,206.326136 C1284.95441,197.46409 1293.68821,190.853632 1304.12171,190.853632 Z" id="Combined-Shape" stroke="#FFFFFF" stroke-width="2" fill="#054256" opacity="0.784621466" transform="translate(1309.512569, 232.152180) rotate(-16.000000) translate(-1309.512569, -232.152180) "></path>
            <g id="Group-3" transform="translate(958.000000, 99.000000)" stroke="#FFFFFF">
                <ellipse id="Oval" fill="#2290B2" cx="47" cy="39.527027" rx="22.7078652" ry="22.6621622"></ellipse>
                <line x1="47" y1="13.1756757" x2="47" y2="0.527027027" id="Line-3" stroke-linecap="square"></line>
                <line x1="48.0561798" y1="77.472973" x2="48.0561798" y2="64.8243243" id="Line-3-Copy-2" stroke-linecap="square"></line>
                <line x1="66.011236" y1="21.6081081" x2="76.5730337" y2="12.1216216" id="Line-3-Copy" stroke-linecap="square"></line>
                <line x1="74.4606742" y1="39.527027" x2="93.4719101" y2="39.527027" id="Line-3-Copy-6" stroke-linecap="square"></line>
                <line x1="0.528089888" y1="39.527027" x2="19.011236" y2="39.527027" id="Line-3-Copy-7" stroke-linecap="square"></line>
                <line x1="19.5393258" y1="69.0405405" x2="30.1011236" y2="59.5540541" id="Line-3-Copy-3" stroke-linecap="square"></line>
                <line x1="79.741573" y1="67.4594595" x2="66.011236" y2="57.4459459" id="Line-3-Copy-4" stroke-linecap="square"></line>
                <line x1="24.8202247" y1="24.2432432" x2="11.0898876" y2="14.2297297" id="Line-3-Copy-5" stroke-linecap="square"></line>
            </g>
            <path d="M438.211765,87 C453.526511,87 466.492574,95.546393 470.867278,107.333606 C475.033436,105.285191 479.857847,104.115385 485,104.115385 C500.756359,104.115385 513.529412,115.098758 513.529412,128.647436 C513.529412,128.910696 513.524589,129.172988 513.515016,129.434249 C552.196432,130.991487 582,140.773745 582,152.608974 C582,165.527481 546.490913,176 502.688235,176 C476.793512,176 453.797226,172.340073 439.322117,166.678507 C434.116355,172.339963 425.8442,176 416.529412,176 C400.773053,176 388,165.527481 388,152.608974 C388,142.045241 396.540925,133.11706 408.269905,130.213206 C405.534591,126.033733 403.976471,121.219589 403.976471,116.096154 C403.976471,100.026792 419.304134,87 438.211765,87 Z" id="Combined-Shape" stroke="#FFFFFF" stroke-width="2" fill="#043D4F" opacity="0.617838542"></path>
            <path d="M1682.07595,23 C1695.05824,23 1706.07639,31.3927606 1709.98018,43.0383096 C1713.51937,40.9629033 1717.62384,39.776699 1722,39.776699 C1731.10975,39.776699 1739.04212,44.9169586 1743.15989,52.5082587 C1777.81085,54.2491481 1805,71.1220141 1805,91.6796117 C1805,113.395662 1774.66021,131 1737.23418,131 C1710.66928,131 1687.67451,122.130717 1676.56546,109.217177 C1672.7298,111.717586 1668.12148,113.174757 1663.16456,113.174757 C1649.81884,113.174757 1639,102.612155 1639,89.5825243 C1639,79.1260658 1645.96764,70.2584435 1655.61729,67.1637879 C1653.06824,62.818287 1651.60759,57.7589925 1651.60759,52.3592233 C1651.60759,36.144572 1664.77836,23 1681.02532,23 C1681.20085,23 1681.37603,23.0015344 1681.55083,23.0045904 L1681.58947,23.0039333 L1681.58947,23.0039333 Z" id="Combined-Shape-Copy" stroke="#FFFFFF" stroke-width="2" fill="#043D4F" opacity="0.617838542" transform="translate(1722.000000, 77.000000) scale(-1, 1) translate(-1722.000000, -77.000000) "></path>
            <path d="M2286.5,225.526779 L2699.82883,247.101371 L2547.56855,247.101371 L2405.9002,252.883858 L2459.77796,247.101371 L2286.5,247.101371 L2286.5,225.526779 Z" id="Rectangle" stroke="#FFFFFF" opacity="0.894903274" transform="translate(2502.500000, 239.500000) scale(-1, 1) translate(-2502.500000, -239.500000) "></path>
        </g>
    </g>
</svg>