<?xml version="1.0" encoding="UTF-8"?>
<svg width="1200px" height="1024px" viewBox="0 0 1200 1024" version="1.1" xmlns="http://www.w3.org/2000/svg" xmlns:xlink="http://www.w3.org/1999/xlink">
    <title>Artboard Copy 4</title>
    <defs>
        <linearGradient x1="50%" y1="0%" x2="50%" y2="77.9298501%" id="linearGradient-1">
            <stop stop-color="#FA980D" offset="0%"></stop>
            <stop stop-color="#F04307" offset="100%"></stop>
            <stop stop-color="#F04307" offset="100%"></stop>
        </linearGradient>
        <rect id="path-2" x="56" y="82" width="262" height="562"></rect>
        <path d="M59.9137318,10.6194652 C58.5575636,15.857366 57.3321296,19.3652567 56.2374298,21.1431373 C54.5953803,23.8099583 51.1876687,26.8144105 48.3466431,27.3678601 C44.7788062,28.062897 41.2684906,27.5727847 37.7244342,27.6319179 C36.7869834,27.6475594 34.2126152,27.5681497 32.1070332,27.555293 C30.0846307,27.5429443 29.686856,27.5865723 27.9558279,27.5707384 C26.2388401,27.555033 24.7274826,28.4337276 23.4217553,30.2068223 C30.2737133,31.7651975 34.4482093,32.5700133 35.9452433,32.6212695 C36.9792099,32.656671 38.9770782,33.0480627 42.1839698,32.5263761 C43.1414521,32.370616 44.8364454,31.8695956 47.26895,31.023315 C44.3127683,34.6474741 42.2005501,36.8770879 40.9322953,37.7121565 C39.0299131,38.9647594 35.9452433,40.1060059 31.7484147,40.1060059 C27.551586,40.1060059 18.4635267,35.6482152 13.2558578,35.7662651 C9.78407857,35.8449651 5.37229406,41.3445823 0.0205042819,52.2651169 C0.439269677,46.431045 0.919632337,42.378008 1.46159226,40.1060059 C2.8822088,34.1505032 5.29888926,30.1692341 6.53008461,28.6582993 C9.43369463,25.0949609 12.7969203,22.192325 15.4839709,20.6159 C18.1710215,19.0394749 20.1048296,18.1504355 24.7259892,18.1504355 C29.3471488,18.1504355 42.90688,19.2092179 47.26895,19.0579768 C48.5307339,19.0142284 50.3766739,18.8102993 52.1305347,17.7454036 C53.6560554,16.8191496 56.2504544,14.4438368 59.9137318,10.6194652 Z M59.9476576,0.110349099 C57.0313447,6.41772013 54.9356021,10.0810711 53.6604298,11.100402 C51.7476712,12.6293984 49.91905,14.1173144 43.7620391,14.1173144 C41.8212648,14.1173144 38.1422028,13.7011308 34.571205,13.4434757 C28.7611183,13.0242655 23.9860515,12.1573767 20.4007327,13.4434757 C19.2165649,13.8682516 17.1322508,14.984804 14.7369557,16.4488715 C14.3182201,16.7048137 13.1001903,17.7541708 12.6887577,18.0949 C11.5904833,19.0044397 10.0411193,20.4773964 8.04066576,22.5137703 C8.85796615,20.6481153 9.65788666,19.1751585 10.4404273,18.0949 C12.3645593,15.4387312 14.0568007,13.7163437 14.3296693,13.4434757 C15.6011126,12.1720351 17.8702659,10.3129123 21.3752415,8.53653253 C24.8802172,6.76015278 28.8918122,6.18088931 29.9016455,5.99320186 C36.5610399,4.75548792 47.3992281,6.76081424 50.058361,6.56242791 C51.8311163,6.43017037 55.1275485,4.27947743 59.9476576,0.110349099 Z" id="path-4"></path>
    </defs>
    <g id="Artboard-Copy-4" stroke="none" stroke-width="1" fill="none" fill-rule="evenodd">
        <rect id="Rectangle" fill="url(#linearGradient-1)" x="0" y="0" width="1200" height="1024"></rect>
        <g id="Character" transform="translate(629.000000, 452.000000) scale(-1, 1) rotate(-360.000000) translate(-629.000000, -452.000000) translate(467.000000, 130.000000)">
            <mask id="mask-3" fill="white">
                <use xlink:href="#path-2"></use>
            </mask>
            <g id="Rectangle-Copy"></g>
            <g id="meditate" mask="url(#mask-3)">
                <g transform="translate(73.000000, 473.000000)">
                    <polygon id="Path-37" stroke="#FFFFFF" stroke-width="1.5" fill="none" points="85.0593893 106.682197 111.954173 114.515415 138.848956 106.682197 143.333463 122.15612 117.190826 143.25895 78.3831047 126.435608"></polygon>
                    <path d="M81.920749,57.1780306 C77.2804768,63.3486638 73.9875094,71.7164411 72.041847,82.2813627 C69.8176785,77.3277423 66.7574189,74.8509322 62.861068,74.8509322 C58.9647171,74.8509322 42.0593491,76.6422724 12.144964,80.2249527 C17.8911867,79.7009051 19.415665,77.2063356 16.7183992,72.7412443 C14.9461105,69.807373 11.7513368,69.9079609 7.49608706,67.1968786 C6.01551231,66.2535826 3.51681662,63.8946266 0,60.1200107 L12.144964,87.2397044 L72.041847,100.586071 L96.5942904,78.2558498 L93.5569136,45.7209414 C90.4397428,47.1883677 86.5610213,51.0073974 81.920749,57.1780306 Z" id="Path-33" stroke="#FFFFFF" stroke-width="1.5" fill="none"></path>
                    <path d="M212.790433,57.1780306 C208.150161,63.3486638 204.857193,71.7164411 202.911531,82.2813627 C200.687362,77.3277423 197.627103,74.8509322 193.730752,74.8509322 C189.834401,74.8509322 172.929033,76.6422724 143.014648,80.2249527 C148.76087,79.7009051 150.285349,77.2063356 147.588083,72.7412443 C145.815794,69.807373 142.621021,69.9079609 138.365771,67.1968786 C136.885196,66.2535826 134.3865,63.8946266 130.869684,60.1200107 L143.014648,87.2397044 L202.911531,100.586071 L227.463974,78.2558498 L224.426597,45.7209414 C221.309427,47.1883677 217.430705,51.0073974 212.790433,57.1780306 Z" id="Path-33-Copy" stroke="#FFFFFF" stroke-width="1.5" fill="none" transform="translate(179.166829, 73.153506) scale(-1, 1) translate(-179.166829, -73.153506) "></path>
                    <path d="M103.920249,41.2935169 L91.967276,45.4393644 C86.1842154,51.4608678 84.0321991,58.5306389 85.511227,66.6486776 C85.7513709,67.9667712 91.6916485,77.0011603 91.967276,78.3016197 C92.9152368,82.7742678 92.9152368,86.673541 91.967276,89.9994391 L85.511227,106.682197 L111.875163,114.515415 L138.818726,106.682197 L132.445472,91.7039053 C131.73455,84.5438248 131.73455,79.4221906 132.445472,76.3390027 C133.416925,72.1259213 138.692028,67.8880266 138.818726,64.8339438 C139.084503,58.4273346 137.597758,52.0127783 134.358489,45.5902749 L118.405904,41.2935169 L111.875163,46.9852678 L103.920249,41.2935169 Z" id="Path-32" stroke="#FFFFFF" stroke-width="1.5" fill="#EF480D" fill-rule="evenodd"></path>
                    <g id="Group" stroke="none" stroke-width="1" fill="none" fill-rule="evenodd" transform="translate(31.159449, 106.682197)">
                        <path d="M53.5460654,6.51878139 C42.3247455,2.27821487 32.8290909,0.113913171 25.0591017,0.0258763016 C13.4041179,-0.106179003 1.20042111e-13,0.0258763016 1.20042111e-13,6.51878139 C1.20042111e-13,13.0116865 9.21851573,29.9607895 25.0591017,35.5449358 C35.6194924,39.2676999 80.1653402,46.7211659 158.696645,57.9053336 C130.222113,46.7932926 111.552041,36.3777552 102.686428,26.6587215 C99.4769193,23.1402587 89.5916659,23.9397715 73.0306683,29.0572602 L71.5274286,28.9526668 L63.9464977,20.9663852 L53.5460654,6.51878139 Z" id="Path-34" stroke="#FFFFFF" stroke-width="1.5" fill="#F35D08"></path>
                        <path d="M41.7123011,39.506822 C33.6083451,37.9873049 28.0572786,36.6666762 25.0591017,35.5449358 C15.9364528,32.1317802 11.3053257,26.7936796 9.53611113,24.91442 C3.25253103,18.2400016 0,9.18405387 0,6.51878139 C0,3.24866828e-14 13.7889106,3.24866828e-14 26.3299989,3.24866828e-14 C29.7733334,3.24866828e-14 49.7095569,3.73015997 53.5460654,6.51878139 C55.623116,8.02851551 58.3835846,11.8384631 61.8274714,17.9486242 L41.7123011,39.506822 Z" id="Path-36" stroke="#FFFFFF" stroke-width="1.5" fill="#EF480D"></path>
                    </g>
                    <g id="Group-Copy" stroke="none" stroke-width="1" fill="none" fill-rule="evenodd" transform="translate(111.228634, 138.643574) scale(-1, 1) translate(-111.228634, -138.643574) translate(31.728634, 108.643574)">
                        <path d="M53.5460654,7.65915901 C42.3247455,3.41859249 32.8290909,1.2542908 25.0591017,1.16625393 C13.4041179,1.03419863 -6.33239389e-14,1.16625393 -6.33239389e-14,7.65915901 C-6.33239389e-14,14.1520641 9.21851573,31.1011672 25.0591017,36.6853134 C35.6194924,40.4080775 80.1653402,47.8615435 158.696645,59.0457113 C130.222113,47.9336702 111.552041,37.5181328 102.686428,27.7990992 C99.4769193,24.2806363 89.5916659,25.0801492 73.0306683,30.1976378 L71.5274286,30.0930445 L63.9464977,22.1067629 L53.5460654,7.65915901 Z" id="Path-34" stroke="#FFFFFF" stroke-width="1.5" fill="#F25D08"></path>
                        <path d="M41.7123011,40.6471996 C33.6083451,39.1276826 28.0572786,37.8070538 25.0591017,36.6853134 C15.9364528,33.2721579 11.3053257,27.9340573 9.53611113,26.0547976 C3.25253103,19.3803792 -2.11079796e-13,10.3244315 -2.11079796e-13,7.65915901 C-2.11079796e-13,1.14037763 13.7250685,-2.10345691e-13 26.2661568,-2.10345691e-13 C29.7094914,-2.10345691e-13 49.7095569,4.8705376 53.5460654,7.65915901 C55.623116,9.16889313 58.3835846,12.9788407 61.8274714,19.0890019 L41.7123011,40.6471996 Z" id="Path-36" stroke="#FFFFFF" stroke-width="1.5" fill="#EF480D"></path>
                    </g>
                    <polygon id="Path-35" stroke="#FFFFFF" stroke-width="1.5" fill="none" points="103.920249 41.2935169 105.016914 30.4806276 116.472945 30.4806276 118.405904 41.2935169 111.875163 46.9852678"></polygon>
                    <path d="M117.341278,29.6267333 C120.203262,34.561948 121.55873,39.4314948 121.407682,44.2353736 C121.181109,51.4411919 117.341278,55.8918791 116.45179,57.9156471 C115.562302,59.9394151 114.356397,66.8073818 116.45179,70.3820985 C118.547182,73.9568151 125.019553,80.3527095 129.337109,79.0861233 C132.21548,78.2417326 134.803635,73.3211366 137.101574,64.3243355 C134.815901,67.1007929 133.169303,68.8086492 132.161782,69.4479045 C129.777061,70.9609693 127.642725,70.3820985 126.776682,70.3820985 C124.654353,70.3820985 122.362041,67.894467 122.894449,64.3243355 C123.426858,60.7542039 132.66237,52.9464149 132.161782,42.6803484 C131.828056,35.8363042 128.089771,29.7376887 120.946926,24.3845021 C120.652827,25.6217155 120.176395,26.7192095 119.51763,27.676984 C118.858865,28.6347586 118.133414,29.284675 117.341278,29.6267333 Z" id="Path-40" stroke="#FFFFFF" stroke-width="1.5" fill="#F56F0A" fill-rule="evenodd"></path>
                    <rect id="Rectangle" stroke="#FFFFFF" stroke-width="1.5" fill="#F56E0A" fill-rule="evenodd" x="99.7102353" y="3.04806276" width="21.811614" height="30.4806276" rx="10.905807"></rect>
                    <path d="M100.92371,5.44005073 C101.337545,4.71800497 102.234769,4.18826083 103.615384,3.8508183 C103.615384,1.2836061 105.698004,0 109.863244,0 C112.104178,0 118.120528,0.645722394 120.688007,5.44005073 C121.468097,6.89673434 121.700835,10.1634887 121.386221,15.2403138 L112.623103,15.2403138 C110.897301,14.6298387 109.533148,13.9053255 108.530643,13.0667742 C107.528138,12.2282229 106.711892,11.128928 106.081904,9.76888938 L103.960226,14.1655827 L100.043227,15.2403138 C99.397452,10.8576946 99.6909463,7.59094027 100.92371,5.44005073 Z" id="Path-38" stroke="#FFFFFF" stroke-width="1.5" fill="#F56F0A" fill-rule="evenodd"></path>
                </g>
            </g>
            <g id="moon" stroke="#FFFFFF" stroke-width="2">
                <g id="Group" transform="translate(5.172554, 88.423611)" fill-rule="nonzero">
                    <polygon id="star" points="7.57420887 3.04438576 9.91390825 8.0563562 15.146998 8.85893154 11.3606034 12.7592976 12.2536076 18.2663146 7.57420887 15.6665705 2.89339038 18.2663146 3.78639457 12.7592976 1.03781514e-13 8.85893154 5.23308976 8.0563562"></polygon>
                    <polygon id="star_fast" points="22.720497 5.20605666e-14 24.123991 3.00791565 27.2645964 3.48897375 24.991725 5.83000741 25.5291284 9.13315728 22.720497 7.57362595 19.9118656 9.13315728 20.449269 5.83000741 18.1763976 3.48897375 21.317003 3.00791565"></polygon>
                </g>
                <line x1="126.017443" y1="80.7784638" x2="233.158824" y2="80.6215278" id="Line-Copy-3" stroke-linecap="round" stroke-linejoin="round"></line>
                <line x1="227.598184" y1="69.1041667" x2="293.402284" y2="69.2260698" id="Line-Copy-4" stroke-linecap="round" stroke-linejoin="round"></line>
                <path d="M58.5128184,75.0486111 C48.8493515,75.0486111 41.0154381,67.3494718 41.0154381,57.8522545 C41.0154381,48.3550372 48.8493515,40.6558979 58.5128184,40.6558979 C58.5128184,26.4098201 70.2636885,14.8611111 84.7591452,14.8611111 C99.2546019,14.8611111 111.005472,26.4098201 111.005472,40.6558979 C120.668939,40.6558979 128.502852,48.3550372 128.502852,57.8522545 C128.502852,67.3494718 120.668939,75.0486111 111.005472,75.0486111 L58.5128184,75.0486111 Z" id="Path-Copy" fill-rule="nonzero"></path>
                <path d="M286.639522,39.9722874 C281.48359,39.9722874 277.303815,35.9134668 277.303815,30.9067382 C277.303815,25.9000097 281.48359,21.8411891 286.639522,21.8411891 C286.639522,14.3309634 292.909185,8.24273256 300.643219,8.24273256 C308.377253,8.24273256 314.646916,14.3309634 314.646916,21.8411891 C319.802848,21.8411891 323.982623,25.9000097 323.982623,30.9067382 C323.982623,35.9134668 319.802848,39.9722874 314.646916,39.9722874 L286.639522,39.9722874 Z" id="Path-Copy-2" fill-rule="nonzero"></path>
                <path d="M12.5846315,81.9398394 C5.76549622,81.9398394 0.23740619,76.4958658 0.23740619,69.7804918 C0.23740619,63.0651177 5.76549622,57.6211441 12.5846315,57.6211441 C12.5846315,47.5479049 20.8767665,39.3819444 31.1056503,39.3819444 C41.3345341,39.3819444 49.6266691,47.5479049 49.6266691,57.6211441 C56.4458044,57.6211441 61.9738944,63.0651177 61.9738944,69.7804918 C61.9738944,76.4958658 56.4458044,81.9398394 49.6266691,81.9398394 L12.5846315,81.9398394 Z" id="Path" fill="#F98A0C" fill-rule="nonzero"></path>
                <path d="M239.962289,44.737247 C255.014196,44.737247 267.214785,32.5417248 267.214785,17.4984204 C267.214785,10.8326278 264.811667,4.73486671 260.83508,0 C273.121495,3.94190996 282.018751,15.443595 282.018751,29.03251 C282.018751,45.8771223 268.357219,59.5308463 251.502974,59.5308463 C237.906289,59.5308463 226.398027,50.6386751 222.453862,38.3592824 C227.191437,42.335503 233.294592,44.737247 239.962289,44.737247 Z" id="Path" fill-rule="nonzero"></path>
                <path d="M269.065183,5.63014124 C273.135355,10.8184652 276.681896,16.7572275 276.681896,23.8747149 C276.681896,40.7372448 263.058232,54.405492 246.250704,54.405492 C239.156432,54.405492 233.545981,51.7261442 228.37458,47.6426527 C233.943488,54.7353339 241.661299,59.5308463 251.35934,59.5308463 C268.166868,59.5308463 281.790533,45.862599 281.790533,29.0000691 C281.790533,19.2702921 276.134729,11.2191816 269.065183,5.63014124 Z" id="Path" fill="#F8880C" fill-rule="nonzero"></path>
                <g id="Group" transform="translate(227.474658, 10.303416)" fill-rule="nonzero">
                    <polygon id="star_fast" points="9.92872212 2.19453773 12.9683903 8.7321664 19.7670658 9.77904798 14.8478939 14.8666967 16.0080586 22.0500655 9.92872212 18.6589519 3.84754121 22.0500655 5.00770584 14.8666967 0.088534026 9.77904798 6.88720944 8.7321664"></polygon>
                    <polygon id="star" points="27.0748118 0.102731369 28.6499797 3.49188817 32.1747406 4.03391844 29.623854 6.67166865 30.226992 10.3934794 27.0748118 8.63628379 23.9226316 10.3934794 24.5257696 6.67166865 21.974883 4.03391844 25.4996439 3.49188817"></polygon>
                </g>
                <line x1="45.038463" y1="99.5694444" x2="94.2268845" y2="99.5694444" id="Line-Copy-6" stroke-linecap="round" stroke-linejoin="round"></line>
                <line x1="69.1778859" y1="93.775731" x2="100.572257" y2="93.775731" id="Line-Copy-7" stroke-linecap="round" stroke-linejoin="round"></line>
            </g>
        </g>
        <g id="Group-2" transform="translate(554.000000, 762.000000)">
            <g id="Logo" transform="translate(16.000000, 51.000000)">
                <mask id="mask-5" fill="white">
                    <use xlink:href="#path-4"></use>
                </mask>
                <use id="Combined-Shape" fill="#FFFFFF" xlink:href="#path-4"></use>
            </g>
            <text id="fitted" font-family="Futura-Medium, Futura" font-size="40" font-weight="400" letter-spacing="0.6746664" fill="#FFFFFF">
                <tspan x="0" y="42">fitted</tspan>
            </text>
        </g>
        <g id="Pause" opacity="0.0777994792" transform="translate(1028.000000, 866.000000)">
            <polygon id="Path-31" fill="#FFFFFF" points="26 16.8 26 43.9565201 34.4 43.9565201 34.4 16.8"></polygon>
            <circle id="Oval" stroke="#FFFFFF" stroke-width="3" cx="30" cy="30" r="30"></circle>
        </g>
        <g id="Play" transform="translate(1028.000000, 866.000000)">
            <path d="M21.6,16.8 L21.6,43.9565201 C36.2019384,35.0191233 43.5029076,30.3648164 43.5029076,29.9935995 C43.5029076,29.6223825 36.2019384,25.224516 21.6,16.8 Z" id="Path-31" fill="#FFFFFF"></path>
            <circle id="Oval" stroke="#FFFFFF" stroke-width="3" cx="30" cy="30" r="30"></circle>
        </g>
    </g>
</svg>