<?xml version="1.0" encoding="UTF-8"?>
<svg width="3840px" height="1800px" viewBox="0 0 3840 1800" version="1.1" xmlns="http://www.w3.org/2000/svg" xmlns:xlink="http://www.w3.org/1999/xlink">
    <title>Artboard</title>
    <defs>
        <radialGradient cx="51.7903288%" cy="53.918675%" fx="51.7903288%" fy="53.918675%" r="73.7132053%" gradientTransform="translate(0.517903,0.539187),scale(0.468750,1.000000),rotate(82.131187),translate(-0.517903,-0.539187)" id="radialGradient-1">
            <stop stop-color="#FA980D" offset="0%"></stop>
            <stop stop-color="#F04307" offset="100%"></stop>
        </radialGradient>
        <path d="M149.78433,26.548663 C146.393909,39.6434149 143.330324,48.4131417 140.593575,52.8578433 C136.488451,59.5248958 127.969172,67.0360262 120.866608,68.4196502 C111.947015,70.1572426 103.171226,68.9319619 94.3110855,69.0797947 C91.9674586,69.1188985 85.531538,68.9203742 80.2675831,68.8882326 C75.2115767,68.8573607 74.2171401,68.9664306 69.8895698,68.926846 C65.5971004,68.8875825 61.8187065,71.084319 58.5543883,75.5170557 C75.6842834,79.4129938 86.1205233,81.4250332 89.8631082,81.5531738 C92.4480246,81.6416775 97.4426956,82.6201568 105.459925,81.3159402 C107.85363,80.92654 112.091114,79.673989 118.172375,77.5582874 C110.781921,86.6186852 105.501375,92.1927198 102.330738,94.2803913 C97.5747828,97.4118985 89.8631082,100.265015 79.3710367,100.265015 C68.8789651,100.265015 46.1588166,89.120538 33.1396445,89.4156628 C24.4601964,89.6124126 13.4307351,103.361456 0.0512607048,130.662792 C1.09817419,116.077612 2.29908084,105.94502 3.65398066,100.265015 C7.20552199,85.3762581 13.2472232,75.4230854 16.3252115,71.6457482 C23.5842366,62.7374024 31.9923007,55.4808124 38.7099273,51.5397499 C45.4275538,47.5986874 50.262074,45.3760887 61.814973,45.3760887 C73.3678719,45.3760887 107.2672,48.0230448 118.172375,47.6449421 C121.326835,47.5355711 125.941685,47.0257484 130.326337,44.3635089 C134.140138,42.0478741 140.626136,36.1095921 149.78433,26.548663 Z M149.869144,0.275872747 C142.578362,16.0443003 137.339005,25.2026778 134.151074,27.7510051 C129.369178,31.573496 124.797625,35.2932861 109.405098,35.2932861 C104.553162,35.2932861 95.355507,34.2528271 86.4280125,33.6086892 C71.9027958,32.5606637 59.9651286,30.3934417 51.0018316,33.6086892 C48.0414123,34.6706289 42.8306271,37.4620099 36.8423892,41.1221787 C35.7955502,41.7620343 32.7504757,44.3854269 31.7218943,45.2372501 C28.9762082,47.5110992 25.1027982,51.1934911 20.1016644,56.2844257 C22.1449154,51.6202882 24.1447166,47.9378963 26.1010682,45.2372501 C30.9113983,38.5968281 35.1420017,34.2908592 35.8241732,33.6086892 C39.0027816,30.4300877 44.6756648,25.7822807 53.4381039,21.3413313 C62.2005429,16.9003819 72.2295306,15.4522233 74.7541139,14.9830046 C91.4025997,11.8887198 118.49807,16.9020356 125.145903,16.4060698 C129.577791,16.0754259 137.818871,10.6986936 149.869144,0.275872747 Z" id="path-2"></path>
    </defs>
    <g id="Artboard" stroke="none" stroke-width="1" fill="none" fill-rule="evenodd">
        <rect id="Rectangle" fill="url(#radialGradient-1)" x="0" y="0" width="3840" height="1800"></rect>
        <g id="Group-24" transform="translate(2507.000000, 657.000000)" stroke="#FFFFFF" stroke-width="4">
            <g id="Group-5" transform="translate(556.500000, 523.500000) scale(-1, 1) rotate(-360.000000) translate(-556.500000, -523.500000) ">
                <g id="Group" transform="translate(840.487113, 887.279231)" fill-rule="nonzero">
                    <polygon id="Path" fill="#E04F08" points="28.8584264 11.5624846 37.7728944 30.5977961 57.7114436 33.6459528 43.284935 48.4594248 46.6873624 69.3749077 28.8584264 59.5011589 11.0240812 69.3749077 14.4265086 48.4594248 3.95417032e-13 33.6459528 19.9385492 30.5977961"></polygon>
                    <polygon id="Path" points="86.5671653 1.9772445e-13 91.9146054 11.4239723 103.880598 13.2510163 95.2207511 22.142191 97.2683072 34.6874539 86.5671653 28.7644013 75.8660235 34.6874539 77.9135796 22.142191 69.2537323 13.2510163 81.2197253 11.4239723"></polygon>
                </g>
                <line x1="342.314433" y1="955.662674" x2="651.703301" y2="952.793439" id="Line-Copy-3" stroke-linecap="round" stroke-linejoin="round"></line>
                <path d="M47.0440542,372.729689 C21.0625271,372.729689 -2.37250219e-12,352.053643 -2.37250219e-12,326.548856 C-2.37250219e-12,301.044069 21.0625271,280.368023 47.0440542,280.368023 C47.0440542,242.110166 78.6378449,211.096097 117.610825,211.096097 C156.583805,211.096097 188.177595,242.110166 188.177595,280.368023 C214.159122,280.368023 235.221649,301.044069 235.221649,326.548856 C235.221649,352.053643 214.159122,372.729689 188.177595,372.729689 L47.0440542,372.729689 Z" id="Path" fill-rule="nonzero"></path>
                <path d="M909.852192,151.813533 C890.207622,151.813533 874.282297,136.398256 874.282297,117.382853 C874.282297,98.3674498 890.207622,82.9521726 909.852192,82.9521726 C909.852192,54.4285636 933.74018,31.3056478 963.207555,31.3056478 C992.67493,31.3056478 1016.56292,54.4285636 1016.56292,82.9521726 C1036.20749,82.9521726 1052.13281,98.3674498 1052.13281,117.382853 C1052.13281,136.398256 1036.20749,151.813533 1016.56292,151.813533 L909.852192,151.813533 Z" id="Path-Copy-2" fill-rule="nonzero"></path>
                <g id="moon" transform="translate(665.191406, 0.000000)" fill-rule="nonzero">
                    <path d="M66.8162733,169.910705 C124.16541,169.910705 170.650767,123.592482 170.650767,66.4584692 C170.650767,41.1419913 161.49467,17.9828799 146.343511,9.88622252e-14 C193.15587,14.9712543 227.055227,58.6543047 227.055227,110.264591 C227.055227,174.239917 175.003546,226.096346 110.787336,226.096346 C58.9827241,226.096346 15.1351958,192.32415 0.107570876,145.687389 C18.1581609,160.788954 41.4117391,169.910705 66.8162733,169.910705 Z" id="Path"></path>
                    <path d="M181.894469,19.1312292 C197.402196,38.8363259 206.721325,63.643441 206.721325,90.675442 C206.721325,154.718818 154.813921,206.630406 90.7757056,206.630406 C63.745883,206.630406 38.9407671,197.310526 19.2372584,181.801549 C40.4553067,208.739337 73.2896568,226.096346 110.240076,226.096346 C174.278291,226.096346 226.185696,174.184758 226.185696,110.141382 C226.185696,73.187984 208.830086,40.3582348 181.894469,19.1312292 Z" id="Path" fill="#E04F08"></path>
                    <g id="Group" transform="translate(19.237258, 39.132060)">
                        <polygon id="Path" points="37.8293366 8.33478763 49.4107497 33.1645027 75.3143229 37.1405271 56.5718298 56.4632626 60.9921628 83.7454787 37.8293366 70.8661323 14.6594828 83.7454787 19.0798159 56.4632626 0.337322712 37.1405271 26.2408959 33.1645027"></polygon>
                        <polygon id="Path" fill="#E04F08" points="103.157502 0.39017062 109.159035 13.2620852 122.588695 15.3206997 112.869585 25.3387948 115.167596 39.474119 103.157502 32.8003435 91.1474077 39.474119 93.4454187 25.3387948 83.7263081 15.3206997 97.1559685 13.2620852"></polygon>
                    </g>
                </g>
                <g id="meditation" transform="translate(34.422680, 279.957746)">
                    <polygon id="Path-37" points="323.537579 406.80033 425.836375 436.669943 528.13517 406.80033 545.192742 465.805461 445.754858 546.274729 298.143217 482.123996"></polygon>
                    <path d="M311.599237,218.031147 C293.949187,241.560993 281.423837,273.468984 274.023185,313.755121 C265.563189,294.865986 253.922981,285.421419 239.10256,285.421419 C224.282139,285.421419 159.979752,292.252154 46.1953971,305.913623 C68.0521135,303.915326 73.8507214,294.403038 63.5912208,277.376762 C56.850025,266.18933 44.6981703,266.572891 28.5126178,256.234998 C22.8810047,252.638023 13.3767988,243.642857 0,229.2495 L46.1953971,332.66226 L274.023185,383.554597 L367.4125,298.405044 L355.85933,174.342999 C344.002651,179.938585 329.249287,194.501302 311.599237,218.031147 Z" id="Path-33"></path>
                    <path d="M809.383914,218.031147 C791.733865,241.560993 779.208514,273.468984 771.807862,313.755121 C763.347866,294.865986 751.707658,285.421419 736.887237,285.421419 C722.066817,285.421419 657.764429,292.252154 543.980074,305.913623 C565.836791,303.915326 571.635399,294.403038 561.375898,277.376762 C554.634702,266.18933 542.482848,266.572891 526.297295,256.234998 C520.665682,252.638023 511.161476,243.642857 497.784677,229.2495 L543.980074,332.66226 L771.807862,383.554597 L865.197177,298.405044 L853.644008,174.342999 C841.787328,179.938585 827.033964,194.501302 809.383914,218.031147 Z" id="Path-33-Copy" transform="translate(681.490927, 278.948798) scale(-1, 1) translate(-681.490927, -278.948798) "></path>
                    <path d="M395.278004,157.460353 L349.812878,173.26929 C327.816043,196.230474 319.63049,223.18891 325.256219,254.144599 C326.169646,259.17075 348.764483,293.620664 349.812878,298.579573 C353.418606,315.634666 353.418606,330.503366 349.812878,343.185674 L325.256219,406.80033 L425.535848,436.669943 L528.020187,406.80033 L503.778451,349.685141 C501.074341,322.382337 501.074341,302.852532 503.778451,291.095726 C507.473534,275.030413 527.538269,258.870482 528.020187,247.22466 C529.031114,222.794991 523.376029,198.335018 511.054929,173.844741 L450.376613,157.460353 L425.535848,179.164126 L395.278004,157.460353 Z" id="Path-32" fill="#E03308"></path>
                    <g id="Group" transform="translate(118.520161, 406.800330)">
                        <path d="M203.671394,24.8574036 C160.989231,8.68728419 124.870925,0.434373467 95.3164743,0.0986714595 C50.9847987,-0.404881552 4.56600199e-13,0.0986714595 4.56600199e-13,24.8574036 C4.56600199e-13,49.6161358 35.0641626,114.24642 95.3164743,135.539875 C135.484682,149.735512 304.922247,178.157053 603.629168,220.804498 C495.321534,178.432086 424.306799,138.715581 390.584963,101.654982 C378.37706,88.2383862 340.776849,91.2870871 277.784332,110.801084 L272.066509,110.402249 L243.231173,79.9489766 L203.671394,24.8574036 Z" id="Path-34" fill="#EF4506"></path>
                        <path d="M158.659697,150.647332 C127.834948,144.853112 106.720541,139.817293 95.3164743,135.539875 C60.6169573,122.524838 43.0016927,102.169604 36.2721897,95.0036145 C12.3715444,69.5527361 0,35.0206151 0,24.8574036 C0,1.23878151e-13 52.448422,1.23878151e-13 100.150544,1.23878151e-13 C113.247841,1.23878151e-13 189.078593,14.2238382 203.671394,24.8574036 C211.571802,30.6143186 222.071705,45.142403 235.171103,68.4416566 L158.659697,150.647332 Z" id="Path-36" fill="#E03308"></path>
                    </g>
                    <g id="Group-Copy" transform="translate(432.825000, 538.697578) scale(-1, 1) translate(-432.825000, -538.697578) translate(130.825000, 425.697578)">
                        <path d="M203.671394,29.2058892 C160.989231,13.0357698 124.870925,4.78285907 95.3164743,4.44715706 C50.9847987,3.94360405 4.56140773e-13,4.44715706 4.56140773e-13,29.2058892 C4.56140773e-13,53.9646214 35.0641626,118.594906 95.3164743,139.888361 C135.484682,154.083997 304.922247,182.505538 603.629168,225.152983 C495.321534,182.780572 424.306799,143.064066 390.584963,106.003467 C378.37706,92.5868718 340.776849,95.6355727 277.784332,115.14957 L272.066509,114.750735 L243.231173,84.2974622 L203.671394,29.2058892 Z" id="Path-34" fill="#F04307"></path>
                        <path d="M158.659697,154.995817 C127.834948,149.201598 106.720541,144.165779 95.3164743,139.888361 C60.6169573,126.873323 43.0016927,106.518089 36.2721897,99.3521001 C12.3715444,73.9012217 -5.24561889e-13,39.3691007 -5.24561889e-13,29.2058892 C-5.24561889e-13,4.3484856 52.2055882,-3.99047334e-13 99.9077099,-3.99047334e-13 C113.005007,-3.99047334e-13 189.078593,18.5723238 203.671394,29.2058892 C211.571802,34.9628042 222.071705,49.4908886 235.171103,72.7901422 L158.659697,154.995817 Z" id="Path-36" fill="#E03308"></path>
                    </g>
                    <polygon id="Path-35" points="395.278004 157.460353 399.449355 116.228666 443.024278 116.228666 450.376613 157.460353 425.535848 179.164126"></polygon>
                    <path d="M446.327127,112.972598 C457.213163,131.791548 462.368912,150.360094 461.794374,168.678235 C460.932568,196.155446 446.327127,213.126797 442.943812,220.843825 C439.560496,228.560853 434.973638,254.74977 442.943812,268.380872 C450.913986,282.011974 475.532731,306.400785 491.955274,301.571041 C502.903637,298.351212 512.748115,279.588006 521.48871,245.281422 C512.794771,255.868604 506.531663,262.380998 502.699387,264.818605 C493.628703,270.58822 485.510401,268.380872 482.216261,268.380872 C474.143628,268.380872 465.424438,258.895041 467.449543,245.281422 C469.474648,231.667804 504.603457,201.895159 502.699387,162.748616 C501.430007,136.650921 487.210816,113.395693 460.041814,92.9829326 C458.923159,97.7006722 457.11097,101.885634 454.605247,105.537818 C452.099525,109.190002 449.340151,111.668262 446.327127,112.972598 Z" id="Path-40" fill="#E04F08"></path>
                    <rect id="Rectangle" fill="#F25308" x="379.264516" y="11.6228666" width="82.9641129" height="116.228666" rx="41.4820564"></rect>
                    <path d="M383.880171,20.7439901 C385.45426,17.9906867 388.867002,15.9706675 394.118399,14.6839323 C394.118399,4.89464411 402.039992,0 417.883177,0 C426.406944,0 449.291135,2.46226729 459.056972,20.7439901 C462.024172,26.2986131 462.90943,38.755394 461.712744,58.1143329 L428.380762,58.1143329 C421.816387,55.7864705 416.627603,53.0237583 412.814408,49.8261963 C409.001213,46.6286342 405.896484,42.4368051 403.500223,37.2507087 L395.430065,54.0161707 L380.531107,58.1143329 C378.074792,41.4025386 379.191147,28.9457576 383.880171,20.7439901 Z" id="Path-38" fill="#E04F08"></path>
                </g>
                <line x1="518.800864" y1="1026.16457" x2="1112.39053" y2="997.340377" id="Line-Copy-8" stroke-linecap="round" stroke-linejoin="round" transform="translate(815.595699, 1011.752472) rotate(3.000000) translate(-815.595699, -1011.752472) "></line>
                <line x1="115.698454" y1="1040.78332" x2="303.110825" y2="1040.78332" id="Line-Copy-6" stroke-linecap="round" stroke-linejoin="round"></line>
            </g>
        </g>
        <g id="Group-2" transform="translate(906.000000, 494.000000)">
            <g id="Primary-/-Logo-/-Light" transform="translate(99.000000, 195.000000)">
                <mask id="mask-3" fill="white">
                    <use xlink:href="#path-2"></use>
                </mask>
                <use id="Combined-Shape" stroke="#FFFFFF" stroke-width="5" fill="#FFFFFF" xlink:href="#path-2"></use>
            </g>
            <text id="fitted" font-family="Futura-Medium, Futura" font-size="150" font-weight="400" letter-spacing="2.2299996" fill="#FFFFFF">
                <tspan x="0" y="156">fitted</tspan>
            </text>
        </g>
    </g>
</svg>