<?xml version="1.0" encoding="UTF-8"?>
<svg viewBox="0 0 518 704" version="1.1" xmlns="http://www.w3.org/2000/svg" xmlns:xlink="http://www.w3.org/1999/xlink">
    <title>Group 3</title>
    <g id="Page-1" stroke="none" stroke-width="1" fill="none" fill-rule="evenodd">
        <g id="Artboard" transform="translate(-147.000000, -85.000000)">
            <g id="Group-3" transform="translate(148.000000, 86.000000)">
                <path d="M15.8878826,669.386966 C11.9923115,668.979315 8.67254614,669.685467 5.9285866,671.505422 C1.81264729,674.235354 0.40109636,676.720018 0.0423145432,679.896676 C-0.316467274,683.073333 1.65077525,685.133492 4.25595774,686.314894 C6.86114023,687.496297 21.1722056,686.314894 32.790562,679.896676 C45.184171,673.050191 53.2684785,656.354466 55.9433966,650.071583 C57.507862,646.396945 67.7849117,622.710611 82.7312899,600.02517 C93.340182,583.923115 102.146649,572.690834 120.269402,558.771881 M207.838514,403.114648 C218.368799,404.699629 220.717919,403.950661 221.968965,403.114648 C223.22001,402.278635 224.16888,399.783781 224.815574,395.630084 C228.848075,407.594361 233.32476,416.620245 238.24563,422.707736 C243.166499,428.795227 249.89911,433.636099 258.443464,437.230352 M321.356066,466.118625 C303.126395,488.494092 292.045394,504.564233 288.113064,514.329047 C284.180733,524.093861 287.321464,538.049106 297.535257,556.194782 C291.908951,553.113444 286.385951,551.662483 280.966258,551.841901 M238.24563,559.887899 C271.838166,554.086208 291.601375,554.086208 297.535257,559.887899 C303.727577,565.942271 307.31058,586.132062 307.31058,594.099728 M367.978308,681.460154 C367.978308,681.460154 373.565984,686.508203 384.672082,690.545119 C395.77818,694.582035 402.949616,696.481463 405.729065,697.401931 C405.867804,697.447877 415.893317,699.597582 416,699.630084" id="Shape" stroke="#FFFFFF" stroke-width="2" stroke-linecap="round" stroke-linejoin="round"></path>
                <path d="M228,564.630084 C191.097121,580.25594 161.893057,624.077284 154,672.630084" id="Path-2" stroke="#FFFFFF" stroke-width="2" stroke-linecap="round"></path>
                <path d="M216.933318,368.986558 C209.638021,353.951089 205.515203,346.374358 198.80629,341.183378 C194.333681,337.722725 188.398251,337.722725 181,341.183378 M225.310288,247.533334 C251.726619,219.019221 273.233338,216.630084 296.389909,216.630084 M349.367104,242.019161 C362.491588,252.601669 370.21696,264.200175 372.036853,269.858055 C374.780081,278.3865 375.807538,287.389735 370.233882,298.994627 M376.497563,337.645564 C384.550241,349.599085 391,357.169273 391,368.986558 C391,378.375403 383.585543,391.885508 367.791211,421.504218 C361.39953,433.490377 354.031126,466.820224 349.367104,468.425858 C344.703082,470.031493 337.544754,470.031493 329.306565,468.425858 C323.81444,467.355435 316.624714,464.650872 307.737386,460.312169 C275.74824,446.087862 265.258029,441.214087 258.910497,437.488564" id="Shape" stroke="#FFFFFF" stroke-width="2"></path>
                <path d="M296,415.804535 C303.647458,411.633541 309.936382,408.526906 314.866773,406.484628 C322.262359,403.421211 334.654994,400.935248 337.483515,401.806165 C339.369196,402.386776 340.407886,403.495774 340.599583,405.133157 C342.764554,403.229592 344.993668,402.277809 347.286922,402.277809 C350.726805,402.277809 363.719924,411.607367 365.992156,413.386696 C367.125315,414.274045 368.461264,415.195298 370,416.150455 C364.067403,422.088257 359.621842,425.905084 356.663317,427.600935 C348.597858,432.224123 340.724578,432.80624 336.339257,432.592867 C326.141929,432.096702 324.243539,431.195503 315.609266,428.126908 C309.853084,426.081177 303.316662,421.97372 296,415.804535 Z" id="Path-4" stroke="#FFFFFF"></path>
                <path d="M175.324598,348.630084 C170.891801,355.500482 170.891801,364.448319 175.324598,375.473596 C181.973795,392.01151 190.714622,397.884258 195.43404,399.833676 C198.580318,401.133289 202.768971,402.398758 208,403.630084" id="Path-5" stroke="#FFFFFF" stroke-width="2" stroke-linecap="round" stroke-linejoin="round"></path>
                <path d="M188.364425,359.561035 C200.77842,362.088847 193.389968,364.667531 196.132013,374.058028 C197.5051,378.760349 201.692519,379.279446 203.734937,383.732054 C204.415953,385.216714 202.893461,387.444402 201.36529,388.021198 C195.648457,390.178969 186.352248,386.388219 188.748737,379.958931 C188.883239,379.598091 189.285182,378.308745 190.190474,377.357969 C190.570649,376.958693 191.761375,376.075623 193.644253,377.11932 C194.654202,377.679144 195.531437,379.103104 195.301869,380.132201 C194.737363,382.662742 193.005995,382.459065 193.078269,382.35883" id="Path-6" stroke="#FFFFFF" stroke-linecap="round" stroke-linejoin="round" transform="translate(196.132013, 374.095341) rotate(-209.000000) translate(-196.132013, -374.095341) "></path>
                <path d="M219,415.630084 C218.353351,425.236319 219.359757,435.102786 217.060054,444.448788 C209.531025,475.046775 188.697429,506.079734 164,523.630084" id="Path-7" stroke="#FFFFFF" stroke-width="2"></path>
                <path d="M309,604.630084 C312.783257,625.769656 321.649897,639.435069 333.17011,653.938244 C334.800048,655.990225 336.412368,657.882262 338,659.630084" id="Path-8" stroke="#FFFFFF" stroke-width="2" stroke-linecap="round" stroke-linejoin="round"></path>
                <path d="M120,558.375225 C120.121967,558.330031 126.950966,552.197064 138.721859,548.371737 C152.033551,544.045679 171.070154,548.371737 175.668934,554.8479 C191.680712,577.396241 157.42727,573.450977 167.067671,557.624476" id="Path-9" stroke="#FFFFFF" stroke-width="2" stroke-linecap="round"></path>
                <path d="M413,699.626777 C477.9481,715.632927 557.166399,631.398619 488.572966,600.640741 C477.9481,595.87646 475.51444,596.170134 473.071149,595.87646 C449.907611,593.092296 441.621521,614.42762 442.805695,633.449576 C444.272074,657.004724 469.360714,655.111702 479.812428,666.772092 C491.067815,679.329094 453.219642,694.327627 458.604348,677.684843 C459.999517,673.372722 463.455257,670.035853 465.880711,666.211357" id="Path-10" stroke="#FFFFFF" stroke-width="2" stroke-linecap="round" stroke-linejoin="round"></path>
                <g id="Group" transform="translate(333.000000, 185.630084) rotate(17.000000) translate(-333.000000, -185.630084) translate(303.000000, 136.630084)" stroke="#FFFFFF">
                    <path d="M31.8545188,71.3325838 C31.8858306,70.5413849 32.2188561,70.1001787 32.8535955,70.0089653 C33.8057046,69.8721452 36.1804155,71.3325838 36.1804155,72.2552458 C36.1804155,73.1779078 35.8575818,73.8737351 34.1155051,74.2408468 C32.3734285,74.6079584 28.2143236,72.3955146 26.1806596,72.2552458 C24.1469956,72.1149769 21.8400775,72.1032081 21.0723078,72.472132 C20.3045381,72.8410559 20.1507045,74.6604703 21.0723078,75.2820625 C21.9939111,75.9036546 22.2462504,76.2978406 23.2778414,76.5285104 C27.4232235,77.4554422 32.2611561,75.7419437 36.2205828,75.5337719 C36.287374,75.5302602 41.5298983,75.1046711 40.7266116,76.7672554 C40.6669033,76.8908354 40.5027527,76.9744427 40.3505227,77.0221872 C39.788201,77.1985505 39.2113769,77.3687467 38.6134759,77.4300066 C20.5459988,79.2811691 19.8435508,75.4634176 21.5500047,78.214853 C21.8577439,78.7110426 23.4622703,79.0320177 24.1434594,79.0480362 C29.5740191,79.1757382 36.1740442,78.754283 41.5773203,79.2148877 C43.3852471,79.3690052 43.0469089,80.8446339 42.8832945,81.0753173 C42.0209812,82.2911115 37.8050604,82.3139438 36.6388992,82.3302839 C31.7038483,82.3994329 24.006738,82.3046503 19.0710564,82.3302839 C17.8922649,82.336406 18.7767359,83.8338299 18.9786837,84.0610993 C19.3292066,84.4555734 20.2302157,84.5736003 20.7509201,84.584927 C22.2594293,84.617741 23.7755434,84.69906 25.2780628,84.584927 C30.7756051,84.1673277 40.5566134,80.9358408 44.1158423,85.7034763 C44.2455732,85.8772527 44.1642322,86.1883608 43.9548499,86.2992722 C39.319454,88.7546756 18.9817453,85.2965535 18.7015655,87.0400784 C18.6490737,87.3667289 19.4969109,87.635285 22.068331,87.6885076 C32.5198633,87.9048307 31.0334801,88.4035289 42.2970753,87.7865978 C43.8270077,87.7028001 44.774381,87.9101769 44.9978774,89.3852927 C45.0229095,89.5505089 44.8222583,89.7469452 44.6217885,89.7798642 C43.0759795,90.0336999 41.4944738,90.1246261 39.9217769,90.2188339 C36.8431577,90.4032496 22.5759507,88.7322341 19.4570838,91.0720835 C19.2302179,91.2422838 18.639071,91.5392992 18.8997684,91.6736081 C19.674172,92.0725736 20.6692885,92.096064 21.5816562,92.1666435 C25.758787,92.4897802 39.0008827,92.7251307 43.1841147,92.9908754 C44.0404229,93.0452734 44.6354302,94.5306848 44.2842297,94.9873642 C44.1710287,95.1345637 43.9500849,95.2272051 43.74143,95.2634211 C42.8023274,95.4264198 41.8468687,95.5720973 40.8866733,95.5770732 C33.2935755,95.6164219 25.6975632,95.203575 18.1080023,95.3962578 C17.7066503,95.4064472 18.5259996,96.0158165 18.8997684,96.1352737 C20.3978449,96.6140618 24.7667553,98 29.1601774,98 C33.5535996,98 40.5528438,96.9849272 42.2970753,97.1410372" id="Path-11" transform="translate(31.500000, 84.000000) scale(1, -1) translate(-31.500000, -84.000000) "></path>
                    <path d="M16.1841866,66.1407861 C14.7610778,66.1407861 14.0495233,65.3492407 14.0495233,63.7661498 C14.0495233,61.3915135 14.173318,56.5399143 13.7691529,53.8302455 C13.3649877,51.1205767 0,37.0914828 0,30.5650103 C0,26.9655515 -0.0895680081,18.7828339 4.23964004,12.0860338 C7.76007257,6.64031887 15.2776609,2.27045068 19.4641234,1.39324548 C25.4791275,0.132899068 34.1848478,-1.53161142 44.1003215,2.81097638 C47.2601942,4.19487642 52.8171548,8.96183549 54.9431795,12.0860338 C60.0947954,19.6563453 60.7728935,28.9994627 59.3500567,32.400683 C57.436735,36.9743832 51.9591348,45.7146219 50.0000212,48.7285857 C48.6939455,50.7378949 48.1498556,52.4384482 48.3677515,53.8302455 C48.5691425,60.6086609 48.5691425,64.540367 48.3677515,65.6253637 C48.1663604,66.7103604 47.2896568,67.5019058 45.7376406,68" id="Path"></path>
                    <path d="M29.6665948,54.574179 C30.1845629,55.2561773 32.0936245,56.2783721 31.2204991,56.620174 L31.0504389,57.1602985 C30.6343389,57.3231889 29.9263931,57.5477838 29.675288,57.2250769 C27.0710663,53.8782698 32.6351577,52.8277824 34.5423768,55.3136568 C36.1267962,57.3787931 31.6751535,59.7411721 30.0849537,59.9945833 C28.6789976,60.2186338 27.203989,60.2679607 25.7927008,60.0689417 C25.0037238,59.9576806 24.2726518,59.5559171 23.6927568,59.0931594 C22.1347134,57.8498367 23.5344676,55.4960159 24.6674785,54.5869522 C27.5481339,52.2756775 33.3634197,52.1396236 36.8178142,53.4223088 C43.5806396,55.9334801 32.822528,61.2735306 28.9048558,60.9890692 C25.9589164,60.7751651 25.5083195,55.5110226 25.9198384,54.2366012 C26.8715811,51.2891757 30.2185045,50.9246445 32.982496,50" id="Path-12"></path>
                    <path d="M33.0240392,50 C41.8199068,46.2459943 44.9319745,41.0302512 45.4349876,32.6536903 C45.6558162,28.9762825 48.7154034,24.2393238 45.6305176,21.6088088 C43.1573869,19.4999439 38.9200752,23.4934193 35.4777483,24.1630463 C33.1807386,24.6098776 30.8231014,24.9138241 28.4649599,24.9479803 C26.8263734,24.9717142 25.1658361,24.7484471 23.6035487,24.3350365 C21.6430227,23.8162444 19.8678497,22.8975156 18,22.1787551" id="Path-13"></path>
                    <path d="M16,27 C17.0892558,28.7558146 18.4351027,30.4208001 19.2677674,32.2674437 C20.907306,35.9035336 24.2563885,52.0794235 31.8188394,41.4152871 C32.3883465,40.6122007 32.6636537,39.6733909 32.8169256,38.7543903 C33.060618,37.2932397 32.9389752,35.8069216 33,34.3331872" id="Path-14"></path>
                    <path d="M33.4626279,34.9961629 C30.8007991,34.772469 23.0070093,35.4537543 25.4771421,34.3250813 C29.1960685,32.6257992 33.4725222,32.9784696 37.4882372,33.1567488 C40.013902,33.2688767 32.4996057,34.0696564 30.0052899,34.5261101" id="Path-15"></path>
                    <path d="M29,65 C23.607864,60.3610034 26.9103975,61.9620294 28.0136851,64.081946" id="Path-16"></path>
                    <path d="M29.0114053,65 C30.978694,58.3540704 32.2744075,61.2480716 29,64.6643105" id="Path-17"></path>
                    <path d="M32.0038427,64.6967643 C31.8515998,57.9046915 36.2959968,58.8953981 32.3870267,65" id="Path-18"></path>
                    <path d="M23,23.3710967 C24.3629495,24.3654343 25.4691294,25.6510202 27.0888485,26.3541093 C30.8952296,28.0063867 36.64312,26.3454659 37,23" id="Path-19"></path>
                    <path d="M39,26 C38.3333333,28 37.6666667,30 37,32" id="Path-20"></path>
                    <path d="M23,27 C24.3333333,29 25.6666667,31 27,33" id="Path-21"></path>
                    <path d="M23,23.951136 C20.5569827,15.8909921 20.3394731,22.3960867 22.4169237,24" id="Path-22"></path>
                    <path d="M37,22.6880246 C37.066571,12.7851137 39.7009833,21.3992596 38.8198864,23" id="Path-23"></path>
                </g>
                <g id="Group" transform="translate(134.000000, 125.000000) scale(-1, 1) translate(-134.000000, -125.000000) translate(11.000000, 0.000000)" stroke="#FFFFFF">
                    <path d="M0.75,47 C18.2150531,59.4446777 24.7537638,66.9805092 20.3661323,69.6074946 C13.784685,73.5479728 6.0326114,83.9443445 9.0504631,90.3949825 C15.2453555,103.636524 42.1310656,99.5955081 42.1310656,110.515949 C42.1310656,121.43639 6.15692453,122.387246 9.0504631,133.821441 C11.9440017,145.255637 48.5060839,146.393705 52.4688957,151.367234 C56.4317076,156.340763 33.7706883,158.706496 37.4477291,169.461444 C41.1247698,180.216393 70.485049,197.094308 73.3283497,200.861814 C75.2238834,203.373485 75.2238834,214.75288 73.3283497,235" id="Path-24" stroke-width="2"></path>
                    <path d="M196.008463,43 C180.720826,48.0319295 175.033333,54.0090497 178.945986,60.9313607 C184.814964,71.3148272 210.75417,66.6641634 214.16991,75.1314493 C217.58565,83.5987351 193.26291,94.247478 196.008463,103.22758 C198.754016,112.207681 221.451605,106.188206 224.316269,108.317962 C227.180933,110.447718 217.452841,112.649314 221.34035,122.060762 C225.22786,131.47221 242.290082,133.791498 244.789375,136.612278 C247.288668,139.433058 234.120318,142.559885 234.120318,148.858148 C234.120318,152.222036 237.688865,155.856048 244.825959,159.760184 C246.006962,160.406217 246.055898,165.486155 244.972768,175" id="Path-24-Copy" stroke-width="2" transform="translate(211.750000, 109.000000) scale(-1, 1) translate(-211.750000, -109.000000) "></path>
                    <path d="M181.911675,171.058611 C181.612125,170.922921 181.054365,171.022833 180.238394,171.358347 L48.7020555,237.430145 L34.75,250 L53.9479685,246.308748 L185.71148,180.809015 C186.205807,180.586255 186.525056,180.306027 186.669225,179.968331 C186.813395,179.630636 186.764575,179.277425 186.522766,178.908699 C186.686354,177.136726 186.504537,175.752818 185.977316,174.756976 C185.450095,173.761134 184.415226,172.846903 182.872708,172.014283 C182.53157,171.512858 182.211226,171.194301 181.911675,171.058611 Z" id="Path-25" stroke-width="0.75"></path>
                    <line x1="178.75" y1="175" x2="49.75" y2="239" id="Path-26" stroke-width="0.75"></line>
                    <line x1="113.75" y1="212" x2="51.4842533" y2="242.530682" id="Path-26-Copy" stroke-width="0.75"></line>
                    <line x1="151.75" y1="191" x2="50.75" y2="241" id="Path-26-Copy-3" stroke-width="0.75"></line>
                    <line x1="73.75" y1="234" x2="52.7859529" y2="244.488811" id="Path-26-Copy-2" stroke-width="0.75"></line>
                    <polygon id="Path-28" stroke-width="0.75" fill="#FFFFFF" points="40.7726916 245.290974 42.2922896 248.320438 36.4102073 249.097409"></polygon>
                    <path d="M50.1504295,239.765941 C49.3671985,243.30914 51.096118,242.229511 50.7579091,245.295423" id="Path-27" stroke-width="2" transform="translate(50.373482, 242.530682) rotate(-21.000000) translate(-50.373482, -242.530682) "></path>
                    <path d="M148.903533,9 C150.69034,9.91708267 169.418497,29.2567638 163.651282,35.8622485 C157.884068,42.4677332 112.475532,41.8050733 128.563062,54.4994073 C144.650592,67.1937413 150.051369,82.0625345 139.832284,84.0890642 C136.706514,84.7089305 133.520166,84.8319153 130.352638,84.967468 C122.086819,85.3211991 118.522268,85.0277182 110.263161,85.5564168 C105.624441,85.8533598 97.4916513,89.2285985 100.071655,96.8786225 C101.750127,101.855495 115.956883,102.878967 137.272709,100.830603 C140.002994,100.568233 154.887081,100.800634 158.021899,105.619974 C161.656177,111.207165 153.113599,121.558666 148.903533,122.220152 C144.380259,122.930848 128.823866,120.143519 116.242602,122.220152 C103.494137,124.324382 93.7490568,131.291147 93.75,131.75376 C93.7546701,134.044384 98.757692,135.979171 99.9199239,136.16251 C103.642187,136.749688 107.406351,136.953058 111.160785,137.052626 C118.599873,137.249912 126.046735,136.76421 133.483686,137.052626 C139.94093,137.303048 145.058225,139.119824 142.489705,148.481913 C141.406056,152.431743 135.1735,152.85379 132.673981,152.895683 C122.549199,153.065377 112.419755,152.623957 102.296571,152.895683 C100.764191,152.936815 99.2058579,153.208262 97.7673281,153.832647 C97.1556411,154.098146 96.6206234,154.746069 96.3833139,155.462295 C95.9734344,156.699356 95.9079687,158.081093 95.9196124,159.409256 C95.9258276,160.118203 96.1334455,160.834448 96.4357816,161.447152 C96.8048499,162.195094 97.2564468,162.957578 97.8878621,163.398045 C99.3913012,164.446826 100.967256,165.6518 102.707805,165.822439 C110.302658,166.567021 128.151077,165.14659 129.391201,165.539677 C129.877827,165.693925 129.773908,169.02671 128.030042,170.177738 C126.286177,171.328766 110.805237,170.409191 106.993144,174.939434 C103.79508,178.739972 106.739786,185.646478 106.613107,191" id="Path-29" stroke-width="2" transform="translate(129.250000, 100.000000) scale(-1, 1) translate(-129.250000, -100.000000) "></path>
                    <path d="M11.75,0 C14.6908575,16.9450269 28.294004,15.3867105 43.3201403,22.0051239 C45.2138001,22.8392055 47.2482341,23.8737162 48.3743887,25.6107415 C52.4379117,31.8784794 31.3040158,38.5021418 35.5582078,44.6030891 C40.8771794,52.2310395 61.4335381,49.2887186 66.040707,55.2656602 C68.1038323,57.9421802 64.0659389,64.671076 61.9213732,66.2639366 C54.0657102,72.0986731 53.6273464,72.28461 44.2193712,74.4122894 C41.9837849,74.9178829 34.1586023,73.9669187 34.9715667,78.6478901 C35.8546931,83.7328475 43.4947066,87.628703 47.4780126,88.6661927 C47.5325388,88.6803946 83.1690506,92.6255405 86.9399743,101.155858 C93.2063443,115.331197 70.905685,110.940101 65.0315701,111.418439 C60.8530651,111.758702 59.8581919,113.19943 60.9750397,117.091144 C62.4322144,122.168746 67.4162762,123.512205 72.0312974,123.946675 C81.0920614,124.799677 100.722393,124.638616 105.46413,135.234943 C106.423639,137.37915 102.113278,139.22504 101.110711,139.31912 C80.9451136,141.211437 75.6208718,132.451611 76.0721269,146.448928 C76.2757364,152.764615 85.5882647,152.587841 89.6762054,152.648762 C106.874385,152.905061 108.581666,147.262797 116.259183,159.958566 C117.218086,161.544237 116.692374,163.458394 115.371371,164.439874 C105.365573,171.87399 100.220753,172.467387 88.265983,176.7924 C87.3610331,177.119794 86.3098446,177.551025 85.8737434,178.409499 C85.3754303,179.39044 87.5903208,182.823748 88.1903334,182.872237 C93.3672293,183.290595 111.027893,175.145052 111.657404,185.202174 C111.920872,189.411346 113.457294,212.007169 113.42161,213" id="Path-30" stroke-width="2"></path>
                </g>
                <g id="Group-2" transform="translate(307.000000, 278.000000)" stroke="#FFFFFF">
                    <path d="M6.83476655,11.2218999 L2.92495658,9.39039634 C3.84416755,7.60692603 4.72317577,6.27454132 5.56198124,5.39324219 C6.40078672,4.51194307 7.79615647,3.45473047 9.74809049,2.2216044 L11.884524,5.91101236 L15.1232688,4.19614496 L13.0379261,0.727794135 C14.6435736,0.242598045 16.4540826,0 18.4694531,0 C20.4848237,0 22.5001942,0.242598045 24.5155647,0.727794135 L22.3695795,4.19614496 L26.5458505,5.91101236 L27.2257823,1.59113845 C29.7098679,3.19161971 31.4106219,4.45898763 32.3280444,5.39324219 C33.2454669,6.32749676 34.2666854,7.92191889 35.3916998,10.1765086 L31.0018604,11.2218999 L32.8554274,14.3407362 L36.2384447,13.3248979 C36.7461482,15.7578831 37,17.5612344 37,18.7349518 C37,19.9086693 36.7461482,21.6033532 36.2384447,23.8190037 L32.8554274,22.0347851 L31.0018604,25.3920163 L34.8845246,26.6387627 C34.0132031,28.2414922 33.1610431,29.5008479 32.3280444,30.4168299 C31.4950458,31.332812 30.0536907,32.5954514 28.0039793,34.2047482 L27.2257823,30.4168299 L22.9040946,32.1502173 L24.5155647,35.2887556 C22.1909633,35.7629185 20.3618916,36 19.0283497,36 C17.6948078,36 15.6979999,35.7629185 13.0379261,35.2887556 L15.1232688,32.1502173 L10.4889789,30.4168299 L9.74809049,34.2047482 C7.85183905,33.185167 6.50420747,32.2323753 5.70519575,31.3463732 C4.90618403,30.4603711 3.97943764,28.8911676 2.92495658,26.6387627 L6.90114154,26.6387627 L5.56198124,22.0347851 L0.700461608,23.8190037 C0.146236446,21.0294001 -0.0790996733,18.9711915 0.0244532498,17.6443778 C0.128006173,16.3175641 0.651722674,14.5526535 1.59560275,12.3496459 L5.22427605,15.1717691 L6.83476655,11.2218999 Z" id="Path-31"></path>
                    <path d="M22.8461166,26.4523468 C12.9806329,33.2492102 5.45281803,15.7533306 13.2048229,10.7794962 C21.8933992,5.20473967 32.8002921,13.6092629 25.7252663,23.7903636 C22.3664461,28.6237717 15.0043887,24.6657818 16.4748571,18.6150153 C17.0702658,16.1649938 22.9383994,12.7967931 23.8456527,16.210848 C25.3737256,21.9610882 19.5240235,25.1244533 17.9628029,21.7056344 C15.157663,15.5628346 24.0967028,16.7489298 21.0757783,21.2738267" id="Path-32"></path>
                </g>
                <g id="Group-2-Copy-2" transform="translate(285.000000, 301.000000)" stroke="#FFFFFF" stroke-width="0.7">
                    <path d="M3.50974498,5.61094997 L1.50200473,4.69519817 C1.97403198,3.80346302 2.42541458,3.13727066 2.85615253,2.6966211 C3.28689048,2.25597154 4.0034317,1.72736524 5.0057762,1.1108022 L6.10286369,2.95550618 L7.76600292,2.09807248 L6.69515124,0.363897068 C7.51967294,0.121299023 8.44939379,0 9.48431378,0 C10.5192338,0 11.5541538,0.121299023 12.5890738,0.363897068 L11.4870814,2.09807248 L13.631653,2.95550618 L13.9808071,0.795569225 C15.2564186,1.59580986 16.1297788,2.22949381 16.6008877,2.6966211 C17.0719965,3.16374838 17.596406,3.96095944 18.1741161,5.08825429 L15.9198743,5.61094997 L16.871706,7.1703681 L18.6089311,6.66244897 C18.8696437,7.87894153 19,8.78061718 19,9.3674759 C19,9.95433463 18.8696437,10.8016766 18.6089311,11.9095019 L16.871706,11.0173925 L15.9198743,12.6960081 L17.9136748,13.3193814 C17.4662394,14.1207461 17.0286437,14.750424 16.6008877,15.208415 C16.1731316,15.666406 15.4329763,16.2977257 14.3804218,17.1023741 L13.9808071,15.208415 L11.7615621,16.0751086 L12.5890738,17.6443778 C11.3953595,17.8814593 10.4561065,18 9.7713147,18 C9.08652291,18 8.06113509,17.8814593 6.69515124,17.6443778 L7.76600292,16.0751086 L5.38623241,15.208415 L5.0057762,17.1023741 C4.03202546,16.5925835 3.33999843,16.1161876 2.92969512,15.6731866 C2.5193918,15.2301855 2.043495,14.4455838 1.50200473,13.3193814 L3.54382944,13.3193814 L2.85615253,11.0173925 L0.359696501,11.9095019 C0.0750943911,10.5147001 -0.0406187512,9.48559575 0.0125570742,8.8221889 C0.0657328996,8.15878205 0.3346684,7.27632674 0.819363576,6.17482296 L2.68273635,7.58588457 L3.50974498,5.61094997 Z" id="Path-31"></path>
                    <path d="M11.4230583,13.1854457 C6.49031647,16.7627422 2.72640902,7.55438451 6.60241145,4.93657694 C10.9466996,2.00249456 16.4001461,6.42592787 12.8626332,11.7844019 C11.1832231,14.3283009 7.50219434,12.2451483 8.23742853,9.06053436 C8.53513289,7.77104935 11.4691997,5.99831217 11.9228264,7.79518317 C12.6868628,10.8216254 9.76201175,12.4865544 8.98140145,10.687176 C7.57883148,7.45412349 12.0483514,8.0783841 10.5378891,10.4599088" id="Path-32"></path>
                </g>
                <g id="Group-2-Copy" transform="translate(248.000000, 239.000000)" stroke="#FFFFFF">
                    <path d="M11.0834052,18.0797277 L4.74317284,15.1289719 C6.23378521,12.255603 7.65920395,10.1089832 9.01942904,8.68911242 C10.3796541,7.26924161 12.6424159,5.56595465 15.8077143,3.57925154 L19.2722011,9.52329769 L24.5242197,6.76045577 L21.1425829,1.17255722 C23.7463356,0.390852406 26.6822962,0 29.9504646,0 C33.218633,0 36.4868014,0.390852406 39.7549698,1.17255722 L36.2749938,6.76045577 L43.0473252,9.52329769 L44.1499173,2.56350084 C48.1781641,5.14205398 50.9361436,7.18392451 52.4238558,8.68911242 C53.911568,10.1943003 55.5675979,12.7630915 57.3919456,16.395486 L50.2732872,18.0797277 L53.2790715,23.1045194 L58.7650454,21.4678911 C59.5883485,25.3877005 60,28.2930998 60,30.184089 C60,32.0750783 59.5883485,34.8054024 58.7650454,38.3750616 L53.2790715,35.5004871 L50.2732872,40.9093596 L56.5694993,42.9180066 C55.1565456,45.5001819 53.7746644,47.5291439 52.4238558,49.0048927 C51.0730472,50.4806415 48.7357147,52.5148939 45.4118584,55.1076499 L44.1499173,49.0048927 L37.1417751,51.7975723 L39.7549698,56.8541062 C35.9853458,57.6180354 33.0192836,58 30.8567833,58 C28.6942829,58 25.4562161,57.6180354 21.1425829,56.8541062 L24.5242197,51.7975723 L17.009155,49.0048927 L15.8077143,55.1076499 C12.732712,53.4649912 10.5473635,51.929938 9.25166879,50.5024901 C7.9559741,49.0750423 6.45314212,46.5468811 4.74317284,42.9180066 L11.1910403,42.9180066 L9.01942904,35.5004871 L1.13588369,38.3750616 C0.237140183,33.8807002 -0.128269741,30.5646974 0.0396539187,28.4270531 C0.207577578,26.2894088 1.05684758,23.4459417 2.58746392,19.8966517 L8.471799,24.4434058 L11.0834052,18.0797277 Z" id="Path-31"></path>
                    <path d="M37.4101943,41.556337 C20.9677216,52.2882266 8.42136339,24.6631535 21.3413715,16.8097308 C35.822332,8.00748369 54.0004868,21.2777836 42.2087772,37.3532057 C36.6107435,44.9849027 24.3406478,38.7354449 26.7914284,29.1816031 C27.7837763,25.313148 37.563999,19.9949365 39.0760879,25.3855495 C41.6228759,34.4648761 31.8733725,39.4596631 29.2713382,34.0615279 C24.5961049,24.3623705 39.4945046,26.2351523 34.4596305,33.3797264" id="Path-32"></path>
                </g>
                <text id="?" transform="translate(376.197717, 311.987771) rotate(9.000000) translate(-376.197717, -311.987771) " font-family="Zapfino" font-size="56" font-weight="normal" letter-spacing="0.94453296" fill="#FFFFFF">
                    <tspan x="356.197717" y="322.487771">?</tspan>
                </text>
            </g>
        </g>
    </g>
</svg>