<?xml version="1.0" encoding="UTF-8"?>
<svg width="540px" height="611px" viewBox="0 0 540 611" version="1.1" xmlns="http://www.w3.org/2000/svg" xmlns:xlink="http://www.w3.org/1999/xlink">
    <title>Group 7</title>
    <defs>
        <linearGradient x1="50%" y1="0%" x2="50%" y2="100%" id="linearGradient-1">
            <stop stop-color="#F8C632" offset="0%"></stop>
            <stop stop-color="#F38F0D" offset="100%"></stop>
        </linearGradient>
    </defs>
    <g id="Page-1" stroke="none" stroke-width="1" fill="none" fill-rule="evenodd">
        <g id="Artboard" transform="translate(-303.000000, -128.000000)">
            <g id="Group-7" transform="translate(303.000000, 128.000000)">
                <g id="Group-5" transform="translate(40.712329, 255.952055)" stroke="#FFFFFF">
                    <path d="M11.6541006,330.546137 C8.79661615,330.247059 6.36149749,330.765136 4.34874467,332.100367 C1.32961544,334.103214 0.294212731,335.926117 0.0310386195,338.256709 C-0.232135492,340.587301 1.21087884,342.09876 3.12183574,342.96551 C5.03279264,343.832259 15.5302642,342.96551 24.0525763,338.256709 C33.1435527,333.233706 39.0735647,320.984692 41.0356741,316.375181 C42.1832428,313.67924 49.7216779,296.301485 60.685165,279.658046 C68.4670135,267.844586 74.9267448,259.603892 88.2201707,249.392089 M152.453981,136.192343 C160.178169,137.355183 161.9013,136.805694 162.818968,136.192343 C163.736637,135.578993 164.432653,133.748614 164.907017,130.701206 C167.864942,139.478937 171.148686,146.100882 174.758249,150.567041 C178.367811,155.0332 183.306325,158.584762 189.573791,161.221728 M235.721526,184.415946 C222.349674,200.831969 214.221523,212.622016 211.337075,219.786085 C208.452626,226.950155 210.756419,237.188583 218.248454,250.501371 C214.121439,248.240711 210.070201,247.176197 206.09474,247.307829 M174.758249,250.210869 C199.39909,245.954391 213.895826,245.954391 218.248454,250.210869 C222.790653,254.65273 225.418862,269.465206 225.418862,275.310777 M269.919934,339.403773 C269.919934,339.403773 274.018614,343.107333 282.165173,346.069063 C290.311733,349.030794 295.572134,350.424332 297.610919,351.099644 C297.712687,351.133353 305.066615,352.710508 305.144869,352.734354" id="Shape" stroke-width="2" stroke-linecap="round" stroke-linejoin="round"></path>
                    <path d="M167.057159,254.252185 C140.089979,265.707086 118.748791,297.831353 112.980853,333.424125" id="Path-2" stroke-width="2" stroke-linecap="round"></path>
                    <path d="M159.531529,111.991818 C154.197691,100.975027 151.18336,95.4234033 146.278247,91.619868 C143.008172,89.0841778 138.668579,89.0841778 133.259468,91.619868 M165.656214,23.0005925 C184.970085,2.10772663 200.694372,0.357157962 217.624923,0.357157962 M256.358337,18.9602463 C265.954089,26.7142635 271.60237,35.2127227 272.932955,39.3583656 C274.938621,45.6073294 275.68983,52.2041806 271.614742,60.7073189 M276.19433,89.02764 C282.081915,97.7862261 286.797551,103.333055 286.797551,111.991818 C286.797551,118.871214 281.376591,128.770341 269.828823,150.472567 C265.155649,159.255067 259.76836,183.676518 256.358337,184.852999 C252.948313,186.029479 247.714618,186.029479 241.6914,184.852999 C237.675922,184.068678 232.419271,182.08699 225.921446,178.907935 C202.533102,168.485498 194.774819,164.197999 190.133924,161.468233" id="Shape" stroke-width="2"></path>
                    <path d="M217.270872,145.124062 C222.859335,142.006275 227.455035,139.684087 231.057972,138.157499 C236.462377,135.867618 245.51843,134.009378 247.585402,134.660382 C248.963384,135.094385 249.722418,135.923352 249.862503,137.147285 C251.44458,135.724384 253.073528,135.012933 254.749349,135.012933 C257.263081,135.012933 266.757944,141.98671 268.418402,143.316745 C269.246471,143.980032 270.22273,144.668662 271.347178,145.382635 C267.011868,149.821099 263.763226,152.674149 261.601251,153.941786 C255.707329,157.397585 249.953845,157.832713 246.749224,157.673218 C239.297415,157.302339 237.910146,156.628699 231.600557,154.334947 C227.394164,152.805778 222.617602,149.735483 217.270872,145.124062 Z" id="Path-4"></path>
                    <path d="M138.095201,103.708245 C147.195419,105.563318 141.780181,107.451061 143.792322,114.332334 C144.799907,117.778152 147.869464,118.159481 149.36762,121.422485 C149.867159,122.510488 148.751669,124.142413 147.631634,124.564689 C143.441617,126.144408 136.626486,123.364676 138.381651,118.654345 C138.480159,118.38998 138.774489,117.44534 139.437859,116.748895 C139.71644,116.456425 140.589053,115.809656 141.969471,116.574834 C142.709908,116.985265 143.353265,118.028838 143.185228,118.782828 C142.772025,120.636883 141.502861,120.487241 141.555816,120.413813" id="Path-6" stroke-linecap="round" stroke-linejoin="round" transform="translate(143.792740, 114.358964) rotate(-209.000000) translate(-143.792740, -114.358964) "></path>
                    <path d="M160.297621,145.149389 C159.82078,152.191465 160.562908,159.424312 158.867096,166.275617 C153.31516,188.706192 137.952379,211.455632 119.740392,224.321329" id="Path-7" stroke-width="2"></path>
                    <path d="M226.927355,283.217529 C229.698821,298.803728 236.194174,308.879232 244.633431,319.572418 C245.827459,321.085344 247.008581,322.480342 248.171618,323.76901" id="Path-8" stroke-width="2" stroke-linecap="round" stroke-linejoin="round"></path>
                    <path d="M87.8739971,249.240075 C87.964293,249.207349 93.0200087,244.766261 101.734358,241.996214 C111.589408,238.863569 125.682783,241.996214 129.0874,246.685821 C140.941406,263.013832 115.582542,260.156934 122.719624,248.696433" id="Path-9" stroke-width="2" stroke-linecap="round"></path>
                    <path d="M303.213573,352.24008 C350.558776,363.903568 408.306525,302.523047 358.303984,280.110153 C350.558776,276.63848 348.784712,276.852476 347.003626,276.63848 C330.118107,274.609693 324.077797,290.156486 324.941024,304.017555 C326.009971,321.181906 344.298832,319.802484 351.917815,328.299268 C360.122653,337.449404 332.532477,348.378653 336.457765,336.251258" id="Path-10" stroke-width="2" stroke-linecap="round" stroke-linejoin="round"></path>
                    <path d="M128.907725,95.9083045 C125.697332,100.973847 125.697332,107.571084 128.907725,115.700016 C133.723314,127.893415 140.053737,132.22339 143.471711,133.660696 C145.750359,134.6189 148.783934,135.55193 152.572435,136.459786" id="Path-5" stroke-width="2" stroke-linecap="round" stroke-linejoin="round"></path>
                </g>
                <g id="Group" transform="translate(288.178970, 232.007209) rotate(17.000000) translate(-288.178970, -232.007209) translate(267.178970, 197.507209)" stroke="#FFFFFF">
                    <path d="M21.8790436,49.6213214 C21.9003168,49.0757553 22.1265741,48.7715245 22.5578155,48.7086289 C23.2046776,48.6142855 24.8180542,49.6213214 24.8180542,50.257537 C24.8180542,50.8937527 24.5987212,51.3735559 23.4151558,51.6266954 C22.2315904,51.8798348 19.405898,50.3542585 18.0242284,50.257537 C16.6425588,50.1608156 15.0752406,50.1527004 14.5536185,50.4070895 C14.0319964,50.6614787 13.927482,51.9160441 14.5536185,52.3446589 C15.179755,52.7732738 15.3511941,53.0450822 16.0520562,53.204139 C18.8684253,53.8432988 22.1553126,52.6617671 24.8453438,52.5182235 C24.8907217,52.5158021 28.4524883,52.2223398 27.906736,53.3687641 C27.8661702,53.4539779 27.7546465,53.5116288 27.6512215,53.5445507 C27.2691806,53.6661608 26.8772868,53.7835185 26.4710733,53.8257599 C14.1960446,55.1022171 13.718802,52.4697112 14.8781653,54.3669457 C15.0872431,54.70909 16.177357,54.9304163 16.6401563,54.9414618 C20.329674,55.0295179 24.8137255,54.7389062 28.4847068,55.0565131 C29.7130107,55.1627838 29.483144,56.1802941 29.3719846,56.3393604 C28.7861296,57.1777034 25.9218365,57.1934473 25.1295476,57.2047144 C21.7766782,57.2523957 16.5472679,57.187039 13.19397,57.2047144 C12.3931,57.2089359 12.9940089,58.2414749 13.131212,58.3981871 C13.369357,58.6701941 13.9815018,58.7515788 14.335268,58.759389 C15.3601478,58.7820157 16.3901945,58.8380887 17.4110049,58.759389 C21.1460305,58.4714362 27.7912393,56.2431852 30.2093765,59.5306775 C30.2975156,59.6505038 30.2422525,59.8650265 30.0999984,59.9415047 C26.9507143,61.6346122 13.1332921,59.2500865 12.9429382,60.4523228 C12.9072753,60.6775626 13.4832952,60.8627437 15.2303158,60.899443 C22.3310781,61.0486072 21.3212306,61.3924813 28.9737077,60.9670804 C30.0131425,60.9092983 30.6567871,61.0522936 30.8086304,62.0694502 C30.8256372,62.1833739 30.6893149,62.3188253 30.5531159,62.3415244 C29.5028945,62.5165552 28.4284209,62.5792527 27.359932,62.6442131 C25.2683206,62.7713758 15.5751922,61.6191378 13.4562367,63.2325659 C13.3021041,63.3499264 12.9004795,63.5547315 13.0775971,63.6473433 C13.6037262,63.9224474 14.2798075,63.938645 14.8996694,63.9873126 C17.7376086,64.2101294 26.7342772,64.3724139 29.5763615,64.5556564 C30.1581366,64.5931662 30.5623841,65.617422 30.3237787,65.9323224 C30.2468701,66.0338228 30.096761,66.0977031 29.9550011,66.1226756 C29.3169755,66.2350703 28.6678377,66.3355213 28.0154818,66.3389524 C22.8567375,66.366085 17.6960132,66.0814091 12.5396718,66.2142723 C12.2669936,66.2212984 12.8236589,66.641485 13.0775971,66.7238559 C14.095389,67.0540012 17.063623,68.0096659 20.0485103,68.0096659 C23.0333976,68.0096659 27.7886783,67.309729 28.9737077,67.4173736" id="Path-11" transform="translate(21.638184, 58.356056) scale(1, -1) translate(-21.638184, -58.356056) "></path>
                    <path d="M11.5731374,46.0419519 C10.5884679,46.0419519 10.0961331,45.4913309 10.0961331,44.390089 C10.0961331,42.7382261 10.1817884,39.3633191 9.90214077,37.4783984 C9.62249309,35.5934776 0.375065525,25.8344506 0.375065525,21.2944553 C0.375065525,18.7905719 0.31309213,13.0984465 3.30853356,8.43996655 C5.74437154,4.65177616 10.9458992,1.61197461 13.8425729,1.00176634 C18.004441,0.125034405 24.0280543,-1.03284527 30.8887134,1.98797928 C33.0750748,2.95065854 36.9200159,6.26668753 38.3910431,8.43996655 C41.9555203,13.7060853 42.4247061,20.2054169 41.4402249,22.5714001 C40.11637,25.7529929 36.3263395,31.8329454 34.9708006,33.9295422 C34.067108,35.3272734 33.6906443,36.5102255 33.8414096,37.4783984 C33.980755,42.1936522 33.980755,44.928656 33.8414096,45.6834098 C33.7020643,46.4381636 33.0954604,46.9887846 32.021598,47.3352727" id="Path" fill="url(#linearGradient-1)"></path>
                    <path d="M20.6473093,37.5490046 C20.9911133,38.0278225 22.2582627,38.7454857 21.6787212,38.9854583 L21.5658429,39.3646692 C21.2896544,39.4790314 20.8197518,39.6367152 20.6530795,39.4101489 C18.924514,37.0604202 22.6177081,36.3228933 23.8836345,38.0681777 C24.9353009,39.5180701 21.9805004,41.1766507 20.9249971,41.3545658 C19.9917866,41.5118674 19.0127422,41.5464988 18.0759924,41.4067714 C17.5523049,41.3286572 17.0670521,41.0465868 16.6821438,40.7216935 C15.6479846,39.8487806 16.5770786,38.1962085 17.3291204,37.5579724 C19.2411701,35.9352711 23.1010957,35.8397503 25.3939676,36.7402988 C29.8828275,38.5033437 22.7420761,42.25249 20.1417011,42.0527752 C18.1863188,41.9025973 17.8872329,38.2067444 18.1603806,37.3119978 C18.7921047,35.2426672 21.0136422,34.9867369 22.8482557,34.3375619" id="Path-12"></path>
                    <path d="M22.7044176,34.4611544 C28.8538517,31.8368999 31.0295843,28.1908113 31.3812546,22.3351389 C31.535642,19.7644305 33.6746839,16.4530383 31.517955,14.614165 C29.788921,13.1399536 26.8264994,15.9316104 24.4198735,16.3997161 C22.8139706,16.7120756 21.1656812,16.9245508 19.5170394,16.9484278 C18.3714583,16.9650191 17.2105308,16.8089432 16.1182925,16.5199467 C14.7476346,16.1572827 13.5065621,15.5150412 12.2006968,15.0125885" id="Path-13"></path>
                    <path d="M11.1849846,18.6791822 C11.9273152,19.9033452 12.8445133,21.0641816 13.4119764,22.351671 C14.5293262,24.8867716 16.8117345,36.164685 21.9655642,28.7295944 C22.3536847,28.1696784 22.5413073,27.5151354 22.6457625,26.8744035 C22.8118394,25.8556818 22.7289396,24.8194132 22.7705281,23.791918" id="Path-14"></path>
                    <path d="M23.3675877,23.8825136 C21.58843,23.7745409 16.3790863,24.103384 18.030115,23.5585956 C20.5158333,22.7383853 23.3742011,22.9086124 26.0582919,22.9946643 C27.746438,23.0487862 22.7239068,23.4353069 21.0567143,23.6556283" id="Path-15"></path>
                    <path d="M19.7544532,45.050362 C16.2838517,42.0648246 18.4094987,43.0952032 19.1196202,44.4595263" id="Path-16"></path>
                    <path d="M20.7610925,45.2890215 C21.7107637,40.4772308 22.3362447,42.5725477 20.7555868,45.0459754" id="Path-17"></path>
                    <path d="M22.4628566,44.5114384 C22.3893643,39.2659969 24.5348124,40.0311085 22.6478314,44.7456239" id="Path-18"></path>
                    <path d="M15.9964592,16.5421278 C16.9363705,17.2620487 17.6992096,18.1928396 18.8161932,18.7018907 C21.4411334,19.8981737 25.4049688,18.6956327 25.6510788,16.273446" id="Path-19"></path>
                    <path d="M26.7314733,18.6749732 C26.4096526,19.9621213 26.087832,21.249269 25.7660113,22.536417" id="Path-20"></path>
                    <path d="M15.6442453,18.4456335 C16.6097073,19.7327814 17.5751692,21.0199293 18.5406312,22.3070773" id="Path-21"></path>
                    <path d="M16.0226635,16.7115323 C14.8433434,10.8758212 14.7383448,15.5856444 15.7411945,16.7469108" id="Path-22"></path>
                    <path d="M25.9189205,16.1919179 C25.9510564,8.54401111 27.2227689,15.1966191 26.7974361,16.432853" id="Path-23"></path>
                </g>
                <g id="Group" transform="translate(136.856164, 185.000000) scale(-1, 1) translate(-136.856164, -185.000000) translate(38.356164, 88.000000)" stroke="#FFFFFF">
                    <path d="M2.13162821e-14,27.1992188 C18.7837404,43.1817616 26.4860815,52.1869367 23.1070233,54.214744 C18.0384361,57.2564549 12.0683114,65.2815615 14.3924574,70.2609003 C19.1633461,80.4822338 39.8689085,77.3629163 39.8689085,85.7925593 C39.8689085,94.2222023 12.164049,94.9561818 14.3924574,103.782399 C16.6208658,112.608616 44.778518,113.487107 47.8304086,117.326245 C50.8822993,121.165382 33.4303092,122.991525 36.2621182,131.293422 C39.0939273,139.595319 61.7052359,152.623621 63.8949545,155.531812 C65.3547669,157.470606 65.3547669,166.254523 63.8949545,181.883562" id="Path-24" stroke-width="2"></path>
                    <path d="M158.201356,32.8938356 C146.474801,36.8031633 142.112146,41.4468139 145.11339,46.8247872 C149.615256,54.8917471 169.512218,51.2786263 172.1323,57.8568973 C174.752381,64.4351682 156.095349,72.7082225 158.201356,79.6849023 C160.307364,86.661582 177.717805,81.9850254 179.915178,83.6396421 C182.112551,85.2942587 174.650508,87.0046881 177.632467,94.3164829 C180.614425,101.628278 193.702195,103.430142 195.619306,105.621619 C197.536417,107.813095 187.435486,110.24234 187.435486,115.135488 C187.435486,117.748907 190.17278,120.572187 195.647368,123.605327 C196.55327,124.107232 196.590807,128.053858 195.75998,135.445205" id="Path-24-Copy" stroke-width="2" transform="translate(170.276080, 84.169521) scale(-1, 1) translate(-170.276080, -84.169521) "></path>
                    <path d="M147.237164,132.588028 C147.006831,132.48334 146.577952,132.560424 145.950528,132.819281 L44.8082433,183.795215 L34.0800843,193.493151 L48.8419852,190.645264 L150.15895,140.110692 C150.539053,139.938828 150.784533,139.722625 150.895389,139.462085 C151.006245,139.201545 150.968706,138.929035 150.782772,138.644554 C150.90856,137.277435 150.768756,136.209718 150.363359,135.441403 C149.957963,134.673087 149.16222,133.967737 147.976131,133.325351 C147.71382,132.93849 147.467498,132.692716 147.237164,132.588028 Z" id="Path-25" stroke-width="0.75" fill="#820246"></path>
                    <line x1="145.161925" y1="134.47774" x2="45.6712329" y2="184.785959" id="Path-26" stroke-width="0.75"></line>
                    <line x1="94.9336143" y1="163.501712" x2="46.6371619" y2="186.72089" id="Path-26-Copy" stroke-width="0.75"></line>
                    <line x1="123.911486" y1="148.02226" x2="46.6371619" y2="186.72089" id="Path-26-Copy-3" stroke-width="0.75"></line>
                    <line x1="64.0238848" y1="180.916096" x2="48.56902" y2="188.655822" id="Path-26-Copy-2" stroke-width="0.75"></line>
                    <polygon id="Path-28" stroke-width="0.75" fill="#FFFFFF" points="38.6279509 189.623288 39.8756586 191.933247 35.0460133 192.525685"></polygon>
                    <path d="M45.7089644,185.574555 C45.1003757,188.315977 46.4330674,187.478284 46.1678291,189.849882" id="Path-27" stroke-width="2" transform="translate(45.875625, 187.712219) rotate(-21.000000) translate(-45.875625, -187.712219) "></path>
                    <path d="M122.374907,6.77226027 C123.760512,7.48400713 137.851584,11.7721739 133.811258,27.6200218 C129.770931,43.4678697 101.131967,33.8378906 107.243793,45.2109375 C113.355619,56.5839844 123.265013,63.476013 115.340478,65.0488005 C112.916556,65.529878 110.445658,65.6253264 107.989352,65.7305287 C101.579506,66.005059 98.8153248,65.7772888 92.4106832,66.1876112 C88.8135222,66.4180684 82.5068351,69.0375874 84.5075354,74.9747626 C85.8091302,78.837308 96.8259603,79.6316231 113.355619,78.0418901 C115.472858,77.8382656 127.014934,78.0186314 129.445873,81.7589162 C132.264125,86.0951285 125.639662,94.1289174 122.374907,94.6422956 C118.86727,95.1938665 106.803845,93.0306233 97.0475251,94.6422956 C87.1615478,96.2753864 79.6045871,101.682285 79.6053185,102.041319 C79.6089401,103.819069 83.4886043,105.320655 84.3898734,105.462945 C87.2763548,105.918653 90.1953292,106.076488 93.1067585,106.153763 C98.8755049,106.306876 104.650279,105.929923 110.417368,106.153763 C115.42473,106.348114 119.393008,107.758113 117.401213,115.02402 C116.560882,118.089478 111.727759,118.417029 109.789471,118.449542 C101.938065,118.581241 94.0830447,118.238655 86.2328783,118.449542 C85.0445721,118.481464 83.8361408,118.692134 82.7206125,119.176718 C82.2462712,119.382772 81.8313841,119.885624 81.6473591,120.441486 C81.3295123,121.401568 81.278746,122.473933 81.2877752,123.504718 C81.2925949,124.054931 81.4535952,124.610809 81.688046,125.086328 C81.9742452,125.666804 82.3244424,126.258567 82.8140823,126.600413 C83.9799455,127.414371 85.2020416,128.34955 86.5517753,128.481983 C92.4413119,129.059852 106.282121,127.957457 107.243793,128.262532 C107.621154,128.382243 107.540568,130.968814 106.188263,131.862125 C104.835958,132.755437 92.831044,132.041756 89.8749021,135.557672 C87.3949178,138.507266 89.6784322,143.867398 89.5801973,148.02226" id="Path-29" stroke-width="2" transform="translate(107.071012, 77.397260) scale(-1, 1) translate(-107.071012, -77.397260) "></path>
                    <path d="M15.7274324,0 C17.9999601,13.0842002 28.5116996,11.8809372 40.1230448,16.9913833 C41.5863576,17.6354242 43.1584527,18.4342276 44.0286812,19.7754817 C47.168741,24.6151516 30.8376659,29.7296508 34.125064,34.4405324 C38.2352633,40.3304983 54.1200505,38.0585683 57.6802091,42.6736982 C59.2744752,44.7403885 56.1542204,49.9361442 54.4970218,51.1660807 C48.4266113,55.6714061 48.0878687,55.8149783 40.8179194,57.4578783 C39.0903852,57.8482752 33.0435283,57.1139827 33.6717411,60.7284218 C34.354171,64.654801 40.2579398,67.6630082 43.3360125,68.4641119 C43.3781473,68.475078 70.9160208,71.5213451 73.8299766,78.1080787 C78.6722716,89.0536489 61.439588,85.6630388 56.9004054,86.0323904 C53.6714939,86.2951258 52.9027124,87.4075924 53.765749,90.4126023 C54.8917709,94.3333015 58.7431709,95.3706615 62.3093974,95.7061396 C69.3110415,96.3647905 84.4802474,96.2404262 88.1443929,104.422441 C88.8858466,106.078103 85.5550441,107.503417 84.7803175,107.576061 C69.1974885,109.037225 65.0832167,102.273275 65.431921,113.081384 C65.5892589,117.958078 72.7854522,117.821581 75.9443807,117.868622 C89.234158,118.066524 90.5534472,113.709818 96.4861967,123.512929 C97.2271828,124.737314 96.8209421,126.215342 95.8001459,126.973197 C88.0682337,132.713493 84.0926087,133.171687 74.8546409,136.511271 C74.155347,136.76407 73.3430482,137.097047 73.0060539,137.759924 C72.6209858,138.517362 74.3325275,141.168411 74.7961832,141.205852 C78.7965945,141.52889 92.443753,135.239262 92.9302036,143.004927 C93.1337961,146.255063 94.3210558,163.702558 94.2934814,164.469178" id="Path-30" stroke-width="2"></path>
                </g>
                <g id="Group-2" transform="translate(271.020548, 302.041096)" stroke="#FFFFFF">
                    <path d="M6.64245176,10.9422065 L2.84265495,9.15635107 C3.73600141,7.41733179 4.59027634,6.1181553 5.40547973,5.25882158 C6.22068313,4.39948787 7.57679035,3.36862513 9.47380139,2.16623337 L11.5501205,5.7636869 L14.6977344,4.09156068 L12.6710685,0.70965467 C14.2315367,0.236551557 15.9911022,0 17.9497647,0 C19.9084273,0 21.8670899,0.236551557 23.8257524,0.70965467 L21.7401504,4.09156068 L25.7989106,5.7636869 L26.4597107,1.55148108 C28.8738997,3.11207211 30.5267984,4.34785228 31.4184067,5.25882158 C32.3100151,6.16979088 33.3024988,7.7244738 34.3958578,9.92287033 L30.1295385,10.9422065 L31.9309504,13.9833092 L35.2187772,12.9927896 C35.7121952,15.3651352 35.9589041,17.12354 35.9589041,18.2680038 C35.9589041,19.4124676 35.7121952,21.0649135 35.2187772,23.2253413 L31.9309504,21.4855924 L30.1295385,24.7591483 L33.9029533,25.9748209 C33.0561489,27.5376042 32.2279667,28.7655718 31.4184067,29.658724 C30.6088468,30.5518762 29.2080482,31.7830457 27.216011,33.3522326 L26.4597107,29.658724 L22.2596255,31.3489086 L23.8257524,34.4092223 C21.56656,34.8715673 19.7889542,35.1027397 18.4929352,35.1027397 C17.1969161,35.1027397 15.2562939,34.8715673 12.6710685,34.4092223 L14.6977344,31.3489086 L10.1938429,29.658724 L9.47380139,33.3522326 C7.63090615,32.3580633 6.32119386,31.4290189 5.54466451,30.5650994 C4.76813516,29.7011799 3.86746531,28.1710871 2.84265495,25.9748209 L6.70695911,25.9748209 L5.40547973,21.4855924 L0.68075221,23.2253413 C0.142121685,20.5052655 -0.0768739883,18.4983555 0.023765191,17.2046112 C0.12440437,15.9108668 0.633384679,14.1899446 1.55070612,12.0418446 L5.0772768,14.7936295 L6.64245176,10.9422065 Z" id="Path-31" fill="#E3360B"></path>
                    <path d="M22.2032788,25.7930512 C12.6153874,32.4205103 5.29938813,15.3606962 12.8332692,10.5108291 C21.2773687,5.07501728 31.8773664,13.2700671 25.0014158,23.1974151 C21.7371052,27.9103558 14.5821993,24.0510144 16.011292,18.1510566 C16.5899473,15.7620991 22.292965,12.4778472 23.1746903,15.8068105 C24.6597666,21.4137323 18.9746619,24.498254 17.4573705,21.1646454 C14.7311608,15.1749482 23.4186763,16.3314812 20.4827538,20.7436" id="Path-32"></path>
                </g>
                <g id="Group-2-Copy-2" transform="translate(249.616438, 324.301370)" stroke="#FFFFFF" stroke-width="0.7">
                    <path d="M3.32122588,5.33766169 L1.42132748,4.46651272 C1.86800071,3.61821063 2.29513817,2.984466 2.70273987,2.56527882 C3.11034157,2.14609164 3.78839517,1.64323177 4.73690069,1.0566992 L5.77506027,2.81155458 L7.34886722,1.99588326 L6.33553424,0.34617301 C7.11576837,0.115391003 7.99555108,0 8.97488236,0 C9.95421365,0 10.9335449,0.115391003 11.9128762,0.34617301 L10.8700752,1.99588326 L12.8994553,2.81155458 L13.2298554,0.756820039 C14.4369499,1.51808396 15.2633992,2.12090355 15.7092034,2.56527882 C16.1550075,3.00965409 16.6512494,3.768036 17.1979289,4.84042455 L15.0647693,5.33766169 L15.9654752,6.82112643 L17.6093886,6.33794612 C17.8560976,7.49518791 17.9794521,8.35294633 17.9794521,8.91122137 C17.9794521,9.46949641 17.8560976,10.2755676 17.6093886,11.3294348 L15.9654752,10.4807768 L15.0647693,12.0776333 L16.9514767,12.6706444 C16.5280744,13.4329776 16.1139833,14.0319863 15.7092034,14.4676703 C15.3044234,14.9033542 14.6040241,15.5039247 13.6080055,16.2693818 L13.2298554,14.4676703 L11.1298127,15.2921505 L11.9128762,16.7849865 C10.78328,17.0105206 9.89447712,17.1232877 9.24646759,17.1232877 C8.59845806,17.1232877 7.62814694,17.0105206 6.33553424,16.7849865 L7.34886722,15.2921505 L5.09692144,14.4676703 L4.73690069,16.2693818 C3.81545308,15.7844211 3.16059693,15.3312287 2.77233226,14.9098046 C2.38406758,14.4883805 1.93373266,13.7419937 1.42132748,12.6706444 L3.35347955,12.6706444 L2.70273987,10.4807768 L0.340376105,11.3294348 C0.0710608424,10.0025686 -0.0384369942,9.02358804 0.0118825955,8.39249324 C0.0622021851,7.76139845 0.31669234,6.92192422 0.775353059,5.87407054 L2.5386384,7.21640465 L3.32122588,5.33766169 Z" id="Path-31"></path>
                    <path d="M10.809491,12.5432322 C6.14170178,15.946292 2.57996527,7.18643885 6.24777579,4.69613483 C10.358719,1.90496058 15.5192442,6.11294508 12.1717419,11.210428 C10.582538,13.6304232 7.0992286,11.6487332 7.79497112,8.61922979 C8.07668487,7.39255075 10.853154,5.70615693 11.282415,7.4155091 C12.0054127,10.2945447 9.23766433,11.8783812 8.49898298,10.1666438 C7.17174933,7.09106116 11.4011977,7.68491638 9.97186698,9.95044596" id="Path-32"></path>
                </g>
                <g id="Group-2-Copy" transform="translate(213.657534, 265.226027)" stroke="#FFFFFF">
                    <path d="M10.7544457,17.3474005 L4.60239373,14.5161663 C6.04876419,11.7591846 7.43187598,9.6995145 8.75172909,8.33715617 C10.0715822,6.97479784 12.2671844,5.34050325 15.3385356,3.43427241 L18.7001952,9.1375524 L23.7963319,6.48662059 L20.5150633,1.12506228 C23.0415357,0.37502076 25.8903559,0 29.0615238,0 C32.2326918,0 35.4038598,0.37502076 38.5750277,1.12506228 L35.1983387,6.48662059 L41.7696649,9.1375524 L42.8395316,2.45966513 C46.7482186,4.93377286 49.4243402,6.89293654 50.8678966,8.33715617 C52.311453,9.78137579 53.9183313,12.246117 55.6885317,15.7313798 L48.7811576,17.3474005 L51.6977292,22.1686609 L57.0208774,20.5983249 C57.8197445,24.3593607 58.2191781,27.1470756 58.2191781,28.9614695 C58.2191781,30.7758633 57.8197445,33.3955946 57.0208774,36.8206631 L51.6977292,34.0625245 L48.7811576,39.2523083 L54.8904959,41.1795942 C53.5194792,43.6571773 52.1786127,45.6039554 50.8678966,47.0199283 C49.5571805,48.4359013 47.2892209,50.3877554 44.0640178,52.8754907 L42.8395316,47.0199283 L36.0393936,49.6994892 L38.5750277,54.5512061 C34.9172876,55.284192 32.0392592,55.6506849 29.9409427,55.6506849 C27.8426261,55.6506849 24.7006663,55.284192 20.5150633,54.5512061 L23.7963319,49.6994892 L16.5043171,47.0199283 L15.3385356,52.8754907 C12.3548004,51.2993686 10.2343139,49.8264934 8.97707588,48.4568649 C7.71983788,47.0872365 6.2616105,44.6614796 4.60239373,41.1795942 L10.8588862,41.1795942 L8.75172909,34.0625245 L1.10217025,36.8206631 C0.230101775,32.5083478 -0.124462648,29.3266611 0.0384769759,27.275603 C0.2014166,25.224545 1.02547996,22.4962537 2.51066705,19.0907293 L8.22035291,23.4533151 L10.7544457,17.3474005 Z" id="Path-31"></path>
                    <path d="M36.2998461,39.8730796 C20.3453919,50.1702694 8.17141424,23.6641619 20.7079518,16.1288454 C34.7591121,7.6831371 52.3977327,20.4159178 40.9560053,35.840198 C35.5241233,43.1627698 23.6182085,37.166449 25.996249,27.9995896 C26.9591437,24.287828 36.4490858,19.185033 37.9162953,24.3572969 C40.3874938,33.0688614 30.9273592,37.8613324 28.4025541,32.681851 C23.8660836,23.3755621 38.3222933,25.1724861 33.4368561,32.0276661" id="Path-32"></path>
                </g>
                <text id="?" transform="translate(320.724006, 327.421321) rotate(9.000000) translate(-320.724006, -327.421321) " font-family="Zapfino" font-size="40" font-weight="normal" letter-spacing="0.6746664" fill="#FFFFFF">
                    <tspan x="307.207538" y="334.921321">?</tspan>
                </text>
                <g id="Group-6" transform="translate(330.952055, 135.089041)">
                    <g id="Group-4" transform="translate(83.840395, 86.059629)">
                        <polygon id="Path-37" stroke="#FFFFFF" fill="#FFFFFF" points="93.7356363 0 123.351386 60.5955139 28.2215046 106.365834 0 38.2280362"></polygon>
                        <line x1="86.658252" y1="14.8599327" x2="108.517991" y2="56.3113239" id="Path-38" stroke="#000614"></line>
                        <line x1="78.8512023" y1="17.9883396" x2="100.710942" y2="59.4397308" id="Path-38-Copy" stroke="#000614"></line>
                        <line x1="70.2634476" y1="21.8988482" x2="92.1231869" y2="63.3502394" id="Path-38-Copy-2" stroke="#000614"></line>
                        <line x1="60.8949879" y1="25.8093568" x2="82.7547272" y2="67.260748" id="Path-38-Copy-3" stroke="#000614"></line>
                        <line x1="52.3072332" y1="29.7198654" x2="74.1669725" y2="71.1712566" id="Path-38-Copy-4" stroke="#000614"></line>
                    </g>
                    <g id="Group-4-Copy" transform="translate(131.020405, 69.932881) rotate(-17.000000) translate(-131.020405, -69.932881) translate(69.376569, 16.422607)" stroke="#FFFFFF">
                        <polygon id="Path-37" points="93.5208988 0 123.068802 60.7412643 28.1568524 106.621676 0 38.3199861"></polygon>
                        <line x1="86.4597281" y1="14.8956753" x2="108.269389" y2="56.4467695" id="Path-38"></line>
                        <line x1="78.6705634" y1="18.0316069" x2="100.480225" y2="59.5827012" id="Path-38-Copy"></line>
                        <line x1="70.1024822" y1="21.9515215" x2="91.9121434" y2="63.5026157" id="Path-38-Copy-2"></line>
                        <line x1="60.7554846" y1="25.871436" x2="82.5651457" y2="67.4225303" id="Path-38-Copy-3"></line>
                        <line x1="52.1874034" y1="29.7913506" x2="73.9970646" y2="71.3424448" id="Path-38-Copy-4"></line>
                    </g>
                    <g id="Group-3-Copy" transform="translate(105.684898, 170.306093) rotate(-25.000000) translate(-105.684898, -170.306093) translate(50.890378, 111.658833)">
                        <g id="Group">
                            <path d="M1.95589605,68.7542414 C0.75432798,70.8135354 -0.389202058,76.830735 0.859311044,78.8352572 C2.94376357,82.1819032 28.6777336,100.458463 40.4923353,107.0803 C43.0029877,108.487468 48.496889,110.901357 54.5241528,113.582727 C55.8637029,114.178658 57.5976174,115.255566 59.7258965,116.813454 C60.9479739,115.106285 61.7738115,113.932963 62.2034091,113.293487 C70.643065,100.735972 83.1228484,81.4201197 99.6427593,55.3459297 C105.717471,46.3460655 108.756013,41.7253613 108.758387,41.4838171 C108.760365,41.2418749 108.702087,41.03559 108.583554,40.8649625 C108.243889,40.833128 108.012347,40.833128 107.888927,40.8649625 C107.706763,40.9115205 107.625056,40.3432537 107.444672,40.306843 C106.920729,40.2005953 106.434168,39.9832185 106.405093,39.4466083 C106.270399,36.9772462 106.17546,34.3371716 107.444672,32.2193818 C107.706545,31.7828512 107.906509,31.0803037 108.044566,30.1117391 C96.3164705,23.4097818 89.1754971,19.3922684 86.6216458,18.0591989 C84.5199057,16.9619085 73.3808232,10.9421756 53.2043985,1.24345994e-14 C22.6032833,39.727519 5.5204491,62.6455995 1.95589605,68.7542414 Z" id="Fill-107" stroke="#FFFFFF" fill="#000614"></path>
                            <path d="M58.1183267,108.181322 C50.4730678,105.405596 45.0326089,102.936342 41.7969501,100.773558 C37.8222864,98.1168075 18.4159704,80.1381332 10.048955,73.3461682 C8.19895225,71.8444196 6.29010963,70.6501165 5.16090743,70.6501165 C2.84134135,70.6501165 2.30989993,71.2546747 1.56010373,72.5791484 C-0.0787698765,75.4741284 1.64175618,78.9992288 3.60859913,80.7688333 C7.26089297,84.0549843 23.6355025,95.7384432 37.3578075,104.176284 C44.7213726,108.704138 51.7799254,111.346492 55.7501163,113.483917 C56.1306421,113.688552 57.0648641,114.190571 58.5527821,114.989971 C63.3775707,107.865924 66.3207486,103.545236 67.3823157,102.027909 C70.9497455,96.9306852 74.2103763,91.6290239 77.5263023,86.3661044 C81.757274,79.6508654 91.7308167,64.2272728 107.44693,40.0953266 C107.347439,37.5522775 107.400356,35.6541298 107.605681,34.4008834 C107.771567,33.3876373 108.040907,32.3529342 107.780485,31.3319397 C107.671084,31.4946551 107.558115,31.6549864 107.441579,31.8123376 C106.614728,32.9332659 90.1736441,58.3895941 58.1183267,108.181322 Z" id="Fill-108" fill="#FFFFFE"></path>
                        </g>
                        <text id="Epic-myths" transform="translate(62.762613, 57.406499) rotate(31.000000) translate(-62.762613, -57.406499) " font-family="HomemadeApple-Regular, Homemade Apple" font-size="12" font-weight="normal" letter-spacing="0.20239992" fill="#FFFFFF">
                            <tspan x="39.9537044" y="47.4064989">Epic </tspan>
                            <tspan x="39.9537044" y="73.4064989">myths</tspan>
                        </text>
                        <path d="M8.04294533,82.5768865 C8.11690602,82.5751392 6.76268795,81.813478 5.28598882,80.2086695 C3.97880512,78.7880825 2.54366764,76.5734466 2.38679729,75.5945075 C2.17736801,74.2875779 2.50513018,71.6188481 5.72680924,72.2108918 C9.66600494,72.9347927 35.5652257,98.6798946 45.4466413,103.882658 C53.3137906,108.024871 56.8609023,108.973624 56.8609023,108.973624" id="Path-33" stroke="#302F2F"></path>
                        <line x1="105.93264" y1="36.0632139" x2="89.575394" y2="61.9346499" id="Path-34" stroke="#282828" stroke-linecap="round" stroke-linejoin="round"></line>
                        <line x1="88.7964775" y1="63.5026157" x2="70.8813987" y2="90.9420176" id="Path-34-Copy" stroke="#282828" stroke-linecap="round" stroke-linejoin="round"></line>
                        <path d="M7.01024822,76.0463423 L22.5953987,88.8583891 C28.735654,94.2564837 32.9791845,97.829491 35.3259903,99.5774108 C37.6727961,101.325331 40.9565178,103.412091 45.1771552,105.837693" id="Path-35" stroke="#979797"></path>
                        <path d="M6.23133175,74.7957018 C5.63162572,74.5742291 4.56235375,74.2088015 4.10757525,74.7957018 C3.62766384,75.4150366 4.05024596,76.9086009 4.47546179,77.6143081" id="Path-36" stroke="#979797" stroke-linecap="round" stroke-linejoin="round"></path>
                    </g>
                    <g id="Group-3" transform="translate(0.000000, 13.537470)">
                        <g id="Group">
                            <path d="M2.35071414,82.5247272 C0.906596976,84.9964682 -0.467766566,92.2188263 1.03277197,94.6248255 C3.53799305,98.6417565 34.4666342,120.578848 48.6661369,128.526944 C51.6835908,130.215948 58.2864935,133.113304 65.5304237,136.331714 C67.1403759,137.047001 69.2242993,138.339599 71.7821938,140.209508 C73.2509603,138.160418 74.2435018,136.752097 74.7598182,135.984543 C84.903107,120.911939 99.9020653,97.7273988 119.756693,66.4309235 C127.057648,55.628516 130.709553,50.0823511 130.712406,49.7924291 C130.714782,49.5020294 130.644741,49.2544286 130.50228,49.0496268 C130.094051,49.0114163 129.815769,49.0114163 129.667435,49.0496268 C129.4485,49.1055097 129.350299,48.4234272 129.133504,48.379724 C128.503797,48.2521965 127.919019,47.9912822 127.884075,47.3471966 C127.722191,44.3832569 127.608088,41.2144133 129.133504,38.6724606 C129.448238,38.1484993 129.688568,37.3052416 129.854492,36.1426875 C115.758958,28.0984245 107.176504,23.2762609 104.107131,21.6761967 C101.581133,20.3591349 88.1935104,13.133736 63.9442632,1.49250708e-14 C27.1659925,47.6843698 6.63480952,75.1926122 2.35071414,82.5247272 Z" id="Fill-107" stroke="#FFFFFF" fill="#7F0149"></path>
                            <path d="M69.8501192,129.848485 C60.6615847,126.516822 54.1229123,123.553011 50.2341019,120.957052 C45.4571107,117.768193 22.1334267,96.1886488 12.0774417,88.0363509 C9.85399656,86.2338237 7.55983408,84.8003189 6.2026906,84.8003189 C3.41489584,84.8003189 2.7761774,85.5259613 1.87502699,87.1157081 C-0.0946704004,90.5905109 1.97316184,94.8216382 4.33703263,96.9456691 C8.7265802,100.889989 28.406576,114.913477 44.8988719,125.041296 C53.7488497,130.476014 62.2322452,133.647593 67.0038607,136.213113 C67.4611997,136.458735 68.5840041,137.0613 70.3722739,138.020809 C76.1709966,129.469917 79.7082858,124.283858 80.9841413,122.462632 C85.2716941,116.344508 89.1905174,109.981 93.1757977,103.663993 C98.2608353,95.6037883 110.247642,77.0910719 129.136218,48.1258439 C129.016643,45.0734586 129.080241,42.7951392 129.327014,41.2908856 C129.526385,40.0747009 129.850095,38.8327616 129.537104,37.6072767 C129.405619,37.8025816 129.269847,37.995025 129.129786,38.1838913 C128.136027,39.5293255 108.376138,70.0841901 69.8501192,129.848485 Z" id="Fill-108" fill="#FFFFFE"></path>
                        </g>
                        <text id="Stories-of-the-world" transform="translate(69.880199, 69.786258) rotate(31.000000) translate(-69.880199, -69.786258) " font-family="HomemadeApple-Regular, Homemade Apple" font-size="12" font-weight="normal" letter-spacing="0.20239992" fill="#FFFFFF">
                            <tspan x="42.4670732" y="46.7862582">Stories </tspan>
                            <tspan x="42.4670732" y="72.7862582">of the </tspan>
                            <tspan x="42.4670732" y="98.7862582">world</tspan>
                        </text>
                        <path d="M9.19842356,99.3862195 C9.28731399,99.3841395 7.65973283,98.4774265 5.88494653,96.5669961 C4.31389412,94.8758706 2.58905912,92.2394763 2.40052285,91.0741067 C2.14881807,89.5182837 2.54274247,86.3413173 6.41475116,87.0461107 C11.1491147,87.9078722 42.2763642,118.555906 54.1524469,124.749492 C63.6076627,129.680552 67.870796,130.809988 67.870796,130.809988" id="Path-33" stroke="#302F2F"></path>
                        <line x1="127.160227" y1="43.0811339" x2="107.657125" y2="74.4128676" id="Path-34" stroke="#282828" stroke-linecap="round" stroke-linejoin="round"></line>
                        <line x1="106.877001" y1="75.9794543" x2="85.8136501" y2="108.877775" id="Path-34-Copy" stroke="#282828" stroke-linecap="round" stroke-linejoin="round"></line>
                        <path d="M8.58136501,90.8620278 L27.3762527,106.357706 C34.7810838,112.886494 39.8985628,117.207909 42.7286896,119.321951 C45.5588164,121.435993 49.5188153,123.95985 54.6086864,126.893522" id="Path-35" stroke="#979797"></path>
                        <path d="M7.80124092,89.6917489 C7.00039317,89.4151516 5.57248683,88.9587688 4.96517539,89.6917489 C4.32430144,90.4652365 4.88861782,92.3305497 5.45645126,93.2119079" id="Path-36" stroke="#979797" stroke-linecap="round" stroke-linejoin="round"></path>
                    </g>
                </g>
                <text id="DESIGNER" font-family="Impact" font-size="40" font-style="condensed" font-weight="700" letter-spacing="0.6746664" fill="#FFFFFF">
                    <tspan x="120" y="40">DESIGNER</tspan>
                </text>
                <text id="MOTHER" font-family="Impact" font-size="40" font-style="condensed" font-weight="700" letter-spacing="0.6746664" fill="#FFFFFF">
                    <tspan x="235" y="118">MOTHER</tspan>
                </text>
                <text id="WIFE" font-family="Impact" font-size="40" font-style="condensed" font-weight="700" letter-spacing="0.6746664" fill="#FFFFFF">
                    <tspan x="0" y="121">WIFE</tspan>
                </text>
                <path d="M143.589047,94.7722603 C132.012117,91.2490137 124.815768,85.6659907 122,78.0231913 C119.184232,70.3803918 119.184232,57.6515329 122,39.8366143" id="Path-39" stroke="#FFFFFF" stroke-width="2"></path>
            </g>
        </g>
    </g>
</svg>