<?xml version="1.0" encoding="UTF-8"?>
    <svg version="1.1"  xmlns="http://www.w3.org/2000/svg" xmlns:xlink="http://www.w3.org/1999/xlink">
        <title>Desktop HD</title>
        <desc>Created with Sketch.</desc>
        <defs>
        <path id="a" d="m2.5548 15.982v-5.9519h1.1553c2.4439 0 3.6436-1.3805 3.6436-3.9151v-2.0594c0-2.5347-1.1997-3.9151-3.6436-3.9151h-3.5992v15.842h2.4439zm1.1553-8.215h-1.1553v-5.3635h1.1553c0.7776 0 1.1997 0.36209 1.1997 1.4936v2.3762c0 1.1315-0.42213 1.4936-1.1997 1.4936zm5.9883 8.215 0.42213-2.8741h2.9993l0.42213 2.8741h2.4661l-2.4883-15.842h-3.577l-2.4883 15.842h2.2439zm3.0882-5.024h-2.355l1.1553-8.0113h0.044435l1.1553 8.0113zm6.6993 5.024v-6.4498h0.84426c1.1109 0 1.5996 0.54314 1.5996 2.0141v2.4894c0 1.29 0.088869 1.5389 0.22217 1.9463h2.4883c-0.24439-0.5884-0.26661-1.1542-0.26661-1.9236v-2.4441c0-1.6521-0.39991-2.8289-1.6219-3.3494v-0.045262c1.0886-0.52051 1.5996-1.5615 1.5996-3.1909v-1.2447c0-2.4441-1.0886-3.6436-3.6214-3.6436h-3.6881v15.842h2.4439zm0.95534-8.7129h-0.95534v-4.8656h1.1775c0.86647 0 1.2442 0.49788 1.2442 1.6294v1.5615c0 1.2673-0.55543 1.6747-1.4663 1.6747zm10.787 8.7129 2.3995-15.842h-2.2439l-1.844 12.922h-0.044435l-1.844-12.922h-2.4661l2.3995 15.842h3.6436zm4.4775 0 0.42213-2.8741h2.9993l0.42213 2.8741h2.4661l-2.4883-15.842h-3.577l-2.4883 15.842h2.2439zm3.0882-5.024h-2.355l1.1553-8.0113h0.044434l1.1553 8.0113zm7.699 5.024v-13.579h2.555v-2.2631h-7.5539v2.2631h2.555v13.579h2.4439zm5.9661 0v-6.7893h2.7772v6.7893h2.4883v-15.842h-2.4883v6.7893h-2.7772v-6.7893h-2.4439v15.842h2.4439zm11.676 0v-5.2504l3.0882-10.591h-2.3328l-1.844 7.2192h-0.044435l-1.844-7.2192h-2.555l3.0882 10.591v5.2504h2.4439zm9.7549 0v-15.842h-2.4439v15.842h2.4439zm6.4104 0v-5.2504l3.0882-10.591h-2.3328l-1.844 7.2192h-0.044435l-1.844-7.2192h-2.555l3.0882 10.591v5.2504h2.4439zm10.632 0v-2.2631h-4.2213v-4.6393h3.3548v-2.2631h-3.3548v-4.413h4.2213v-2.2631h-6.6652v15.842h6.6652zm3.8554 0v-6.4498h0.84426c1.1109 0 1.5996 0.54314 1.5996 2.0141v2.4894c0 1.29 0.088869 1.5389 0.22217 1.9463h2.4883c-0.24439-0.5884-0.26661-1.1542-0.26661-1.9236v-2.4441c0-1.6521-0.39991-2.8289-1.6219-3.3494v-0.045262c1.0886-0.52051 1.5996-1.5615 1.5996-3.1909v-1.2447c0-2.4441-1.0886-3.6436-3.6214-3.6436h-3.6881v15.842h2.4439zm0.95534-8.7129h-0.95534v-4.8656h1.1775c0.86647 0 1.2442 0.49788 1.2442 1.6294v1.5615c0 1.2673-0.55543 1.6747-1.4663 1.6747z"/>
        <linearGradient id="c" x1="50%" x2="50%" y1="19.557%" y2="100%">
        <stop stop-color="#DF0A5D" offset="0"/>
        <stop stop-color="#860162" offset=".51658"/>
        <stop stop-color="#78007E" offset="1"/>
        </linearGradient>
        </defs>
        <g fill="none" fill-rule="evenodd">
        <mask id="b" fill="white">
        <use xlink:href="#a"/>
        </mask>
        <use fill="#8B0000" fill-rule="nonzero" xlink:href="#a"/>
        <rect x="-.31104" y="-5.703" width="100.31" height="21.895" fill="url(#c)" mask="url(#b)"/>
        </g>
    </svg>
