<?xml version="1.0" encoding="UTF-8"?>
<svg width="60px" height="52px" viewBox="0 0 60 52" version="1.1" xmlns="http://www.w3.org/2000/svg" xmlns:xlink="http://www.w3.org/1999/xlink">
    <title>Group 3</title>
    <g id="Page-1" stroke="none" stroke-width="1" fill="none" fill-rule="evenodd">
        <g id="Desktop-HD-Copy" transform="translate(-305.000000, -307.000000)">
            <g id="Group-3" transform="translate(305.000000, 307.000000)">
                <polygon id="Path-2" fill="#FFFFFF" points="3.5 1.5 3.5 28.0176309 3.5 51.5 29.8875 51.5 29.6679714 14.0411934 29.7398947 1.5"></polygon>
                <text id="P" font-family="MontDemo-ExtraLight, Mont Demo" font-size="40" font-weight="300" letter-spacing="0.6746664" fill="#000531">
                    <tspan x="0" y="30">P</tspan>
                </text>
                <line x1="3.1125" y1="30.5" x2="29.8875" y2="30.5" id="Line-Copy-10" stroke="#021358" stroke-linecap="square"></line>
                <line x1="3.1125" y1="32.5" x2="29.8875" y2="32.5" id="Line-Copy-9" stroke="#021358" stroke-linecap="square"></line>
                <line x1="3.1125" y1="34.5" x2="29.8875" y2="34.5" id="Line-Copy-8" stroke="#021358" stroke-linecap="square"></line>
                <line x1="3.1125" y1="36.5" x2="29.8875" y2="36.5" id="Line-Copy-7" stroke="#021358" stroke-linecap="square"></line>
                <line x1="3.1125" y1="38.5" x2="29.8875" y2="38.5" id="Line-Copy-21" stroke="#021358" stroke-linecap="square"></line>
                <line x1="3.1125" y1="40.5" x2="29.8875" y2="40.5" id="Line-Copy-20" stroke="#021358" stroke-linecap="square"></line>
                <polygon id="Rectangle" points="30 1 56.39 1 56.39 52 30.2428929 52"></polygon>
                <line x1="3.1125" y1="42.5" x2="29.8875" y2="42.5" id="Line-Copy-19" stroke="#021358" stroke-linecap="square"></line>
                <line x1="3.1125" y1="44.5" x2="29.8875" y2="44.5" id="Line-Copy-18" stroke="#021358" stroke-linecap="square"></line>
                <line x1="3.1125" y1="46.5" x2="29.8875" y2="46.5" id="Line-Copy-17" stroke="#021358" stroke-linecap="square"></line>
                <line x1="3.1125" y1="48.5" x2="29.8875" y2="48.5" id="Line-Copy-16" stroke="#021358" stroke-linecap="square"></line>
                <line x1="3.1125" y1="50.5" x2="29.8875" y2="50.5" id="Line-Copy-15" stroke="#021358" stroke-linecap="square"></line>
                <line x1="30.1125" y1="29.5" x2="55.8875" y2="29.5" id="Line-Copy-39" stroke="#FFFFFF" stroke-linecap="square"></line>
                <line x1="30.1125" y1="31.5" x2="55.8875" y2="31.5" id="Line-Copy-38" stroke="#FFFFFF" stroke-linecap="square"></line>
                <line x1="30.1125" y1="33.5" x2="55.8875" y2="33.5" id="Line-Copy-37" stroke="#FFFFFF" stroke-linecap="square"></line>
                <line x1="30.1125" y1="35.5" x2="55.8875" y2="35.5" id="Line-Copy-36" stroke="#FFFFFF" stroke-linecap="square"></line>
                <line x1="30.1125" y1="37.5" x2="55.8875" y2="37.5" id="Line-Copy-35" stroke="#FFFFFF" stroke-linecap="square"></line>
                <line x1="30.1125" y1="39.5" x2="55.8875" y2="39.5" id="Line-Copy-34" stroke="#FFFFFF" stroke-linecap="square"></line>
                <line x1="30.1125" y1="41.5" x2="55.8875" y2="41.5" id="Line-Copy-33" stroke="#FFFFFF" stroke-linecap="square"></line>
                <line x1="30.1125" y1="43.5" x2="55.8875" y2="43.5" id="Line-Copy-32" stroke="#FFFFFF" stroke-linecap="square"></line>
                <line x1="30.1125" y1="45.5" x2="55.8875" y2="45.5" id="Line-Copy-31" stroke="#FFFFFF" stroke-linecap="square"></line>
                <line x1="30.1125" y1="47.5" x2="55.8875" y2="47.5" id="Line-Copy-30" stroke="#FFFFFF" stroke-linecap="square"></line>
                <line x1="30.1125" y1="49.5" x2="55.8875" y2="49.5" id="Line-Copy-29" stroke="#FFFFFF" stroke-linecap="square"></line>
                <line x1="3.5" y1="1.5" x2="3.5" y2="51.5" id="Path" stroke="#FFFFFF"></line>
                <line x1="3.01342773" y1="1.5" x2="29.7398947" y2="1.5" id="Line-Copy-2" stroke="#FFFFFF" stroke-linejoin="round"></line>
                <text id="I" font-family="MontDemo-ExtraLight, Mont Demo" font-size="40" font-weight="300" letter-spacing="0.6746664" fill="#FFFFFF">
                    <tspan x="49" y="29">I</tspan>
                </text>
            </g>
        </g>
    </g>
</svg>