<?xml version="1.0" encoding="UTF-8"?>
<svg version="1.1" viewBox="0 0" xmlns="http://www.w3.org/2000/svg" xmlns:xlink="http://www.w3.org/1999/xlink">
    <title>Group</title>
    <desc>Created with Sketch.</desc>
    <defs>
    <path id="a" d="m5.2048 31.964v-11.904h2.3536c4.9788 0 7.4229-2.761 7.4229-7.8303v-4.1188c0-5.0693-2.4441-7.8303-7.4229-7.8303h-7.3324v31.683h4.9788zm2.3536-16.43h-2.3536v-10.727h2.3536c1.5842 0 2.4441 0.72419 2.4441 2.9873v4.7525c0 2.2631-0.85997 2.9873-2.4441 2.9873zm12.2 16.43 0.85997-5.7482h6.1103l0.85997 5.7482h5.024l-5.0693-31.683h-7.2871l-5.0693 31.683h4.5714zm6.2914-10.048h-4.7977l2.3536-16.023h0.090523l2.3536 16.023zm13.648 10.048v-12.9h1.7199c2.2631 0 3.2588 1.0863 3.2588 4.0283v4.9788c0 2.5799 0.18105 3.0778 0.45262 3.8925h5.0693c-0.49788-1.1768-0.54314-2.3083-0.54314-3.8472v-4.8883c0-3.3041-0.81471-5.6577-3.3041-6.6987v-0.090523c2.2178-1.041 3.2588-3.1231 3.2588-6.3819v-2.4894c0-4.8883-2.2178-7.2871-7.3777-7.2871h-7.5134v31.683h4.9788zm1.9463-17.426h-1.9463v-9.7313h2.3989c1.7652 0 2.5347 0.99576 2.5347 3.2588v3.1231c0 2.5347-1.1315 3.3494-2.9873 3.3494zm21.976 17.426 4.8883-31.683h-4.5714l-3.7567 25.844h-0.090523l-3.7567-25.844h-5.024l4.8883 31.683h7.4229zm9.1217 0 0.85997-5.7482h6.1103l0.85997 5.7482h5.024l-5.0693-31.683h-7.2871l-5.0693 31.683h4.5714zm6.2914-10.048h-4.7977l2.3536-16.023h0.090523l2.3536 16.023zm15.685 10.048v-27.157h5.2051v-4.5262h-15.389v4.5262h5.2051v27.157h4.9788zm12.154 0v-13.579h5.6577v13.579h5.0693v-31.683h-5.0693v13.579h-5.6577v-13.579h-4.9788v31.683h4.9788zm23.787 0v-10.501l6.2914-21.182h-4.7525l-3.7567 14.438h-0.090523l-3.7567-14.438h-5.2051l6.2914 21.182v10.501h4.9788zm19.873 0v-31.683h-4.9788v31.683h4.9788zm13.06 0v-10.501l6.2914-21.182h-4.7525l-3.7567 14.438h-0.090523l-3.7567-14.438h-5.2051l6.2914 21.182v10.501h4.9788zm21.659 0v-4.5262h-8.5997v-9.2786h6.8345v-4.5262h-6.8345v-8.826h8.5997v-4.5262h-13.579v31.683h13.579zm7.8544 0v-12.9h1.7199c2.2631 0 3.2588 1.0863 3.2588 4.0283v4.9788c0 2.5799 0.18105 3.0778 0.45262 3.8925h5.0693c-0.49788-1.1768-0.54314-2.3083-0.54314-3.8472v-4.8883c0-3.3041-0.81471-5.6577-3.3041-6.6987v-0.090523c2.2178-1.041 3.2588-3.1231 3.2588-6.3819v-2.4894c0-4.8883-2.2178-7.2871-7.3777-7.2871h-7.5134v31.683h4.9788zm1.9463-17.426h-1.9463v-9.7313h2.3989c1.7652 0 2.5347 0.99576 2.5347 3.2588v3.1231c0 2.5347-1.1315 3.3494-2.9873 3.3494z"/>
    <linearGradient id="c" x1="50%" x2="50%" y1="19.557%" y2="100%">
    <stop stop-color="#CF4B0C" offset="0"/>
    <stop stop-color="#DA870B" offset=".51658"/>
    <stop stop-color="#78007E" offset="1"/>
    </linearGradient>
    </defs>
    <g fill="none" fill-rule="evenodd">
    <g transform="translate(-371 -380)">
    <g transform="translate(371.17 380.71)">
    <mask id="b" fill="white">
    <use xlink:href="#a"/>
    </mask>
    <use fill="#8B0000" fill-rule="nonzero" xlink:href="#a"/>
    <rect x="-.63366" y="-11.406" width="204.36" height="43.791" fill="url(#c)" mask="url(#b)"/>
    </g>
    </g>
    </g>
</svg>
