<?xml version="1.0" encoding="UTF-8"?>
<svg width="204px" height="33px" viewBox="0 0 204 33" version="1.1" xmlns="http://www.w3.org/2000/svg" xmlns:xlink="http://www.w3.org/1999/xlink">
    <!-- Generator: Sketch 64 (93537) - https://sketch.com -->
    <title>Group</title>
    <desc>Created with Sketch.</desc>
    <defs>
        <path d="M5.20479019,31.9637907 L5.20479019,20.0599717 L7.55839698,20.0599717 C12.5371806,20.0599717 14.9813107,17.2990099 14.9813107,12.229703 L14.9813107,8.11089109 C14.9813107,3.04158416 12.5371806,0.280622348 7.55839698,0.280622348 L0.226006601,0.280622348 L0.226006601,31.9637907 L5.20479019,31.9637907 Z M7.55839698,15.5338048 L5.20479019,15.5338048 L5.20479019,4.80678925 L7.55839698,4.80678925 C9.1425554,4.80678925 10.0025271,5.53097595 10.0025271,7.79405941 L10.0025271,12.5465347 C10.0025271,14.8096181 9.1425554,15.5338048 7.55839698,15.5338048 Z M19.7579255,31.9637907 L20.6178972,26.2155587 L26.7282225,26.2155587 L27.5881942,31.9637907 L32.6122395,31.9637907 L27.5429326,0.280622348 L20.2558039,0.280622348 L15.1864969,31.9637907 L19.7579255,31.9637907 Z M26.0492975,21.9157001 L21.2515606,21.9157001 L23.6051674,5.89306931 L23.6956907,5.89306931 L26.0492975,21.9157001 Z M39.6971994,31.9637907 L39.6971994,19.064215 L41.4171428,19.064215 C43.6802263,19.064215 44.675983,20.150495 44.675983,23.0925035 L44.675983,28.0712871 C44.675983,30.6512023 44.8570297,31.1490806 45.1285997,31.9637907 L50.1979066,31.9637907 C49.7000283,30.7869873 49.6547666,29.6554455 49.6547666,28.1165488 L49.6547666,23.2282885 C49.6547666,19.9241867 48.8400566,17.5705799 46.3506648,16.5295615 L46.3506648,16.4390382 C48.5684865,15.3980198 49.6095049,13.315983 49.6095049,10.0571429 L49.6095049,7.56775106 C49.6095049,2.67949081 47.3916831,0.280622348 42.2318529,0.280622348 L34.7184158,0.280622348 L34.7184158,31.9637907 L39.6971994,31.9637907 Z M41.6434512,14.5380481 L39.6971994,14.5380481 L39.6971994,4.80678925 L42.0960679,4.80678925 C43.861273,4.80678925 44.6307213,5.80254597 44.6307213,8.06562942 L44.6307213,11.1886846 C44.6307213,13.723338 43.4991796,14.5380481 41.6434512,14.5380481 Z M63.6195002,31.9637907 L68.5077605,0.280622348 L63.9363319,0.280622348 L60.1796134,26.1250354 L60.08909,26.1250354 L56.3323715,0.280622348 L51.3083262,0.280622348 L56.1965865,31.9637907 L63.6195002,31.9637907 Z M72.7412352,31.9637907 L73.6012069,26.2155587 L79.7115323,26.2155587 L80.571504,31.9637907 L85.5955492,31.9637907 L80.5262423,0.280622348 L73.2391136,0.280622348 L68.1698067,31.9637907 L72.7412352,31.9637907 Z M79.0326072,21.9157001 L74.2348703,21.9157001 L76.5884771,5.89306931 L76.6790004,5.89306931 L79.0326072,21.9157001 Z M94.7172843,31.9637907 L94.7172843,4.80678925 L99.9223762,4.80678925 L99.9223762,0.280622348 L84.5334087,0.280622348 L84.5334087,4.80678925 L89.7385007,4.80678925 L89.7385007,31.9637907 L94.7172843,31.9637907 Z M106.871551,31.9637907 L106.871551,18.38529 L112.52926,18.38529 L112.52926,31.9637907 L117.598567,31.9637907 L117.598567,0.280622348 L112.52926,0.280622348 L112.52926,13.8591231 L106.871551,13.8591231 L106.871551,0.280622348 L101.892768,0.280622348 L101.892768,31.9637907 L106.871551,31.9637907 Z M130.658067,31.9637907 L130.658067,21.4630835 L136.949439,0.280622348 L132.196964,0.280622348 L128.440245,14.7190948 L128.349722,14.7190948 L124.593003,0.280622348 L119.387911,0.280622348 L125.679283,21.4630835 L125.679283,31.9637907 L130.658067,31.9637907 Z M150.530957,31.9637907 L150.530957,0.280622348 L145.552173,0.280622348 L145.552173,31.9637907 L150.530957,31.9637907 Z M163.590457,31.9637907 L163.590457,21.4630835 L169.881829,0.280622348 L165.129354,0.280622348 L161.372635,14.7190948 L161.282112,14.7190948 L157.525394,0.280622348 L152.320302,0.280622348 L158.611674,21.4630835 L158.611674,31.9637907 L163.590457,31.9637907 Z M185.249675,31.9637907 L185.249675,27.4376238 L176.649957,27.4376238 L176.649957,18.1589816 L183.484469,18.1589816 L183.484469,13.6328147 L176.649957,13.6328147 L176.649957,4.80678925 L185.249675,4.80678925 L185.249675,0.280622348 L171.671174,0.280622348 L171.671174,31.9637907 L185.249675,31.9637907 Z M193.104083,31.9637907 L193.104083,19.064215 L194.824026,19.064215 C197.08711,19.064215 198.082866,20.150495 198.082866,23.0925035 L198.082866,28.0712871 C198.082866,30.6512023 198.263913,31.1490806 198.535483,31.9637907 L203.60479,31.9637907 C203.106912,30.7869873 203.06165,29.6554455 203.06165,28.1165488 L203.06165,23.2282885 C203.06165,19.9241867 202.24694,17.5705799 199.757548,16.5295615 L199.757548,16.4390382 C201.97537,15.3980198 203.016388,13.315983 203.016388,10.0571429 L203.016388,7.56775106 C203.016388,2.67949081 200.798567,0.280622348 195.638736,0.280622348 L188.125299,0.280622348 L188.125299,31.9637907 L193.104083,31.9637907 Z M195.050335,14.5380481 L193.104083,14.5380481 L193.104083,4.80678925 L195.502951,4.80678925 C197.268156,4.80678925 198.037605,5.80254597 198.037605,8.06562942 L198.037605,11.1886846 C198.037605,13.723338 196.906063,14.5380481 195.050335,14.5380481 Z" id="path-1"></path>
        <linearGradient x1="50%" y1="19.5572917%" x2="50%" y2="100%" id="linearGradient-3">
            <stop stop-color="#CF4B0C" offset="0%"></stop>
            <stop stop-color="#DA870B" offset="51.6575169%"></stop>
            <stop stop-color="#78007E" offset="100%"></stop>
        </linearGradient>
    </defs>
    <g id="Page-1" stroke="none" stroke-width="1" fill="none" fill-rule="evenodd">
        <g id="Desktop-HD" transform="translate(-371.000000, -380.000000)">
            <g id="Group" transform="translate(371.166667, 380.714286)">
                <mask id="mask-2" fill="white">
                    <use xlink:href="#path-1"></use>
                </mask>
                <use id="ParvathyIyer" fill="#8B0000" fill-rule="nonzero" xlink:href="#path-1"></use>
                <rect id="Rectangle" fill="url(#linearGradient-3)" mask="url(#mask-2)" x="-0.633663366" y="-11.4059406" width="204.356436" height="43.7906648"></rect>
            </g>
        </g>
    </g>
</svg>