<?xml version="1.0" encoding="UTF-8"?>
<svg width="1200px" height="1024px" viewBox="0 0 1200 1024" version="1.1" xmlns="http://www.w3.org/2000/svg" xmlns:xlink="http://www.w3.org/1999/xlink">
    <title>Artboard Copy 6</title>
    <g id="Artboard-Copy-6" stroke="none" stroke-width="1" fill="none" fill-rule="evenodd">
        <rect id="Rectangle" fill="#000813" x="0" y="0" width="1200" height="1024"></rect>
        <g id="Group-3" transform="translate(400.000000, 371.000000)">
            <g id="Group">
                <polygon id="Path" points="0.0637612097 16.1158258 0.0637612097 209.433539 59.9592341 221.173553 119.96102 209.433539 199.943713 227.31119 280.87141 209.433539 336.786057 227.31119 399.823665 209.433539 399.823665 16.1158258 336.786057 0.0981999109 280.87141 16.1158258 199.943713 0.0981999109 119.96102 16.1158258 59.9592341 0.0981999109"></polygon>
                <polygon id="Path-2" stroke="#FFFFFF" fill="#000813" points="0.183809229 16.1125633 60.0877708 0.0981999109 60.0877708 221.128523 0.183809229 209.3909"></polygon>
                <polygon id="Path-2-Copy-3" stroke="#FFFFFF" fill="#02152E" points="279.895694 16.1158258 336.678407 0.0981999109 336.678407 227.31119 279.895694 209.433539"></polygon>
                <polygon id="Path-2-Copy" stroke="#FFFFFF" fill="#02152E" transform="translate(90.099776, 110.613362) scale(-1, 1) translate(-90.099776, -110.613362) " points="60.0877708 16.1125633 120.11178 0.0981999109 120.11178 221.128523 60.0877708 209.3909"></polygon>
                <polygon id="Path-2-Copy-2" stroke="#FFFFFF" fill="#000813" transform="translate(368.431108, 113.704695) scale(-1, 1) translate(-368.431108, -113.704695) " points="336.918503 16.1158258 399.943713 0.0981999109 399.943713 227.31119 336.918503 209.433539"></polygon>
                <polygon id="Path-3" stroke="#FFFFFF" fill="#000813" points="120.11178 16.1158258 200.063761 0.0981999109 200.063761 227.31119 120.11178 209.433539"></polygon>
                <polygon id="Path-3-Copy" stroke="#FFFFFF" fill="#000813" transform="translate(239.919704, 113.704695) scale(-1, 1) translate(-239.919704, -113.704695) " points="199.943713 16.1158258 279.895694 0.0981999109 279.895694 227.31119 199.943713 209.433539"></polygon>
            </g>
            <path d="M14.7882371,100.650759 C14.7882371,100.650759 12.7449857,105.108397 38.7450175,105.108397 C56.0783721,105.108397 70.3506403,110.56395 81.5618221,121.475054" id="Path-4" stroke="#FFFFFF" stroke-width="3" stroke-dasharray="20"></path>
            <path d="M100.650759,144.902386 C100.650759,144.902386 101.133435,144.902386 123.570798,144.902386 C138.529041,144.902386 150.845644,150.397686 160.520607,161.388286" id="Path-4-Copy" stroke="#FFFFFF" stroke-width="3" stroke-dasharray="20"></path>
            <path d="M177.874187,152.711497 C177.874187,152.711497 186.856897,122.342733 211.959305,122.342733 C228.694244,122.342733 243.07368,122.342733 255.097614,122.342733" id="Path-4-Copy-2" stroke="#FFFFFF" stroke-width="3" stroke-dasharray="20"></path>
            <path d="M314.967462,68.5466377 C314.967462,68.5466377 316.854075,55.4178381 342.500187,55.4178381 C359.597594,55.4178381 370.955088,53.720352 376.572668,50.3253796" id="Path-4-Copy-3" stroke="#FFFFFF" stroke-width="3" stroke-dasharray="20"></path>
            <g id="Group-2" transform="translate(87.635575, 118.872017)">
                <path d="M5.98132001,19.9451146 C1.99377334,13.1288661 -1.19510609e-14,8.63881743 -1.19510609e-14,6.47496868 C-1.19510609e-14,3.22919555 1.2090487,-2.58995956e-15 5.98132001,-2.58995956e-15 C9.60557547,-2.58995956e-15 12.2491177,2.31654592 12.0522356,6.47496868 C11.9209808,9.24725052 9.89734227,13.7372992 5.98132001,19.9451146 Z" id="Path-5" fill="#FFFFFF"></path>
                <ellipse id="Oval" fill="#181818" cx="6.07375271" cy="7.10783585" rx="3.36392458" ry="3.28053962"></ellipse>
            </g>
            <g id="Group-2-Copy" transform="translate(165.726681, 160.520607)">
                <path d="M5.98132001,19.9451146 C1.99377334,13.1288661 -1.19510609e-14,8.63881743 -1.19510609e-14,6.47496868 C-1.19510609e-14,3.22919555 1.2090487,-2.58995956e-15 5.98132001,-2.58995956e-15 C9.60557547,-2.58995956e-15 12.2491177,2.31654592 12.0522356,6.47496868 C11.9209808,9.24725052 9.89734227,13.7372992 5.98132001,19.9451146 Z" id="Path-5" fill="#FFFFFF"></path>
                <ellipse id="Oval" fill="#181818" cx="6.07375271" cy="7.10783585" rx="3.36392458" ry="3.28053962"></ellipse>
            </g>
            <g id="Group-2-Copy-2" transform="translate(259.436009, 104.121475)">
                <path d="M5.98132001,19.9451146 C1.99377334,13.1288661 -1.19510609e-14,8.63881743 -1.19510609e-14,6.47496868 C-1.19510609e-14,3.22919555 1.2090487,-2.58995956e-15 5.98132001,-2.58995956e-15 C9.60557547,-2.58995956e-15 12.2491177,2.31654592 12.0522356,6.47496868 C11.9209808,9.24725052 9.89734227,13.7372992 5.98132001,19.9451146 Z" id="Path-5" fill="#FFFFFF"></path>
                <ellipse id="Oval" fill="#181818" cx="6.07375271" cy="7.10783585" rx="3.36392458" ry="3.28053962"></ellipse>
            </g>
            <g id="Group-2-Copy-4" transform="translate(300.216920, 52.928416)">
                <path d="M5.98132001,19.9451146 C1.99377334,13.1288661 -1.19510609e-14,8.63881743 -1.19510609e-14,6.47496868 C-1.19510609e-14,3.22919555 1.2090487,-2.58995956e-15 5.98132001,-2.58995956e-15 C9.60557547,-2.58995956e-15 12.2491177,2.31654592 12.0522356,6.47496868 C11.9209808,9.24725052 9.89734227,13.7372992 5.98132001,19.9451146 Z" id="Path-5" fill="#FFFFFF"></path>
                <ellipse id="Oval" fill="#181818" cx="6.07375271" cy="7.10783585" rx="3.36392458" ry="3.28053962"></ellipse>
            </g>
            <g id="Group-2-Copy-3" transform="translate(373.969631, 30.368764)">
                <path d="M5.98132001,19.9451146 C1.99377334,13.1288661 -1.19510609e-14,8.63881743 -1.19510609e-14,6.47496868 C-1.19510609e-14,3.22919555 1.2090487,-2.58995956e-15 5.98132001,-2.58995956e-15 C9.60557547,-2.58995956e-15 12.2491177,2.31654592 12.0522356,6.47496868 C11.9209808,9.24725052 9.89734227,13.7372992 5.98132001,19.9451146 Z" id="Path-5" fill="#FFFFFF"></path>
                <ellipse id="Oval" fill="#181818" cx="6.07375271" cy="7.10783585" rx="3.36392458" ry="3.28053962"></ellipse>
            </g>
            <path d="M277.657267,114.533623 L285.824452,96.2944879 L300.21692,78.0911063" id="Path-30" stroke="#FFFFFF" stroke-width="3" stroke-dasharray="22"></path>
        </g>
        <text id="the5questiontrip" font-family="Impact" font-size="40" font-style="condensed" font-weight="700" letter-spacing="0.625" fill="#FFFFFF">
            <tspan x="455.654297" y="706">the5questiontrip</tspan>
        </text>
    </g>
</svg>