<?xml version="1.0" encoding="UTF-8"?>
<svg width="3840px" height="1800px" viewBox="0 0 3840 1800" version="1.1" xmlns="http://www.w3.org/2000/svg" xmlns:xlink="http://www.w3.org/1999/xlink">
    <title>Artboard Copy 2</title>
    <g id="Artboard-Copy-2" stroke="none" stroke-width="1" fill="none" fill-rule="evenodd">
        <rect id="Rectangle" fill="#000813" x="0" y="0" width="3840" height="1800"></rect>
        <g id="Group-3" transform="translate(1554.000000, 548.000000)">
            <g id="Group" stroke="#FFFFFF">
                <polygon id="Path" stroke-width="4" points="0.116683014 29.490731 0.116683014 383.247389 109.725398 404.730719 219.528666 383.247389 365.896995 415.962125 513.99468 383.247389 616.318485 415.962125 731.677307 383.247389 731.677307 29.490731 616.318485 0.179698341 513.99468 29.490731 365.896995 0.179698341 219.528666 29.490731 109.725398 0.179698341"></polygon>
                <polygon id="Path-2" stroke-width="5" fill="#000813" points="0.336370889 29.4847608 109.960621 0.179698341 109.960621 404.648318 0.336370889 383.169363"></polygon>
                <polygon id="Path-2-Copy-3" stroke-width="5" fill="#02152E" points="512.20912 29.490731 616.121485 0.179698341 616.121485 415.962125 512.20912 383.247389"></polygon>
                <polygon id="Path-2-Copy" stroke-width="5" fill="#02152E" transform="translate(164.882589, 202.414008) scale(-1, 1) translate(-164.882589, -202.414008) " points="109.960621 29.4847608 219.804558 0.179698341 219.804558 404.648318 109.960621 383.169363"></polygon>
                <polygon id="Path-2-Copy-2" stroke-width="5" fill="#000813" transform="translate(674.228928, 208.070912) scale(-1, 1) translate(-674.228928, -208.070912) " points="616.560861 29.490731 731.896995 0.179698341 731.896995 415.962125 616.560861 383.247389"></polygon>
                <polygon id="Path-3" stroke-width="5" fill="#000813" points="219.804558 29.490731 366.116683 0.179698341 366.116683 415.962125 219.804558 383.247389"></polygon>
                <polygon id="Path-3-Copy" stroke-width="5" fill="#000813" transform="translate(439.053058, 208.070912) scale(-1, 1) translate(-439.053058, -208.070912) " points="365.896995 29.490731 512.20912 0.179698341 512.20912 415.962125 365.896995 383.247389"></polygon>
            </g>
            <path d="M27.0693963,185 C27.0693963,185 23.3077573,193.134261 71.1739847,193.134261 C103.084803,193.134261 129.360141,203.089507 150,223" id="Path-4" stroke="#FFFFFF" stroke-width="7" stroke-dasharray="20"></path>
            <path d="M184,265 C184,265 184.886829,265 226.11142,265 C253.59448,265 276.224007,275 294,295" id="Path-4-Copy" stroke="#FFFFFF" stroke-width="7" stroke-dasharray="20"></path>
            <path d="M326,280 C326,280 342.401269,224 388.235022,224 C418.790857,224 445.04585,224 467,224" id="Path-4-Copy-2" stroke="#FFFFFF" stroke-width="7" stroke-dasharray="20"></path>
            <path d="M577,126 C577,126 580.46054,101.502285 627.502191,101.502285 C658.863291,101.502285 679.695895,98.3348567 690,92" id="Path-4-Copy-3" stroke="#FFFFFF" stroke-width="7" stroke-dasharray="20"></path>
            <g id="Group-2" transform="translate(161.000000, 218.000000)">
                <path d="M10.8325978,36.9786761 C3.61086593,24.3412031 -2.16442249e-14,16.0165553 -2.16442249e-14,12.0047327 C-2.16442249e-14,5.98699875 2.18967357,-4.80184132e-15 10.8325978,-4.80184132e-15 C17.3963833,-4.80184132e-15 22.1840271,4.2949265 21.8274595,12.0047327 C21.5897477,17.1446035 17.9247938,25.4692513 10.8325978,36.9786761 Z" id="Path-5" fill="#FFFFFF"></path>
                <ellipse id="Oval" stroke="#979797" fill="#181818" cx="11" cy="13.1780822" rx="6.09230769" ry="6.08219178"></ellipse>
            </g>
            <g id="Group-2-Copy" transform="translate(304.000000, 294.000000)">
                <path d="M10.8325978,36.9786761 C3.61086593,24.3412031 -2.16442249e-14,16.0165553 -2.16442249e-14,12.0047327 C-2.16442249e-14,5.98699875 2.18967357,-4.80184132e-15 10.8325978,-4.80184132e-15 C17.3963833,-4.80184132e-15 22.1840271,4.2949265 21.8274595,12.0047327 C21.5897477,17.1446035 17.9247938,25.4692513 10.8325978,36.9786761 Z" id="Path-5" fill="#FFFFFF"></path>
                <ellipse id="Oval" stroke="#979797" fill="#181818" cx="11" cy="13.1780822" rx="6.09230769" ry="6.08219178"></ellipse>
            </g>
            <g id="Group-2-Copy-2" transform="translate(475.000000, 190.000000)">
                <path d="M10.8325978,36.9786761 C3.61086593,24.3412031 -2.16442249e-14,16.0165553 -2.16442249e-14,12.0047327 C-2.16442249e-14,5.98699875 2.18967357,-4.80184132e-15 10.8325978,-4.80184132e-15 C17.3963833,-4.80184132e-15 22.1840271,4.2949265 21.8274595,12.0047327 C21.5897477,17.1446035 17.9247938,25.4692513 10.8325978,36.9786761 Z" id="Path-5" fill="#FFFFFF"></path>
                <ellipse id="Oval" stroke="#979797" fill="#181818" cx="11" cy="13.1780822" rx="6.09230769" ry="6.08219178"></ellipse>
            </g>
            <g id="Group-2-Copy-4" transform="translate(549.000000, 97.000000)">
                <path d="M10.8325978,36.9786761 C3.61086593,24.3412031 -2.16442249e-14,16.0165553 -2.16442249e-14,12.0047327 C-2.16442249e-14,5.98699875 2.18967357,-4.80184132e-15 10.8325978,-4.80184132e-15 C17.3963833,-4.80184132e-15 22.1840271,4.2949265 21.8274595,12.0047327 C21.5897477,17.1446035 17.9247938,25.4692513 10.8325978,36.9786761 Z" id="Path-5" fill="#FFFFFF"></path>
                <ellipse id="Oval" stroke="#979797" fill="#181818" cx="11" cy="13.1780822" rx="6.09230769" ry="6.08219178"></ellipse>
            </g>
            <g id="Group-2-Copy-3" transform="translate(684.000000, 55.000000)">
                <path d="M10.8325978,36.9786761 C3.61086593,24.3412031 -2.16442249e-14,16.0165553 -2.16442249e-14,12.0047327 C-2.16442249e-14,5.98699875 2.18967357,-4.80184132e-15 10.8325978,-4.80184132e-15 C17.3963833,-4.80184132e-15 22.1840271,4.2949265 21.8274595,12.0047327 C21.5897477,17.1446035 17.9247938,25.4692513 10.8325978,36.9786761 Z" id="Path-5" fill="#FFFFFF"></path>
                <ellipse id="Oval" stroke="#979797" fill="#181818" cx="11" cy="13.1780822" rx="6.09230769" ry="6.08219178"></ellipse>
            </g>
            <path d="M508,209 L522.843074,175.967624 L549,143" id="Path-30" stroke="#FFFFFF" stroke-width="7" stroke-dasharray="22"></path>
        </g>
        <text id="the5questiontrip" font-family="Impact" font-size="130" font-style="condensed" font-weight="700" letter-spacing="2.03125" fill="#FFFFFF">
            <tspan x="1451.37646" y="1190">the5questiontrip</tspan>
        </text>
    </g>
</svg>