<?xml version="1.0" encoding="UTF-8"?>
<svg width="1200px" height="1024px" viewBox="0 0 1200 1024" version="1.1" xmlns="http://www.w3.org/2000/svg" xmlns:xlink="http://www.w3.org/1999/xlink">
    <title>Artboard Copy 6</title>
    <g id="Artboard-Copy-6" stroke="none" stroke-width="1" fill="none" fill-rule="evenodd">
        <rect id="Rectangle" fill="#042853" x="0" y="0" width="1200" height="1024"></rect>
        <g id="Group-3" transform="translate(388.000000, 357.000000)">
            <g id="Group">
                <polygon id="Path" points="0 16.9895561 0 222.037555 63.6771615 234.489939 127.467348 222.037555 212.5 241 298.53732 222.037555 357.982315 241 425 222.037555 425 16.9895561 357.982315 -3.34454686e-15 298.53732 16.9895561 212.5 0 127.467348 16.9895561 63.6771615 0"></polygon>
                <polygon id="Path-2" stroke="#FFFFFF" fill="#000813" points="0 17.0265117 64 0 64 235 0 222.520529"></polygon>
                <polygon id="Path-2-Copy-3" stroke="#FFFFFF" fill="#042853" points="298 16.9895561 358 0 358 241 298 222.037555"></polygon>
                <polygon id="Path-2-Copy" stroke="#FFFFFF" fill="#042853" transform="translate(96.000000, 117.500000) scale(-1, 1) translate(-96.000000, -117.500000) " points="64 17.0265117 128 0 128 235 64 222.520529"></polygon>
                <polygon id="Path-2-Copy-2" stroke="#FFFFFF" fill="#000813" transform="translate(391.500000, 120.500000) scale(-1, 1) translate(-391.500000, -120.500000) " points="358 16.9895561 425 0 425 241 358 222.037555"></polygon>
                <polygon id="Path-3" stroke="#FFFFFF" fill="#011531" points="128 16.9895561 213 0 213 241 128 222.037555"></polygon>
                <polygon id="Path-3-Copy" stroke="#FFFFFF" fill="#000813" transform="translate(254.500000, 120.500000) scale(-1, 1) translate(-254.500000, -120.500000) " points="212 16.9895561 297 0 297 241 212 222.037555"></polygon>
            </g>
            <path d="M26.7882371,114.650759 C26.7882371,114.650759 24.7449857,119.108397 50.7450175,119.108397 C68.0783721,119.108397 82.3506403,124.56395 93.5618221,135.475054" id="loc1" stroke="#FFFFFF" stroke-width="3" stroke-dasharray="10"></path>
            <path d="M118.650759,160.388286 C118.650759,160.388286 119.086112,160.388286 139.323638,160.388286 C152.815322,160.388286 163.924363,165.388286 172.650759,175.388286" id="loc2" stroke="#FFFFFF" stroke-width="3" stroke-dasharray="10"></path>
            <path d="M198.874187,164.504643 C198.874187,164.504643 206.551376,138.549587 228.005473,138.549587 C242.308205,138.549587 254.597776,138.549587 264.874187,138.549587" id="loc3" stroke="#FFFFFF" stroke-width="3" stroke-dasharray="10"></path>
            <path d="M326.967462,82.5466377 C326.967462,82.5466377 328.854075,69.4178381 354.500187,69.4178381 C371.597594,69.4178381 382.955088,67.720352 388.572668,64.3253796" id="loc4" stroke="#FFFFFF" stroke-width="3" stroke-dasharray="10"></path>
            <text id="q1" opacity="0" font-family="Avenir-Heavy, Avenir" font-size="32" font-weight="600" letter-spacing="0.5" fill="#FFFFFF">
                <tspan x="95.446" y="166">?</tspan>
            </text>
            <text id="q2" opacity="0" font-family="Avenir-Heavy, Avenir" font-size="40" font-weight="600" letter-spacing="0.625" fill="#FFFFFF">
                <tspan x="172.3075" y="187">?</tspan>
            </text>
            <text id="q3" opacity="0" font-family="Avenir-Heavy, Avenir" font-size="40" font-weight="600" letter-spacing="0.625" fill="#FFFFFF">
                <tspan x="265.3075" y="149">?</tspan>
            </text>
            <text id="q4" opacity="0" font-family="Avenir-Heavy, Avenir" font-size="40" font-weight="600" letter-spacing="0.625" fill="#FFFFFF">
                <tspan x="301.3075" y="102">?</tspan>
            </text>
            <text id="q5" opacity="0" font-family="Avenir-Heavy, Avenir" font-size="40" font-weight="600" letter-spacing="0.625" fill="#FFFFFF">
                <tspan x="385.3075" y="69">?</tspan>
            </text>
            <polygon id="a1" fill="#FFFFFF" opacity="0" points="89 152.805243 100.35837 157.930256 119 143 101.748735 168"></polygon>
            <polygon id="a2" fill="#FFFFFF" opacity="0" points="170 171.805243 181.35837 176.930256 200 162 182.748735 187"></polygon>
            <polygon id="a3" fill="#FFFFFF" opacity="0" points="261 130.805243 272.35837 135.930256 291 121 273.748735 146"></polygon>
            <polygon id="a4" fill="#FFFFFF" opacity="0" points="299 86.8052432 310.35837 91.9302557 329 77 311.748735 102"></polygon>
            <polygon id="a5" fill="#FFFFFF" opacity="0" points="383 53.8052432 394.35837 58.9302557 413 44 395.748735 69"></polygon>
            <g id="marker1" transform="translate(173.000000, 159.000000)">
                <path d="M9.61283573,32.0546485 C3.20427858,21.0999633 0,13.8838137 0,10.4061997 C0,5.18977856 1.94311399,0 9.61283573,0 C15.437532,0 19.686082,3.72302023 19.3696643,10.4061997 C19.1587191,14.8616526 15.9064429,22.0778022 9.61283573,32.0546485 Z" id="Path-5" fill="#FFFFFF"></path>
                <ellipse id="Oval" fill="#042853" cx="9.76138829" cy="11.4233076" rx="5.40630736" ry="5.27229583"></ellipse>
            </g>
            <g id="marker2" transform="translate(93.000000, 139.000000)">
                <path d="M9.61283573,32.0546485 C3.20427858,21.0999633 0,13.8838137 0,10.4061997 C0,5.18977856 1.94311399,0 9.61283573,0 C15.437532,0 19.686082,3.72302023 19.3696643,10.4061997 C19.1587191,14.8616526 15.9064429,22.0778022 9.61283573,32.0546485 Z" id="Path-5" fill="#FFFFFF"></path>
                <ellipse id="Oval" fill="#011531" cx="9.76138829" cy="11.4233076" rx="5.40630736" ry="5.27229583"></ellipse>
            </g>
            <g id="marker3" transform="translate(265.800434, 120.752711)">
                <path d="M9.61283573,32.0546485 C3.20427858,21.0999633 -1.92070621e-14,13.8838137 -1.92070621e-14,10.4061997 C-1.92070621e-14,5.18977856 1.94311399,-4.162435e-15 9.61283573,-4.162435e-15 C15.437532,-4.162435e-15 19.686082,3.72302023 19.3696643,10.4061997 C19.1587191,14.8616526 15.9064429,22.0778022 9.61283573,32.0546485 Z" id="Path-5" fill="#FFFFFF"></path>
                <ellipse id="Oval" fill="#000813" cx="9.76138829" cy="11.4233076" rx="5.40630736" ry="5.27229583"></ellipse>
            </g>
            <g id="marker4" transform="translate(302.581345, 73.559653)">
                <path d="M9.61283573,32.0546485 C3.20427858,21.0999633 -1.92070621e-14,13.8838137 -1.92070621e-14,10.4061997 C-1.92070621e-14,5.18977856 1.94311399,-4.162435e-15 9.61283573,-4.162435e-15 C15.437532,-4.162435e-15 19.686082,3.72302023 19.3696643,10.4061997 C19.1587191,14.8616526 15.9064429,22.0778022 9.61283573,32.0546485 Z" id="Path-5" fill="#FFFFFF"></path>
                <ellipse id="Oval" fill="#042853" cx="9.76138829" cy="11.4233076" rx="5.40630736" ry="5.27229583"></ellipse>
            </g>
            <g id="marker5" transform="translate(386.000000, 41.000000)">
                <path d="M9.61283573,32.0546485 C3.20427858,21.0999633 -1.92070621e-14,13.8838137 -1.92070621e-14,10.4061997 C-1.92070621e-14,5.18977856 1.94311399,-4.162435e-15 9.61283573,-4.162435e-15 C15.437532,-4.162435e-15 19.686082,3.72302023 19.3696643,10.4061997 C19.1587191,14.8616526 15.9064429,22.0778022 9.61283573,32.0546485 Z" id="Path-5" fill="#FFFFFF"></path>
                <ellipse id="Oval" fill="#000813" cx="9.76138829" cy="11.4233076" rx="5.40630736" ry="5.27229583"></ellipse>
            </g>
            <path d="M289.657267,128.533623 L297.824452,110.294488 L312.21692,92.0911063" id="Path-30" stroke="#FFFFFF" stroke-width="3" stroke-dasharray="10"></path>
        </g>
        <text id="the5questiontrip" font-family="Impact" font-size="36" font-style="condensed" font-weight="700" letter-spacing="0.5625" fill="#FFFFFF">
            <tspan x="470.088867" y="685">the5questiontrip</tspan>
        </text>
    </g>
</svg>