<?xml version="1.0" encoding="UTF-8"?>
<svg width="3840px" height="1800px" viewBox="0 0 3840 1800" version="1.1" xmlns="http://www.w3.org/2000/svg" xmlns:xlink="http://www.w3.org/1999/xlink">
    <title>Artboard Copy</title>
    <defs>
        <linearGradient x1="50%" y1="0%" x2="50%" y2="66.6999421%" id="linearGradient-1">
            <stop stop-color="#0D97FA" offset="0%"></stop>
            <stop stop-color="#046C93" offset="100%"></stop>
        </linearGradient>
        <filter x="-4.6%" y="-2.5%" width="109.3%" height="105.9%" filterUnits="objectBoundingBox" id="filter-2">
            <feOffset dx="0" dy="2" in="SourceAlpha" result="shadowOffsetOuter1"></feOffset>
            <feGaussianBlur stdDeviation="2" in="shadowOffsetOuter1" result="shadowBlurOuter1"></feGaussianBlur>
            <feColorMatrix values="0 0 0 0 0.0842131662   0 0 0 0 0.467122956   0 0 0 0 0.587466033  0 0 0 1 0" type="matrix" in="shadowBlurOuter1" result="shadowMatrixOuter1"></feColorMatrix>
            <feMerge>
                <feMergeNode in="shadowMatrixOuter1"></feMergeNode>
                <feMergeNode in="SourceGraphic"></feMergeNode>
            </feMerge>
        </filter>
        <filter x="-1.6%" y="-2.1%" width="103.1%" height="104.2%" filterUnits="objectBoundingBox" id="filter-3">
            <feOffset dx="0" dy="2" in="SourceAlpha" result="shadowOffsetOuter1"></feOffset>
            <feGaussianBlur stdDeviation="2" in="shadowOffsetOuter1" result="shadowBlurOuter1"></feGaussianBlur>
            <feColorMatrix values="0 0 0 0 0.0842131662   0 0 0 0 0.467122956   0 0 0 0 0.587466033  0 0 0 1 0" type="matrix" in="shadowBlurOuter1" result="shadowMatrixOuter1"></feColorMatrix>
            <feMerge>
                <feMergeNode in="shadowMatrixOuter1"></feMergeNode>
                <feMergeNode in="SourceGraphic"></feMergeNode>
            </feMerge>
        </filter>
        <filter x="-2.1%" y="-2.6%" width="104.4%" height="105.1%" filterUnits="objectBoundingBox" id="filter-4">
            <feOffset dx="0" dy="2" in="SourceAlpha" result="shadowOffsetOuter1"></feOffset>
            <feGaussianBlur stdDeviation="2" in="shadowOffsetOuter1" result="shadowBlurOuter1"></feGaussianBlur>
            <feColorMatrix values="0 0 0 0 0.0842131662   0 0 0 0 0.467122956   0 0 0 0 0.587466033  0 0 0 1 0" type="matrix" in="shadowBlurOuter1" result="shadowMatrixOuter1"></feColorMatrix>
            <feMerge>
                <feMergeNode in="shadowMatrixOuter1"></feMergeNode>
                <feMergeNode in="SourceGraphic"></feMergeNode>
            </feMerge>
        </filter>
    </defs>
    <g id="Artboard-Copy" stroke="none" stroke-width="1" fill="none" fill-rule="evenodd">
        <rect id="Rectangle" fill="url(#linearGradient-1)" x="-4.54747351e-13" y="2.27373675e-13" width="3840" height="1800"></rect>
        <g id="Group" transform="translate(2650.000000, 615.000000)" fill="#FFFFFF">
            <g id="LogoV" transform="translate(107.000000, 0.000000)">
                <path d="M95.815435,198.159669 C88.4949497,193.758481 83.1825849,190.289778 79.8783405,187.75356 C69.8864216,180.084127 59.6773809,171.391869 50.4152374,158.837655 C29.5974148,130.620494 24.3023078,112.918229 23.2994941,108.046988 C22.2966803,103.175747 17.4190182,69.2843967 33.0905586,46.0452807 C35.937267,41.8239352 40.4650824,36.6246995 46.6740048,30.4475738 C52.2751123,24.8751503 63.7549479,14.725959 81.1135116,-4.82689369e-14 C63.2886759,6.47476938 49.4986419,13.7380922 39.7434097,21.7899684 C25.1105613,33.8677827 11.7895657,47.8392764 3.52975678,74.8387772 C0.228405986,85.6301677 -2.40129679,104.902575 3.52975678,125.713919 C9.46081034,146.525263 34.2858498,188.989179 54.6822608,215.447223 C68.2798681,233.085919 81.9909262,250.168779 95.815435,266.695803 C108.415757,248.788134 124.172104,226.3951 143.084475,199.516701 C161.996846,172.638302 180.909217,145.759903 199.821588,118.881505 L95.815435,198.159669 Z" id="Path-9"></path>
                <path d="M9.99107939,75.2014409 C23.3204502,67.8701771 33.1213199,64.2045451 39.3936885,64.2045451 C48.8022412,64.2045451 41.373103,75.2014409 51.200131,75.2014409 C61.0271589,75.2014409 64.326828,64.2045451 76.3916228,64.2045451 C84.4348193,64.2045451 92.274543,67.8701771 99.9107939,75.2014409 C95.9533568,71.9794915 88.1136331,71.9794915 76.3916228,75.2014409 C58.8086073,80.0343651 59.9981683,88.8986009 50.0781529,88.8986009 C40.1581375,88.8986009 41.5855392,77.4273496 35.0710381,75.2014409 C30.7280373,73.7175018 22.3680511,73.7175018 9.99107939,75.2014409 Z" id="Path-10"></path>
            </g>
            <text id="Wind.-Wave.-Weather" font-family="Avenir-MediumOblique, Avenir" font-size="40" font-style="italic" font-weight="400" letter-spacing="1.11111111">
                <tspan x="0.184444444" y="366">Wind. Wave. Weather</tspan>
            </text>
        </g>
        <g id="Group-5" transform="translate(426.000000, 271.000000)" stroke="#FFFFFF">
            <g id="Kite" filter="url(#filter-2)">
                <path d="M26.810545,2.66772098 L254.177869,22.3806986 C216.768753,70.4131858 191.765719,119.044425 179.132683,168.25739 C166.359844,218.014969 159.05506,282.815995 157.24651,362.665059 L157.24651,362.665059 L27.0047969,355.545849 C4.91943475,257.912775 -2.26080278,180.095901 5.55000739,122.095455 C13.1918008,65.3500698 20.2709082,25.5388915 26.810545,2.66772098 L26.810545,2.66772098 Z" id="Rectangle" stroke-width="5" fill="#046285"></path>
                <path d="M190.55,287.813953 C174.210589,254.566402 160.320173,217.974671 148.87875,178.03876 C137.437327,138.102848 130.361077,101.511117 127.65,68.2635659" id="Line" stroke-width="3" stroke-linecap="round"></path>
                <path d="M190.55,461.24031 C163.611581,424.600281 142.70665,391.217386 127.835207,361.091625 C112.963765,330.965864 106.169662,314.534806 107.4529,311.79845" id="Line" stroke-width="3" stroke-linecap="round"></path>
                <path d="M190.55,394.821705 C169.454195,362.579561 152.421948,329.323629 139.45326,295.053907 C126.484572,260.784186 117.616819,226.39154 112.85,191.875969" id="Line" stroke-width="3" stroke-linecap="round"></path>
                <line x1="197.025" y1="476" x2="197.025" y2="287.813953" id="Path-7" stroke-width="7" stroke-linecap="round"></line>
            </g>
            <g id="SURFER" filter="url(#filter-3)" transform="translate(97.000000, 414.000000)">
                <path d="M88.2646608,405.813472 C89.7104214,426.354101 93.3205534,443.936098 99.0950568,458.559464 C107.756812,480.494513 107.756812,488.216712 124.22992,499.657666 C135.211993,507.28497 158.495733,511.721097 194.081142,512.96605 L199.380145,503.664364 C191.080805,498.810043 184.59202,495.622071 179.913791,494.100446 C173.274752,491.941055 163.775188,482.74668 160.488609,481.405916 C152.811323,478.273958 144.594738,484.133316 141.172902,481.405916 C133.231284,475.075991 130.232771,456.543873 132.177364,425.809563 L111.876525,421.373204 L88.2646608,405.813472 Z" id="Path-11" stroke-width="2.5"></path>
                <path d="M127.15508,226.386068 L147.524712,176.539703 L198.556266,169.338817 C210.82933,174.551679 219.04939,178.35009 223.216445,180.734049 C227.383501,183.118009 231.166924,186.186753 234.566716,189.940283 C223.168832,185.595499 215.854164,183.839956 212.622711,184.673654 C209.391258,185.507352 206.470373,187.262895 203.860056,189.940283 L217.583953,199.175198 C220.536447,205.547484 220.536447,214.849945 217.583953,227.08258 C215.95587,233.827982 213.728981,240.167087 210.870387,246.467994 C209.320119,249.885091 206.983342,254.925016 203.860056,261.587768 C204.296873,269.876901 203.611144,275.43791 201.80287,278.270796 C199.994597,281.103683 195.202426,280.794368 187.426358,277.342852 L172.006235,261.587768 L162.644122,274.843204 L140.150038,257.058704 L155.385199,244.943679 L127.15508,226.386068 Z" id="Path-13" stroke-width="2.5"></path>
                <path d="M127.15508,225.743612 L147.524712,176.298475 L174.243535,172.558621 C178.266646,171.005153 180.987852,169.580677 182.407152,168.285195 C183.826453,166.989712 186.550337,167.27983 190.578806,169.155551 L184.536103,171.117963 L198.556266,169.155551 C210.82933,174.326453 219.04939,178.094289 223.216445,180.459059 C227.383501,182.823829 231.166924,185.867873 234.566716,189.591189 C229.787635,189.001686 226.474165,188.652064 224.626306,188.542322 C221.702454,188.368678 221.124767,190.897433 219.465904,191.321966 C217.877025,191.728589 214.763905,190.473199 213.325192,191.321966 C212.723343,191.677026 216.095001,196.727668 215.186972,197.47233 C214.794996,197.793784 211.019357,195.166737 203.860056,189.591189 C197.461556,190.306191 193.034473,190.883116 190.578806,191.321966 C186.367606,192.074546 187.295412,202.490403 185.028006,203.455637 C180.777321,205.265153 176.198471,205.265153 171.291456,203.455637 L166.40621,225.743612 L156.48185,228.643662 L146.396487,217.490023 L140.150038,256.169354 L135.357534,246.769842 L127.15508,225.743612 Z" id="Path-13" stroke-width="3" fill="#046285"></path>
                <path d="M345.537185,524.984096 C332.723264,524.991385 317.678538,531.317661 299.470063,529.197022 C287.33108,527.783263 276.248453,523.497694 266.222181,516.340314 L258.367027,508.355801 L239.483052,403.495042 C234.151213,423.562623 231.021313,443.577213 229.361649,459.47573 C227.701984,475.374246 232.765355,492.30969 244.55176,510.28206 L193.271162,495.831483 L146.733095,490.714875 C116.029505,479.581322 95.3083531,464.226482 84.5696384,444.650356 C81.5554474,439.155641 71.7168902,430.018395 68.1470289,416.257552 C66.7589091,410.906728 66.7643869,401.310915 68.1634625,387.470112 C63.7777726,341.622181 63.7937725,313.59446 68.2114622,303.386946 C72.629152,293.179433 80.3289659,280.510581 91.310904,265.380389 C84.0074986,251.17476 81.8014851,238.978374 84.6928638,228.791232 C89.0299317,213.51052 97.4223518,195.127081 97.4247337,190.954714 C97.4271155,186.782347 88.8256504,189.25083 79.3174438,173.211279 C69.8092372,157.171728 77.7778685,144.627506 74.9283481,129.803695 C73.9282337,124.600887 72.3233625,119.616557 70.1137346,114.850704 C69.4859297,113.496618 55.2118411,113.879151 51.1518831,105.664621 C48.9662675,101.242457 39.9411739,98.4249422 38.1336778,84.4925032 C37.6815197,81.0072032 39.3727484,72.9897916 43.207364,60.4402684 C65.5745277,70.079394 79.4304908,78.0879617 84.7752533,84.4659717 C90.6885003,91.5223653 81.6230799,106.465214 86.4120502,112.099039 C99.3518411,127.321629 107.637855,137.788419 112.369531,142.625131 C124.62256,155.150155 140.574518,178.937314 142.120488,183.053154 C144.835337,190.280908 145.867832,195.397123 145.88082,201.128707 C145.889526,204.971174 145.440027,209.090211 144.732041,214.30745 C144.037718,219.424003 143.094789,225.596779 142.091632,233.60075 C138.53978,261.940204 130.605015,280.500922 132.333224,282.573359 C136.011515,286.9843 142.41201,293.906363 151.534709,303.339549 C167.045544,318.867484 177.155524,329.211619 181.864652,334.371953 C191.735557,345.188643 192.322225,366.42593 199.723147,375.425767 C211.613526,389.884972 224.988778,399.918578 239.848905,405.526583 C256.417672,403.735005 265.230949,401.811988 266.288734,399.757532 C290.322669,353.078247 301.498729,343.998351 352.221162,319.141802 C386.036117,302.57077 423.915604,286.415711 465.859623,270.676627 C474.598505,263.820099 483.435159,260.389293 492.369586,260.384211 C501.304014,260.379129 512.265299,263.798672 525.253442,270.642841 L703.091745,265.032384 L750.439783,265.005451 L805.545263,262.419325 C820.359868,260.686039 830.166806,260.68046 834.966077,262.402589 C839.765349,264.124718 845.929009,267.54699 853.457058,272.669406 C844.651871,278.42708 835.113917,285.552365 824.843198,294.04526 C809.437118,306.784604 801.944632,313.837346 782.126397,315.246435 C753.807945,317.259896 727.459785,306.260649 703.081917,282.248695 C699.62455,291.961472 694.92889,297.259024 688.994937,298.141351 C683.060984,299.023677 675.447871,295.556331 666.155598,287.739312 C664.742913,288.697674 658.473422,293.80374 647.347126,303.057511 C630.657681,316.938168 600.327278,337.868235 579.191166,341.007628 C550.637881,345.248709 524.25611,336.715131 500.045853,315.406894 C485.783555,323.765383 475.340174,330.032679 468.715708,334.208781 C454.549784,343.139062 441.413634,352.062955 429.307258,360.98046 C408.708856,376.153156 395.805045,389.055276 390.595824,399.686821 C387.413717,405.394517 385.821174,410.857859 385.818194,416.076848 C385.815215,421.295838 387.401898,426.097527 390.578244,430.481917 L449.63664,473.816043 C474.94328,482.350783 491.71303,487.916754 499.945891,490.513954 C514.611758,495.140558 523.19385,496.02338 525.123423,498.402242 C528.677779,502.784206 532.22719,511.608754 535.771654,524.875883 C540.895509,545.717603 545.009829,560.990994 548.114613,570.696056 C551.219396,580.401117 555.71172,590.242068 561.591585,600.218909 L541.157866,609.14879 C531.186713,597.610072 523.939665,591.052072 519.416722,589.47479 C484.096457,577.157589 463.394786,579.155038 457.829396,570.747413 C451.194991,560.724829 453.825008,542.551302 465.719448,516.226832" id="Path-8" stroke-width="2.5" fill="#046B92" transform="translate(445.759599, 334.794529) rotate(9.000000) translate(-445.759599, -334.794529) "></path>
                <path d="M219.896949,478.350918 C216.671922,470.368118 214.397064,463.983604 213.072377,459.197378 C211.747689,454.411152 210.270153,446.736545 208.639769,436.173558 C213.157417,419.141641 216.909811,406.444422 219.896949,398.081902 C222.884088,389.719382 226.759793,380.661813 231.524066,370.909195 L257.231277,370.909195 C270.009888,354.196919 279.170835,343.062546 284.714119,337.506076 C290.257403,331.949606 297.478362,327.006864 306.376997,322.677851 L404.070434,372.108771 C390.883241,379.909062 382.810312,385.877462 379.851645,390.01397 C376.892979,394.150477 376.892979,403.747081 379.851645,418.803782 L406.795717,452.964513 L379.851645,512.96605 L309.942251,507.345274 C297.762583,508.016043 288.441653,508.016043 281.97946,507.345274 C275.517267,506.674505 269.036498,505.034305 262.537152,502.424674 C254.454326,498.468467 248.021866,494.518365 243.239773,490.574369 C238.45768,486.630372 234.552445,482.054534 231.524066,476.846855 L219.896949,478.350918 Z" id="Path-9" stroke-width="3.5" fill="#046285"></path>
                <path d="M260.493662,446.457553 C264.864452,448.722107 269.770258,450.922352 275.211079,453.058289 C280.651901,455.194226 296.117268,452.99398 321.607179,446.457553" id="Path-10" stroke-width="3" stroke-linecap="round"></path>
                <path d="M101.228134,331.915142 C103.554719,351.118303 107.489641,361.982522 113.032899,364.507799 C118.576158,367.033076 135.629716,377.106717 164.193575,394.728722" id="Path-10" stroke-width="2.5" stroke-linecap="round"></path>
                <path d="M193.824371,514.31731 C195.197722,509.599428 196.988591,506.421334 199.19698,504.783028 C201.405368,503.144722 207.742881,501.621296 218.209517,500.212751 L238.541537,488.949093 C240.619138,494.119845 240.619138,498.347882 238.541537,501.633201 C236.463935,504.918521 232.189613,507.449487 225.71857,509.2261 C223.756581,513.20374 225.862755,517.006751 232.03709,520.635135 C238.211425,524.263519 246.301249,526.452244 256.306564,527.201312 L269.753286,527.201312 C264.868922,536.826135 258.008614,542.406982 249.172364,543.943851 C240.336113,545.48072 230.015164,542.88817 218.209517,536.166202 L193.824371,514.31731 Z" id="Path-12" stroke-width="2.5"></path>
                <line x1="379.851645" y1="512.96605" x2="438.024096" y2="516.660966" id="Path-3" stroke-width="3"></line>
            </g>
            <g id="SURFBOARD" filter="url(#filter-4)" transform="translate(363.000000, 750.000000)">
                <path d="M350.20116,665.892489 C428.949233,550.062935 464.795363,420.927574 457.739553,278.486407 C450.683742,136.045239 429.396996,22.903825 393.879315,-60.9378358 L320.023717,-59.7728897 C271.027833,80.6609945 247.337861,194.905691 248.953802,282.961199 C251.577935,425.954834 285.327054,553.598598 350.20116,665.892489 Z" id="Oval" stroke-width="4" fill="#046285" transform="translate(353.743141, 302.477327) scale(1, -1) rotate(-53.000000) translate(-353.743141, -302.477327) "></path>
                <line x1="138.850347" y1="472.195122" x2="488.770387" y2="206.585366" id="Line-2" stroke-width="3" stroke-linecap="square"></line>
            </g>
        </g>
    </g>
</svg>