<?xml version="1.0" encoding="UTF-8"?>
<svg width="1200px" height="1024px" viewBox="0 0 1200 1024" version="1.1" xmlns="http://www.w3.org/2000/svg" xmlns:xlink="http://www.w3.org/1999/xlink">
    <title>Artboard Copy 5</title>
    <defs>
        <linearGradient x1="50%" y1="1.99145096%" x2="50%" y2="50%" id="linearGradient-1">
            <stop stop-color="#0566AB" offset="0%"></stop>
            <stop stop-color="#0587B8" offset="100%"></stop>
        </linearGradient>
        <filter x="-16.2%" y="-8.8%" width="132.4%" height="118.4%" filterUnits="objectBoundingBox" id="filter-2">
            <feOffset dx="0" dy="2" in="SourceAlpha" result="shadowOffsetOuter1"></feOffset>
            <feGaussianBlur stdDeviation="2" in="shadowOffsetOuter1" result="shadowBlurOuter1"></feGaussianBlur>
            <feColorMatrix values="0 0 0 0 0.0842131662   0 0 0 0 0.467122956   0 0 0 0 0.587466033  0 0 0 1 0" type="matrix" in="shadowBlurOuter1" result="shadowMatrixOuter1"></feColorMatrix>
            <feMerge>
                <feMergeNode in="shadowMatrixOuter1"></feMergeNode>
                <feMergeNode in="SourceGraphic"></feMergeNode>
            </feMerge>
        </filter>
        <linearGradient x1="50%" y1="60.3171254%" x2="50%" y2="6.74591709%" id="linearGradient-3">
            <stop stop-color="#99E8F8" offset="0%"></stop>
            <stop stop-color="#4EC6F3" offset="100%"></stop>
        </linearGradient>
        <linearGradient x1="50%" y1="31.0396635%" x2="50%" y2="100%" id="linearGradient-4">
            <stop stop-color="#0AAFE0" offset="0%"></stop>
            <stop stop-color="#0A5292" offset="100%"></stop>
        </linearGradient>
        <linearGradient x1="50%" y1="31.0396635%" x2="50%" y2="100%" id="linearGradient-5">
            <stop stop-color="#0AAFE0" offset="0%"></stop>
            <stop stop-color="#0A5292" offset="100%"></stop>
        </linearGradient>
        <linearGradient x1="50%" y1="31.0396635%" x2="50%" y2="100%" id="linearGradient-6">
            <stop stop-color="#0AAFE0" offset="0%"></stop>
            <stop stop-color="#0A5292" offset="100%"></stop>
        </linearGradient>
        <linearGradient x1="50%" y1="31.0396635%" x2="50%" y2="100%" id="linearGradient-7">
            <stop stop-color="#0A86AB" offset="0%"></stop>
            <stop stop-color="#063865" offset="100%"></stop>
        </linearGradient>
        <linearGradient x1="50%" y1="31.0396635%" x2="50%" y2="100%" id="linearGradient-8">
            <stop stop-color="#0AAFE0" offset="0%"></stop>
            <stop stop-color="#0A5292" offset="100%"></stop>
        </linearGradient>
        <linearGradient x1="50%" y1="31.0396635%" x2="50%" y2="100%" id="linearGradient-9">
            <stop stop-color="#0A86AB" offset="0%"></stop>
            <stop stop-color="#063865" offset="100%"></stop>
        </linearGradient>
        <linearGradient x1="50%" y1="31.0396635%" x2="50%" y2="100%" id="linearGradient-10">
            <stop stop-color="#0AAFE0" offset="0%"></stop>
            <stop stop-color="#0A5292" offset="100%"></stop>
        </linearGradient>
        <linearGradient x1="50%" y1="31.0396635%" x2="50%" y2="100%" id="linearGradient-11">
            <stop stop-color="#0A86AB" offset="0%"></stop>
            <stop stop-color="#063865" offset="100%"></stop>
        </linearGradient>
        <linearGradient x1="50%" y1="31.0396635%" x2="50%" y2="100%" id="linearGradient-12">
            <stop stop-color="#0AAFE0" offset="0%"></stop>
            <stop stop-color="#0A5292" offset="100%"></stop>
        </linearGradient>
        <linearGradient x1="50%" y1="31.0396635%" x2="50%" y2="100%" id="linearGradient-13">
            <stop stop-color="#0A86AB" offset="0%"></stop>
            <stop stop-color="#063865" offset="100%"></stop>
        </linearGradient>
        <linearGradient x1="50%" y1="31.0396635%" x2="50%" y2="100%" id="linearGradient-14">
            <stop stop-color="#0AAFE0" offset="0%"></stop>
            <stop stop-color="#0A5292" offset="100%"></stop>
        </linearGradient>
        <linearGradient x1="50%" y1="31.0396635%" x2="50%" y2="100%" id="linearGradient-15">
            <stop stop-color="#0A86AB" offset="0%"></stop>
            <stop stop-color="#063865" offset="100%"></stop>
        </linearGradient>
        <linearGradient x1="50%" y1="31.0396635%" x2="50%" y2="100%" id="linearGradient-16">
            <stop stop-color="#0AAFE0" offset="0%"></stop>
            <stop stop-color="#0A5292" offset="100%"></stop>
        </linearGradient>
        <linearGradient x1="50%" y1="31.0396635%" x2="50%" y2="100%" id="linearGradient-17">
            <stop stop-color="#0A86AB" offset="0%"></stop>
            <stop stop-color="#063865" offset="100%"></stop>
        </linearGradient>
        <linearGradient x1="50%" y1="0%" x2="50%" y2="100%" id="linearGradient-18">
            <stop stop-color="#0AD3FF" offset="0%"></stop>
            <stop stop-color="#0A377A" offset="100%"></stop>
        </linearGradient>
        <linearGradient x1="50%" y1="31.0396635%" x2="50%" y2="100%" id="linearGradient-19">
            <stop stop-color="#0AAFE0" offset="0%"></stop>
            <stop stop-color="#0A5292" offset="100%"></stop>
        </linearGradient>
        <linearGradient x1="50%" y1="31.0396635%" x2="50%" y2="100%" id="linearGradient-20">
            <stop stop-color="#0AAFE0" offset="0%"></stop>
            <stop stop-color="#0A5292" offset="100%"></stop>
        </linearGradient>
        <linearGradient x1="50%" y1="31.0396635%" x2="50%" y2="100%" id="linearGradient-21">
            <stop stop-color="#0AAFE0" offset="0%"></stop>
            <stop stop-color="#0A5292" offset="100%"></stop>
        </linearGradient>
        <linearGradient x1="50%" y1="31.0396635%" x2="50%" y2="100%" id="linearGradient-22">
            <stop stop-color="#0AAFE0" offset="0%"></stop>
            <stop stop-color="#0A5292" offset="100%"></stop>
        </linearGradient>
        <linearGradient x1="50%" y1="31.0396635%" x2="50%" y2="100%" id="linearGradient-23">
            <stop stop-color="#0A86AB" offset="0%"></stop>
            <stop stop-color="#063865" offset="100%"></stop>
        </linearGradient>
        <linearGradient x1="50%" y1="31.0396635%" x2="50%" y2="100%" id="linearGradient-24">
            <stop stop-color="#0AAFE0" offset="0%"></stop>
            <stop stop-color="#0A5292" offset="100%"></stop>
        </linearGradient>
        <linearGradient x1="50%" y1="31.0396635%" x2="50%" y2="100%" id="linearGradient-25">
            <stop stop-color="#0A86AB" offset="0%"></stop>
            <stop stop-color="#063865" offset="100%"></stop>
        </linearGradient>
        <linearGradient x1="50%" y1="31.0396635%" x2="50%" y2="100%" id="linearGradient-26">
            <stop stop-color="#0AAFE0" offset="0%"></stop>
            <stop stop-color="#0A5292" offset="100%"></stop>
        </linearGradient>
        <linearGradient x1="50%" y1="31.0396635%" x2="50%" y2="100%" id="linearGradient-27">
            <stop stop-color="#0A86AB" offset="0%"></stop>
            <stop stop-color="#063865" offset="100%"></stop>
        </linearGradient>
        <linearGradient x1="50%" y1="31.0396635%" x2="50%" y2="100%" id="linearGradient-28">
            <stop stop-color="#0AAFE0" offset="0%"></stop>
            <stop stop-color="#0A5292" offset="100%"></stop>
        </linearGradient>
        <linearGradient x1="50%" y1="31.0396635%" x2="50%" y2="100%" id="linearGradient-29">
            <stop stop-color="#0A86AB" offset="0%"></stop>
            <stop stop-color="#063865" offset="100%"></stop>
        </linearGradient>
        <linearGradient x1="50%" y1="31.0396635%" x2="50%" y2="100%" id="linearGradient-30">
            <stop stop-color="#0AAFE0" offset="0%"></stop>
            <stop stop-color="#0A5292" offset="100%"></stop>
        </linearGradient>
        <linearGradient x1="50%" y1="31.0396635%" x2="50%" y2="100%" id="linearGradient-31">
            <stop stop-color="#0A86AB" offset="0%"></stop>
            <stop stop-color="#063865" offset="100%"></stop>
        </linearGradient>
        <linearGradient x1="50%" y1="31.0396635%" x2="50%" y2="100%" id="linearGradient-32">
            <stop stop-color="#0AAFE0" offset="0%"></stop>
            <stop stop-color="#0A5292" offset="100%"></stop>
        </linearGradient>
        <linearGradient x1="50%" y1="31.0396635%" x2="50%" y2="100%" id="linearGradient-33">
            <stop stop-color="#0A86AB" offset="0%"></stop>
            <stop stop-color="#063865" offset="100%"></stop>
        </linearGradient>
        <linearGradient x1="50%" y1="0%" x2="50%" y2="100%" id="linearGradient-34">
            <stop stop-color="#0AD3FF" offset="0%"></stop>
            <stop stop-color="#0A377A" offset="100%"></stop>
        </linearGradient>
    </defs>
    <g id="Artboard-Copy-5" stroke="none" stroke-width="1" fill="none" fill-rule="evenodd">
        <rect id="Rectangle" fill="url(#linearGradient-1)" x="0" y="0" width="1200" height="1024"></rect>
        <g id="logo_cover_vela" transform="translate(772.000000, 216.000000)" fill="#FFFFFF">
            <g id="LogoV" transform="translate(48.000000, 0.000000)">
                <path d="M23.9538588,50.0304116 C22.1237374,48.9192205 20.7956462,48.0434588 19.9695851,47.4031266 C17.4716054,45.4667846 14.9193452,43.2722045 12.6038094,40.1025763 C7.3993537,32.9784416 6.07557695,28.5090577 5.82487351,27.27919 C5.57417008,26.0493222 4.35475455,17.4925952 8.27263965,11.6252936 C8.98431674,10.5595084 10.1162706,9.24683008 11.6685012,7.68725872 C13.0687781,6.28035973 15.938737,3.71794015 20.2783779,-1.21867118e-14 C15.822169,1.634719 12.3746605,3.46852822 9.93585242,5.50142767 C6.27764032,8.55077683 2.94739143,12.0782331 0.882439194,18.8949388 C0.0571014966,21.6194978 -0.600324197,26.4853036 0.882439194,31.7396528 C2.36520259,36.994002 8.57146244,47.7150897 13.6705652,54.395091 C17.069967,58.8484252 20.4977316,63.1614244 23.9538588,67.3340888 C27.1039393,62.8128456 31.0430259,57.1591589 35.7711187,50.3730285 C40.4992114,43.5868981 45.2273042,36.8007677 49.955397,30.0146373 L23.9538588,50.0304116 Z" id="Path-9"></path>
                <path d="M2.49776985,18.9865024 C5.83011256,17.1355398 8.28032998,16.2100584 9.84842211,16.2100584 C12.2005603,16.2100584 10.3432757,18.9865024 12.8000327,18.9865024 C15.2567897,18.9865024 16.081707,16.2100584 19.0979057,16.2100584 C21.1087048,16.2100584 23.0686357,17.1355398 24.9776985,18.9865024 C23.9883392,18.1730399 22.0284083,18.1730399 19.0979057,18.9865024 C14.7021518,20.2066961 14.9995421,22.4446963 12.5195382,22.4446963 C10.0395344,22.4446963 10.3963848,19.5484893 8.76775952,18.9865024 C7.68200932,18.6118445 5.59201277,18.6118445 2.49776985,18.9865024 Z" id="Path-10"></path>
            </g>
            <text id="Wind.-Wave.-Weather" font-family="Avenir-LightOblique, Avenir" font-size="14" font-style="italic" font-weight="300" letter-spacing="0.388888889">
                <tspan x="0.325555556" y="90">Wind. Wave. Weather</tspan>
            </text>
        </g>
        <g id="surf" transform="translate(165.000000, 455.000000)" stroke="#FFFFFF">
            <g id="kite" filter="url(#filter-2)">
                <path d="M7.50296341,0.533487571 L73.0341893,6.21511141 C62.2311675,20.014081 55.0183392,33.9858116 51.3883229,48.12682 C47.7303331,62.3768009 45.6446111,80.9490962 45.1368473,103.844633 L45.1368473,103.844633 L7.54239134,101.789663 C1.19707881,73.7885515 -0.86502976,51.477254 1.37334774,34.8558163 C3.57763177,18.4875453 5.61924891,7.04637215 7.50296341,0.533487571 L7.50296341,0.533487571 Z" id="Rectangle" fill="#057DAA"></path>
                <path d="M54.4428571,82.2325581 C49.7744541,72.7332578 45.8057637,62.2784774 42.5367857,50.8682171 C39.2678078,39.4579567 37.246022,29.0031763 36.4714286,19.503876" id="Line" stroke-linecap="round"></path>
                <path d="M54.4428571,131.782946 C46.746166,121.314366 40.7733286,111.776396 36.524345,103.169036 C32.2753614,94.5616755 30.3341892,89.8670874 30.7008285,89.0852713" id="Line" stroke-linecap="round"></path>
                <path d="M54.4428571,112.806202 C48.4154843,103.59416 43.5491281,94.0924653 39.8437887,84.3011163 C36.1384492,74.5097673 33.6048054,64.683297 32.2428571,54.8217054" id="Line" stroke-linecap="round"></path>
                <line x1="56.2928571" y1="136" x2="56.2928571" y2="82.2325581" id="Path-7" stroke-linecap="round"></line>
            </g>
            <g id="surfer" transform="translate(28.000000, 119.000000)">
                <path d="M25.133659,115.687124 C25.5453442,121.542736 26.5733414,126.554918 28.2176507,130.723668 C30.6841146,136.976794 30.6841146,139.178197 35.3748876,142.439723 C38.5020697,144.614073 45.1321931,145.878701 55.2652581,146.233605 L56.774167,143.581931 C54.4109018,142.198087 52.5631985,141.289277 51.2310572,140.8555 C49.3405683,140.239913 46.6355357,137.61883 45.6996711,137.236612 C43.5135382,136.34377 41.173838,138.014124 40.1994585,137.236612 C37.9380561,135.432111 37.0842196,130.149074 37.637949,121.387502 L31.8572167,120.122809 L25.133659,115.687124 Z" id="Path-11"></path>
                <path d="M36.2078368,64.536924 L42.008158,50.3269901 L56.5395644,48.2742001 C60.0343607,49.7602548 62.3750504,50.8430853 63.5616335,51.5226917 C64.7482165,52.202298 65.8255591,53.0771192 66.7936612,54.1471553 C63.5480754,52.9085676 61.465199,52.4081068 60.545032,52.645773 C59.6248649,52.8834391 58.7931331,53.3838999 58.0498365,54.1471553 L61.9577625,56.7797953 C62.7984949,58.5963724 62.7984949,61.2482679 61.9577625,64.7354818 C61.4941602,66.6584248 60.8600462,68.4655426 60.0460519,70.2617713 C59.6046079,71.2358991 58.9392028,72.6726538 58.0498365,74.5720353 C58.1742215,76.9350567 57.9789581,78.5203594 57.464046,79.3279434 C56.949134,80.1355274 55.5845473,80.0473497 53.3702858,79.0634102 L48.979354,74.5720353 L46.3134606,78.3508239 L39.9081946,73.2809141 L44.2464581,69.827228 L36.2078368,64.536924 Z" id="Path-13"></path>
                <path d="M36.2078368,64.3537759 L42.008158,50.2582219 L49.6164328,49.1920846 C50.762027,48.7492302 51.5368994,48.3431483 51.94105,47.973839 C52.3452006,47.6045297 53.1208359,47.6872352 54.267956,48.2219555 L52.5472759,48.7813895 L56.5395644,48.2219555 C60.0343607,49.6960485 62.3750504,50.770163 63.5616335,51.444299 C64.7482165,52.1184349 65.8255591,52.9862145 66.7936612,54.0476376 C65.4328018,53.8795851 64.4892801,53.7799167 63.9630962,53.7486321 C63.1305194,53.6991307 62.9660212,54.4200144 62.4936541,54.5410381 C62.0412157,54.656956 61.1547441,54.2990762 60.745066,54.5410381 C60.5736875,54.6422567 61.5337783,56.0820665 61.2752139,56.2943508 C61.1635975,56.3859891 60.0884717,55.6370847 58.0498365,54.0476376 C56.2278421,54.2514663 54.9672153,54.4159331 54.267956,54.5410381 C53.0688027,54.7555795 53.3329983,57.7248762 52.687347,58.0000399 C51.4769502,58.515887 50.1731072,58.515887 48.7758182,58.0000399 L47.3847278,64.3537759 L44.5587332,65.1805068 L41.6868921,62.0008872 L39.9081946,73.0273831 L38.543513,70.3478207 L36.2078368,64.3537759 Z" id="Path-13" fill="#046285"></path>
                <path d="M98.4029038,149.651887 C94.7539966,149.653329 90.4701559,151.456005 85.2849831,150.850574 C81.8282012,150.446953 78.6720859,149.22472 75.8166373,147.183877 L73.5793977,144.907352 L68.1967687,115.013883 C66.6794637,120.73426 65.7891832,126.43964 65.3173642,130.971729 C64.8455453,135.503817 66.2882375,140.331835 69.645441,145.455782 L55.0419977,141.333828 L41.7895068,139.872933 C33.0457622,136.69758 27.1444193,132.319366 24.0854781,126.73829 C23.2268806,125.171768 20.4247874,122.566536 19.4075463,118.643572 C19.011998,117.11815 19.0130815,114.382684 19.410797,110.437172 C18.1596467,97.3671396 18.1628117,89.3773114 19.4202917,86.4676871 C20.6777718,83.5580629 22.8697514,79.9469505 25.9962305,75.6343501 C23.9157986,71.5844059 23.2870062,68.1074873 24.109853,65.2035946 C25.3441233,60.8477554 27.7330466,55.6076273 27.7335177,54.4182157 C27.7339889,53.228804 25.2847477,53.9320646 22.576383,49.359217 C19.8680182,44.7863695 22.1365528,41.2107988 21.324384,36.9848514 C21.0393319,35.5016436 20.5820794,34.0806868 19.9526265,32.7219811 C19.7737848,32.3359423 15.7090969,32.4442819 14.5525705,30.1023743 C13.9299724,28.8416446 11.3598358,28.0380112 10.8444395,24.0662178 C10.7155093,23.0726451 11.1967077,20.7872151 12.2880346,17.209928 C18.657814,19.9588522 22.6038526,22.2425328 24.1261503,24.0609697 C25.810364,26.0728209 23.2296255,30.3321108 24.5936183,31.9383764 C28.2791246,36.278504 30.6391796,39.2626707 31.9868176,40.6417011 C35.4766268,44.212803 40.0203067,50.9945716 40.4607432,52.1679461 C41.2341859,54.2284879 41.5284543,55.6870124 41.5324371,57.3209089 C41.5351073,58.4162767 41.4073117,59.5904634 41.2059637,61.0777005 C41.0085015,62.5362355 40.7402982,64.2958544 40.4550353,66.5774872 C39.4450123,74.656005 37.1864201,79.9466927 37.6786499,80.5375657 C38.7263036,81.7951698 40.5492601,83.7687517 43.1475193,86.4583116 C47.5651742,90.8856113 50.4446182,93.8349032 51.7858513,95.3061873 C54.5972392,98.3901781 54.7653538,104.444295 56.8732962,107.010235 C60.2599325,111.132694 64.0691839,113.993626 68.3010501,115.593031 C73.0191038,115.08313 75.5286877,114.535375 75.8298019,113.949767 C82.6714177,100.644152 85.8534754,98.0563116 100.296024,90.9730027 C109.924389,86.2507968 120.710196,81.6473739 132.653446,77.162734 C135.1416,75.2085856 137.657766,74.2310087 140.201944,74.2300034 C142.746122,74.2289981 145.867641,75.2043473 149.5665,77.156051 L200.207675,75.5655124 L213.690559,75.5601848 L229.382335,74.8256963 C233.600873,74.3323258 236.393509,74.3312224 237.760241,74.8223858 C239.126973,75.3135493 240.882314,76.2894383 243.026265,77.7500529 C240.519175,79.390949 237.803489,81.4216719 234.879208,83.8422217 C230.492786,87.4730463 228.359567,89.483191 222.716172,89.8838948 C214.652275,90.4564639 207.148794,87.3196139 200.205731,80.4733449 C199.221689,83.2419831 197.88481,84.7519168 196.195094,85.003146 C194.505378,85.2543751 192.337287,84.265565 189.69082,82.0367156 C189.288589,82.3098445 187.503535,83.7651136 184.335656,86.4025227 C179.583839,90.3586364 170.947955,96.32364 164.929366,97.2175337 C156.798708,98.4251164 149.285779,95.99115 142.390579,89.9156345 C138.329644,92.2976712 135.356085,94.0837633 133.469901,95.2739108 C129.436439,97.8189522 125.696216,100.362224 122.249232,102.903725 C116.384359,107.227965 112.710494,110.905316 111.227638,113.93578 C110.32178,115.562707 109.868557,117.120057 109.867968,118.607828 C109.867378,120.095599 110.319442,121.464489 111.22416,122.7145 L128.043852,135.070639 C135.250626,137.504883 140.026277,139.0924 142.370805,139.833189 C146.547305,141.152818 148.991196,141.404909 149.540782,142.083144 C150.553142,143.332482 151.564314,145.848261 152.574299,149.630482 C154.034409,155.57206 155.206766,159.926231 156.09137,162.692996 C156.975973,165.45976 158.255701,168.265331 159.930554,171.109709 L154.112266,173.654325 C151.272296,170.364502 149.208292,168.494661 147.920255,168.044803 C137.861802,164.5318 131.966868,165.100182 130.381643,162.703155 C128.491924,159.845699 129.239949,154.665124 132.625718,147.16143" id="Path-8" fill="#0584B7" transform="translate(126.925135, 95.432127) rotate(9.000000) translate(-126.925135, -95.432127) "></path>
                <path d="M62.6163958,136.365709 C61.6980585,134.090016 61.0502851,132.269953 60.6730759,130.905521 C60.2958667,129.54109 59.8751334,127.353254 59.410876,124.342014 C60.6972915,119.486647 61.7657981,115.866992 62.6163958,113.48305 C63.4669935,111.099108 64.5706138,108.517024 65.9272565,105.7368 L73.2474714,105.7368 C76.8862237,100.972555 79.4948342,97.7984272 81.073303,96.2144186 C82.6517717,94.63041 84.7079641,93.2213598 87.2418804,91.987268 L115.060415,106.078769 C111.305318,108.302434 109.006524,110.003873 108.164034,111.183087 C107.321543,112.3623 107.321543,115.098049 108.164034,119.390332 L115.836449,129.12869 L108.164034,146.233605 L88.2570984,144.631265 C84.7888969,144.822484 82.1347306,144.822484 80.2945995,144.631265 C78.4544684,144.440045 76.6090476,143.972466 74.7583371,143.228527 C72.456725,142.100712 70.6250604,140.974639 69.2633434,139.850305 C67.9016264,138.725972 66.7895975,137.421516 65.9272565,135.936939 L62.6163958,136.365709 Z" id="Path-9" fill="#046285"></path>
                <path d="M74.1764464,127.27372 C75.4210434,127.919287 76.8179881,128.546521 78.3672805,129.155423 C79.9165728,129.764324 84.3203879,129.13709 91.5787258,127.27372" id="Path-10" stroke-linecap="round"></path>
                <path d="M28.8250516,94.6205853 C29.4875545,100.094919 30.6080367,103.192032 32.1864982,103.911925 C33.7649597,104.631817 38.6210179,107.503557 46.7546728,112.527143" id="Path-10" stroke-linecap="round"></path>
                <path d="M55.1921416,146.618815 C55.5832077,145.273867 56.0931638,144.367873 56.7220099,143.900833 C57.350856,143.433794 59.155484,142.999504 62.1358939,142.597963 L67.9255048,139.38698 C68.5171089,140.861031 68.5171089,142.066336 67.9255048,143.002898 C67.3339008,143.939459 66.1167731,144.660973 64.2741219,145.167441 C63.715439,146.301365 64.315179,147.385507 66.0733417,148.419867 C67.8315044,149.454227 70.1351092,150.078177 72.984156,150.291717 L76.8131554,150.291717 C75.4223163,153.03551 73.4688207,154.626468 70.9526687,155.06459 C68.4365166,155.502713 65.4975917,154.763643 62.1358939,152.84738 L55.1921416,146.618815 Z" id="Path-12"></path>
                <line x1="108.164034" y1="146.233605" x2="124.728834" y2="147.286932" id="Path-3"></line>
            </g>
            <g id="surfboard" transform="translate(103.000000, 214.000000)">
                <path d="M100.446461,191.079881 C123.149953,157.840284 133.559367,120.833164 131.674703,80.0585181 C129.79004,39.2838727 123.794332,6.91180713 113.68758,-17.0576786 L92.4997945,-16.6518668 C78.307108,23.6029422 71.399454,56.3349012 71.7768322,81.5440103 C72.3896581,122.481167 81.9462012,158.993124 100.446461,191.079881 Z" id="Oval" fill="#057DAA" transform="translate(101.826781, 87.011101) scale(1, -1) rotate(-53.000000) translate(-101.826781, -87.011101) "></path>
                <line x1="40.4696286" y1="135.804878" x2="140.395252" y2="59.4146341" id="Line-2" stroke-width="3" stroke-linecap="square"></line>
            </g>
        </g>
        <g id="ocean" transform="translate(-420.000000, 782.000000)">
            <rect id="Rectangle" stroke="#979797" fill="url(#linearGradient-3)" x="420" y="21" width="1200" height="222"></rect>
            <g id="Group-4-Copy">
                <path d="M1232,78.095523 C1273.58373,50.6985077 1312.60164,37 1349.05374,37 C1403.73188,37 1500.22586,76.6054451 1548.5,76.6054451 C1596.77414,76.6054451 1666.20255,56.2853357 1710.23118,51.6945835 C1739.5836,48.6340821 1791.17321,64.9190428 1865,100.549466 C1790.06339,74.1845424 1738.47379,67.218054 1710.23118,79.6500002 C1667.86727,98.2979196 1586.16429,107.486821 1548.5,112.600763 C1510.83571,117.714706 1402.4194,72.1093408 1365.17709,66.6686056 C1340.34887,63.0414488 1295.95651,66.8504212 1232,78.095523 Z" id="Path-6" fill="url(#linearGradient-4)"></path>
                <path d="M380,137.147487 C421.583729,113.715829 460.601642,102 497.053737,102 C551.73188,102 648.225861,135.873078 696.5,135.873078 C744.774139,135.873078 814.202552,118.494037 858.231182,114.567736 C887.583602,111.950202 939.173208,125.878129 1013,156.351517 C938.063393,133.802569 886.473787,127.844388 858.231182,138.476974 C815.867274,154.425852 734.164288,162.284781 696.5,166.658548 C658.835712,171.032314 550.419404,132.027726 513.177086,127.374465 C488.348873,124.272292 443.956511,127.529966 380,137.147487 Z" id="Path-6" fill="url(#linearGradient-5)"></path>
                <g id="wave" transform="translate(681.000000, 3.000000)">
                    <path d="M0,27.452159 C44.5399187,9.15071966 86.3316163,-4.76811573e-15 125.375093,-4.76811573e-15 C183.940307,-4.76811573e-15 287.29405,26.4567743 339,26.4567743 C390.70595,26.4567743 465.070031,12.8827683 512.228659,9.81610682 C543.667744,7.77166583 598.924858,18.6501581 678,42.4515837 C597.736146,24.8395907 542.479032,20.1859171 512.228659,28.490563 C466.853099,40.9475318 379.341844,47.085796 339,50.5019531 C298.658156,53.9181102 182.534528,23.4533384 142.644651,19.818881 C116.0514,17.3959093 68.5031827,19.9403353 0,27.452159 Z" id="Path-6" fill="url(#linearGradient-6)"></path>
                    <path d="M0,27.5051814 C44.5399187,16.6194213 86.3316163,11.1765413 125.375093,11.1765413 C183.940307,11.1765413 287.29405,35.0475233 339,35.0475233 C390.70595,35.0475233 465.070031,18.8392569 512.228659,17.0151959 C543.667744,15.7991553 598.924858,24.2779512 678,42.4515837 C597.746653,26.3773144 542.489539,21.6010624 512.228659,28.1228277 C466.837338,37.9054758 379.341844,48.7367044 339,50.7686466 C298.658156,52.8005887 182.534528,25.1266689 142.644651,22.964881 C116.0514,21.523689 68.5031827,23.0371225 0,27.5051814 Z" id="Path-6" fill="url(#linearGradient-7)"></path>
                </g>
                <g id="wave" transform="translate(834.000000, 19.000000)">
                    <path d="M0,27.452159 C44.5399187,9.15071966 86.3316163,-4.76811573e-15 125.375093,-4.76811573e-15 C183.940307,-4.76811573e-15 287.29405,26.4567743 339,26.4567743 C390.70595,26.4567743 465.070031,12.8827683 512.228659,9.81610682 C543.667744,7.77166583 598.924858,18.6501581 678,42.4515837 C597.736146,24.8395907 542.479032,20.1859171 512.228659,28.490563 C466.853099,40.9475318 379.341844,47.085796 339,50.5019531 C298.658156,53.9181102 182.534528,23.4533384 142.644651,19.818881 C116.0514,17.3959093 68.5031827,19.9403353 0,27.452159 Z" id="Path-6" fill="url(#linearGradient-6)"></path>
                    <path d="M0,27.5051814 C44.5399187,16.6194213 86.3316163,11.1765413 125.375093,11.1765413 C183.940307,11.1765413 287.29405,35.0475233 339,35.0475233 C390.70595,35.0475233 465.070031,18.8392569 512.228659,17.0151959 C543.667744,15.7991553 598.924858,24.2779512 678,42.4515837 C597.746653,26.3773144 542.489539,21.6010624 512.228659,28.1228277 C466.837338,37.9054758 379.341844,48.7367044 339,50.7686466 C298.658156,52.8005887 182.534528,25.1266689 142.644651,22.964881 C116.0514,21.523689 68.5031827,23.0371225 0,27.5051814 Z" id="Path-6" fill="url(#linearGradient-7)"></path>
                </g>
                <g id="wave" transform="translate(532.000000, 84.000000)">
                    <path d="M0,27.452159 C44.5399187,9.15071966 86.3316163,-4.76811573e-15 125.375093,-4.76811573e-15 C183.940307,-4.76811573e-15 287.29405,26.4567743 339,26.4567743 C390.70595,26.4567743 465.070031,12.8827683 512.228659,9.81610682 C543.667744,7.77166583 598.924858,18.6501581 678,42.4515837 C597.736146,24.8395907 542.479032,20.1859171 512.228659,28.490563 C466.853099,40.9475318 379.341844,47.085796 339,50.5019531 C298.658156,53.9181102 182.534528,23.4533384 142.644651,19.818881 C116.0514,17.3959093 68.5031827,19.9403353 0,27.452159 Z" id="Path-6" fill="url(#linearGradient-6)"></path>
                    <path d="M0,27.5051814 C44.5399187,16.6194213 86.3316163,11.1765413 125.375093,11.1765413 C183.940307,11.1765413 287.29405,35.0475233 339,35.0475233 C390.70595,35.0475233 465.070031,18.8392569 512.228659,17.0151959 C543.667744,15.7991553 598.924858,24.2779512 678,42.4515837 C597.746653,26.3773144 542.489539,21.6010624 512.228659,28.1228277 C466.837338,37.9054758 379.341844,48.7367044 339,50.7686466 C298.658156,52.8005887 182.534528,25.1266689 142.644651,22.964881 C116.0514,21.523689 68.5031827,23.0371225 0,27.5051814 Z" id="Path-6" fill="url(#linearGradient-7)"></path>
                </g>
                <g id="wave" transform="translate(429.000000, 53.000000)">
                    <path d="M0,27.452159 C41.5837294,9.15071966 80.6016418,-4.76811573e-15 117.053737,-4.76811573e-15 C171.73188,-4.76811573e-15 268.225861,26.4567743 316.5,26.4567743 C364.774139,26.4567743 434.202552,12.8827683 478.231182,9.81610682 C507.583602,7.77166583 559.173208,18.6501581 633,42.4515837 C558.063393,24.8395907 506.473787,20.1859171 478.231182,28.490563 C435.867274,40.9475318 354.164288,47.085796 316.5,50.5019531 C278.835712,53.9181102 170.419404,23.4533384 133.177086,19.818881 C108.348873,17.3959093 63.9565113,19.9403353 0,27.452159 Z" id="Path-6" fill="url(#linearGradient-8)"></path>
                    <path d="M0,27.5051814 C41.5837294,16.6194213 80.6016418,11.1765413 117.053737,11.1765413 C171.73188,11.1765413 268.225861,35.0475233 316.5,35.0475233 C364.774139,35.0475233 434.202552,18.8392569 478.231182,17.0151959 C507.583602,15.7991553 559.173208,24.2779512 633,42.4515837 C558.073203,26.3773144 506.483596,21.6010624 478.231182,28.1228277 C435.852559,37.9054758 354.164288,48.7367044 316.5,50.7686466 C278.835712,52.8005887 170.419404,25.1266689 133.177086,22.964881 C108.348873,21.523689 63.9565113,23.0371225 0,27.5051814 Z" id="Path-6" fill="url(#linearGradient-9)"></path>
                </g>
                <g id="wave" transform="translate(856.000000, 101.000000)">
                    <path d="M0,27.452159 C41.5837294,9.15071966 80.6016418,-4.76811573e-15 117.053737,-4.76811573e-15 C171.73188,-4.76811573e-15 268.225861,26.4567743 316.5,26.4567743 C364.774139,26.4567743 434.202552,12.8827683 478.231182,9.81610682 C507.583602,7.77166583 559.173208,18.6501581 633,42.4515837 C558.063393,24.8395907 506.473787,20.1859171 478.231182,28.490563 C435.867274,40.9475318 354.164288,47.085796 316.5,50.5019531 C278.835712,53.9181102 170.419404,23.4533384 133.177086,19.818881 C108.348873,17.3959093 63.9565113,19.9403353 0,27.452159 Z" id="Path-6" fill="url(#linearGradient-8)"></path>
                    <path d="M0,27.5051814 C41.5837294,16.6194213 80.6016418,11.1765413 117.053737,11.1765413 C171.73188,11.1765413 268.225861,35.0475233 316.5,35.0475233 C364.774139,35.0475233 434.202552,18.8392569 478.231182,17.0151959 C507.583602,15.7991553 559.173208,24.2779512 633,42.4515837 C558.073203,26.3773144 506.483596,21.6010624 478.231182,28.1228277 C435.852559,37.9054758 354.164288,48.7367044 316.5,50.7686466 C278.835712,52.8005887 170.419404,25.1266689 133.177086,22.964881 C108.348873,21.523689 63.9565113,23.0371225 0,27.5051814 Z" id="Path-6" fill="url(#linearGradient-9)"></path>
                </g>
                <g id="wave" transform="translate(703.000000, 158.000000)">
                    <path d="M0,43.6004878 C41.5837294,14.5334959 80.6016418,-7.57288968e-15 117.053737,-7.57288968e-15 C171.73188,-7.57288968e-15 268.225861,42.0195826 316.5,42.0195826 C364.774139,42.0195826 434.202552,20.4608673 478.231182,15.5902873 C507.583602,12.343234 559.173208,29.6208394 633,67.4231035 C558.063393,39.4511146 506.473787,32.059986 478.231182,45.2497177 C435.867274,65.0343152 354.164288,74.7833231 316.5,80.2089844 C278.835712,85.6346456 170.419404,37.2494198 133.177086,31.4770462 C108.348873,27.6287972 63.9565113,31.6699444 0,43.6004878 Z" id="Path-6" fill="url(#linearGradient-10)"></path>
                    <path d="M0,43.6846999 C41.5837294,26.3955515 80.6016418,17.7509774 117.053737,17.7509774 C171.73188,17.7509774 268.225861,55.6637134 316.5,55.6637134 C364.774139,55.6637134 434.202552,29.9211727 478.231182,27.0241347 C507.583602,25.0927761 559.173208,38.559099 633,67.4231035 C558.073203,41.8933816 506.483596,34.3075697 478.231182,44.6656676 C435.852559,60.2028145 354.164288,77.405354 316.5,80.6325563 C278.835712,83.8597586 170.419404,39.9070624 133.177086,36.4736345 C108.348873,34.1846825 63.9565113,36.588371 0,43.6846999 Z" id="Path-6" fill="url(#linearGradient-11)"></path>
                </g>
                <g id="wave" transform="translate(429.000000, 240.000000)">
                    <path d="M0,51.1363746 C41.5837294,17.0454582 80.6016418,-8.8817842e-15 117.053737,-8.8817842e-15 C171.73188,-8.8817842e-15 268.225861,49.2822266 316.5,49.2822266 C364.774139,49.2822266 434.202552,23.9973135 478.231182,18.2849049 C507.583602,14.4766324 559.173208,34.7404906 633,79.0764794 C558.063393,46.2698258 506.473787,37.6012182 478.231182,53.0706566 C435.867274,76.2748141 354.164288,87.7088357 316.5,94.0722656 C278.835712,100.435696 170.419404,43.6875911 133.177086,36.9175233 C108.348873,32.4041448 63.9565113,37.1437619 0,51.1363746 Z" id="Path-6" fill="url(#linearGradient-12)"></path>
                    <path d="M0,51.2351418 C41.5837294,30.9577456 80.6016418,20.8190475 117.053737,20.8190475 C171.73188,20.8190475 268.225861,65.2846022 316.5,65.2846022 C364.774139,65.2846022 434.202552,35.0927335 478.231182,31.6949728 C507.583602,29.4297991 559.173208,45.2236346 633,79.0764794 C558.073203,49.134213 506.483596,40.2372731 478.231182,52.3856595 C435.852559,70.6082392 354.164288,90.7840572 316.5,94.5690475 C278.835712,98.3540379 170.419404,46.8045794 133.177086,42.7777194 C108.348873,40.0931461 63.9565113,42.9122869 0,51.2351418 Z" id="Path-6" fill="url(#linearGradient-13)"></path>
                </g>
                <g id="wave" transform="translate(464.000000, 162.000000)">
                    <path d="M0,51.1363746 C41.5837294,17.0454582 80.6016418,-8.8817842e-15 117.053737,-8.8817842e-15 C171.73188,-8.8817842e-15 268.225861,49.2822266 316.5,49.2822266 C364.774139,49.2822266 434.202552,23.9973135 478.231182,18.2849049 C507.583602,14.4766324 559.173208,34.7404906 633,79.0764794 C558.063393,46.2698258 506.473787,37.6012182 478.231182,53.0706566 C435.867274,76.2748141 354.164288,87.7088357 316.5,94.0722656 C278.835712,100.435696 170.419404,43.6875911 133.177086,36.9175233 C108.348873,32.4041448 63.9565113,37.1437619 0,51.1363746 Z" id="Path-6" fill="url(#linearGradient-12)"></path>
                    <path d="M0,51.2351418 C41.5837294,30.9577456 80.6016418,20.8190475 117.053737,20.8190475 C171.73188,20.8190475 268.225861,65.2846022 316.5,65.2846022 C364.774139,65.2846022 434.202552,35.0927335 478.231182,31.6949728 C507.583602,29.4297991 559.173208,45.2236346 633,79.0764794 C558.073203,49.134213 506.483596,40.2372731 478.231182,52.3856595 C435.852559,70.6082392 354.164288,90.7840572 316.5,94.5690475 C278.835712,98.3540379 170.419404,46.8045794 133.177086,42.7777194 C108.348873,40.0931461 63.9565113,42.9122869 0,51.2351418 Z" id="Path-6" fill="url(#linearGradient-13)"></path>
                </g>
                <g id="wave" transform="translate(893.000000, 132.000000)">
                    <path d="M0,50.5980969 C41.5837294,16.8660323 80.6016418,-8.78829173e-15 117.053737,-8.78829173e-15 C171.73188,-8.78829173e-15 268.225861,48.7634663 316.5,48.7634663 C364.774139,48.7634663 434.202552,23.7447102 478.231182,18.0924322 C507.583602,14.3242468 559.173208,34.3748012 633,78.2440954 C558.063393,45.782775 506.473787,37.2054159 478.231182,52.5120181 C435.867274,75.4719214 354.164288,86.7855848 316.5,93.0820313 C278.835712,99.3784777 170.419404,43.2277217 133.177086,36.5289178 C108.348873,32.0630486 63.9565113,36.7527749 0,50.5980969 Z" id="Path-6" fill="url(#linearGradient-14)"></path>
                    <path d="M0,50.6958245 C41.5837294,30.6318746 80.6016418,20.5998996 117.053737,20.5998996 C171.73188,20.5998996 268.225861,64.5973958 316.5,64.5973958 C364.774139,64.5973958 434.202552,34.7233363 478.231182,31.3613415 C507.583602,29.1200117 559.173208,44.7475963 633,78.2440954 C558.073203,48.6170108 506.483596,39.8137228 478.231182,51.8342315 C435.852559,69.8649946 354.164288,89.8284355 316.5,93.5735839 C278.835712,97.3187322 170.419404,46.3118996 133.177086,42.3274276 C108.348873,39.671113 63.9565113,42.4605786 0,50.6958245 Z" id="Path-6" fill="url(#linearGradient-15)"></path>
                </g>
                <g id="wave" transform="translate(1173.000000, 75.000000)">
                    <path d="M0,50.5980969 C41.5837294,16.8660323 80.6016418,-8.78829173e-15 117.053737,-8.78829173e-15 C171.73188,-8.78829173e-15 268.225861,48.7634663 316.5,48.7634663 C364.774139,48.7634663 434.202552,23.7447102 478.231182,18.0924322 C507.583602,14.3242468 559.173208,34.3748012 633,78.2440954 C558.063393,45.782775 506.473787,37.2054159 478.231182,52.5120181 C435.867274,75.4719214 354.164288,86.7855848 316.5,93.0820313 C278.835712,99.3784777 170.419404,43.2277217 133.177086,36.5289178 C108.348873,32.0630486 63.9565113,36.7527749 0,50.5980969 Z" id="Path-6" fill="url(#linearGradient-14)"></path>
                    <path d="M0,50.6958245 C41.5837294,30.6318746 80.6016418,20.5998996 117.053737,20.5998996 C171.73188,20.5998996 268.225861,64.5973958 316.5,64.5973958 C364.774139,64.5973958 434.202552,34.7233363 478.231182,31.3613415 C507.583602,29.1200117 559.173208,44.7475963 633,78.2440954 C558.073203,48.6170108 506.483596,39.8137228 478.231182,51.8342315 C435.852559,69.8649946 354.164288,89.8284355 316.5,93.5735839 C278.835712,97.3187322 170.419404,46.3118996 133.177086,42.3274276 C108.348873,39.671113 63.9565113,42.4605786 0,50.6958245 Z" id="Path-6" fill="url(#linearGradient-15)"></path>
                </g>
                <g id="wave" transform="translate(1275.000000, 183.000000)">
                    <path d="M0,50.5980969 C41.5837294,16.8660323 80.6016418,-8.78829173e-15 117.053737,-8.78829173e-15 C171.73188,-8.78829173e-15 268.225861,48.7634663 316.5,48.7634663 C364.774139,48.7634663 434.202552,23.7447102 478.231182,18.0924322 C507.583602,14.3242468 559.173208,34.3748012 633,78.2440954 C558.063393,45.782775 506.473787,37.2054159 478.231182,52.5120181 C435.867274,75.4719214 354.164288,86.7855848 316.5,93.0820313 C278.835712,99.3784777 170.419404,43.2277217 133.177086,36.5289178 C108.348873,32.0630486 63.9565113,36.7527749 0,50.5980969 Z" id="Path-6" fill="url(#linearGradient-14)"></path>
                    <path d="M0,50.6958245 C41.5837294,30.6318746 80.6016418,20.5998996 117.053737,20.5998996 C171.73188,20.5998996 268.225861,64.5973958 316.5,64.5973958 C364.774139,64.5973958 434.202552,34.7233363 478.231182,31.3613415 C507.583602,29.1200117 559.173208,44.7475963 633,78.2440954 C558.073203,48.6170108 506.483596,39.8137228 478.231182,51.8342315 C435.852559,69.8649946 354.164288,89.8284355 316.5,93.5735839 C278.835712,97.3187322 170.419404,46.3118996 133.177086,42.3274276 C108.348873,39.671113 63.9565113,42.4605786 0,50.6958245 Z" id="Path-6" fill="url(#linearGradient-15)"></path>
                </g>
                <g id="Group" transform="translate(1377.000000, 132.000000)">
                    <g id="wave-copy-4" transform="translate(316.500000, 47.000000) scale(-1, 1) translate(-316.500000, -47.000000) ">
                        <path d="M0,50.5980969 C41.5837294,16.8660323 80.6016418,-8.78829173e-15 117.053737,-8.78829173e-15 C171.73188,-8.78829173e-15 268.225861,48.7634663 316.5,48.7634663 C364.774139,48.7634663 434.202552,23.7447102 478.231182,18.0924322 C507.583602,14.3242468 559.173208,34.3748012 633,78.2440954 C558.063393,45.782775 506.473787,37.2054159 478.231182,52.5120181 C435.867274,75.4719214 354.164288,86.7855848 316.5,93.0820313 C278.835712,99.3784777 170.419404,43.2277217 133.177086,36.5289178 C108.348873,32.0630486 63.9565113,36.7527749 0,50.5980969 Z" id="Path-6" fill="url(#linearGradient-14)"></path>
                        <path d="M0,50.6958245 C41.5837294,30.6318746 80.6016418,20.5998996 117.053737,20.5998996 C171.73188,20.5998996 268.225861,64.5973958 316.5,64.5973958 C364.774139,64.5973958 434.202552,34.7233363 478.231182,31.3613415 C507.583602,29.1200117 559.173208,44.7475963 633,78.2440954 C558.073203,48.6170108 506.483596,39.8137228 478.231182,51.8342315 C435.852559,69.8649946 354.164288,89.8284355 316.5,93.5735839 C278.835712,97.3187322 170.419404,46.3118996 133.177086,42.3274276 C108.348873,39.671113 63.9565113,42.4605786 0,50.6958245 Z" id="Path-6" fill="url(#linearGradient-15)"></path>
                    </g>
                </g>
                <g id="wave" transform="translate(194.000000, 132.000000)">
                    <path d="M0,59.7488166 C41.5837294,19.9162722 80.6016418,-1.03776636e-14 117.053737,-1.03776636e-14 C171.73188,-1.03776636e-14 268.225861,57.582391 316.5,57.582391 C364.774139,57.582391 434.202552,28.0389663 478.231182,21.3644678 C507.583602,16.9148021 559.173208,40.5915206 633,92.3946233 C558.063393,54.0626386 506.473787,43.9340549 478.231182,62.0088724 C435.867274,89.1210986 354.164288,102.48085 316.5,109.916016 C278.835712,117.351181 170.419404,51.0455012 133.177086,43.1352115 C108.348873,37.861685 63.9565113,43.3995534 0,59.7488166 Z" id="Path-6" fill="url(#linearGradient-16)"></path>
                    <path d="M0,59.8642183 C41.5837294,36.1716817 80.6016418,24.3254134 117.053737,24.3254134 C171.73188,24.3254134 268.225861,76.2799036 316.5,76.2799036 C364.774139,76.2799036 434.202552,41.0030886 478.231182,37.0330735 C507.583602,34.3863968 559.173208,52.8402467 633,92.3946233 C558.073203,57.4094489 506.483596,47.0140769 478.231182,61.2085075 C435.852559,82.5001532 354.164288,106.074004 316.5,110.496466 C278.835712,114.918928 170.419404,54.6874559 133.177086,49.982388 C108.348873,46.845676 63.9565113,50.1396195 0,59.8642183 Z" id="Path-6" fill="url(#linearGradient-17)"></path>
                </g>
                <g id="wave" transform="translate(0.000000, 184.000000)">
                    <path d="M0,59.7488166 C41.5837294,19.9162722 80.6016418,-1.03776636e-14 117.053737,-1.03776636e-14 C171.73188,-1.03776636e-14 268.225861,57.582391 316.5,57.582391 C364.774139,57.582391 434.202552,28.0389663 478.231182,21.3644678 C507.583602,16.9148021 559.173208,40.5915206 633,92.3946233 C558.063393,54.0626386 506.473787,43.9340549 478.231182,62.0088724 C435.867274,89.1210986 354.164288,102.48085 316.5,109.916016 C278.835712,117.351181 170.419404,51.0455012 133.177086,43.1352115 C108.348873,37.861685 63.9565113,43.3995534 0,59.7488166 Z" id="Path-6" fill="url(#linearGradient-16)"></path>
                    <path d="M0,59.8642183 C41.5837294,36.1716817 80.6016418,24.3254134 117.053737,24.3254134 C171.73188,24.3254134 268.225861,76.2799036 316.5,76.2799036 C364.774139,76.2799036 434.202552,41.0030886 478.231182,37.0330735 C507.583602,34.3863968 559.173208,52.8402467 633,92.3946233 C558.073203,57.4094489 506.483596,47.0140769 478.231182,61.2085075 C435.852559,82.5001532 354.164288,106.074004 316.5,110.496466 C278.835712,114.918928 170.419404,54.6874559 133.177086,49.982388 C108.348873,46.845676 63.9565113,50.1396195 0,59.8642183 Z" id="Path-6" fill="url(#linearGradient-17)"></path>
                </g>
                <path d="M1210,35.3127724 C1228.72712,26.1771095 1244.98072,20.239007 1258.76081,17.4984649 C1290.77007,11.1325576 1336.6572,9.27756045 1363.66021,10.6484761 C1430.3207,14.0327621 1414.35636,23.4998037 1530.41015,23.4998037 C1572.81603,23.4998037 1631.19588,15.1576412 1679.3055,13.4451911 C1711.37858,12.3035578 1751.94531,7.82182741 1801.00569,0 L1806,25.6476438 C1692.80716,39.9435841 1600.94387,47.0610362 1530.41015,47 C1424.60957,46.9076606 1407.54274,30.7678922 1347.41729,25.249109 C1307.33365,21.5699202 1280.19402,21.7027651 1265.99841,25.6476438 L1210,35.3127724 Z" id="Path-5" fill="url(#linearGradient-18)"></path>
            </g>
            <g id="Group-4-Copy-2" transform="translate(13.000000, 7.000000)">
                <path d="M322,90.9550672 C360.758926,73.6516891 397.126333,65 431.102219,65 C482.066049,65 572.005147,90.0139653 617,90.0139653 C661.994853,90.0139653 726.70696,77.180212 767.744703,74.2807896 C795.103199,72.3478413 843.188298,82.6330797 912,105.136505 C842.153873,88.4849742 794.068775,84.0850867 767.744703,91.9368423 C728.258596,103.714476 652.105735,109.517992 617,112.747851 C581.894265,115.977709 480.842731,87.1743205 446.130301,83.7380667 C422.988681,81.4472308 381.611914,83.8528976 322,90.9550672 Z" id="Path-6" fill="url(#linearGradient-19)"></path>
                <path d="M345,59.9550672 C383.758926,42.6516891 420.126333,34 454.102219,34 C505.066049,34 595.005147,59.0139653 640,59.0139653 C684.994853,59.0139653 749.70696,46.180212 790.744703,43.2807896 C818.103199,41.3478413 866.188298,51.6330797 935,74.1365046 C865.153873,57.4849742 817.068775,53.0850867 790.744703,60.9368423 C751.258596,72.7144756 675.105735,78.5179922 640,81.7478506 C604.894265,84.977709 503.842731,56.1743205 469.130301,52.7380667 C445.988681,50.4472308 404.611914,52.8528976 345,59.9550672 Z" id="Path-6-Copy-2" fill="url(#linearGradient-19)"></path>
                <path d="M222,25.9550672 C260.758926,8.65168905 297.126333,0 331.102219,0 C382.066049,0 472.005147,25.0139653 517,25.0139653 C561.994853,25.0139653 626.70696,12.180212 667.744703,9.28078961 C695.103199,7.34784134 743.188298,17.6330797 812,40.1365046 C742.153873,23.4849742 694.068775,19.0850867 667.744703,26.9368423 C628.258596,38.7144756 552.105735,44.5179922 517,47.7478506 C481.894265,50.977709 380.842731,22.1743205 346.130301,18.7380667 C322.988681,16.4472308 281.611914,18.8528976 222,25.9550672 Z" id="Path-6-Copy-3" fill="url(#linearGradient-19)"></path>
                <path d="M869,105.955067 C907.758926,88.6516891 944.126333,80 978.102219,80 C1029.06605,80 1119.00515,105.013965 1164,105.013965 C1208.99485,105.013965 1273.70696,92.180212 1314.7447,89.2807896 C1342.1032,87.3478413 1390.1883,97.6330797 1459,120.136505 C1389.15387,103.484974 1341.06877,99.0850867 1314.7447,106.936842 C1275.2586,118.714476 1199.10573,124.517992 1164,127.747851 C1128.89427,130.977709 1027.84273,102.174321 993.130301,98.7380667 C969.988681,96.4472308 928.611914,98.8528976 869,105.955067 Z" id="Path-6" fill="url(#linearGradient-19)"></path>
                <path d="M798,256.39187 C836.758926,230.79729 873.126333,218 907.102219,218 C958.066049,218 1048.00515,254.999824 1093,254.999824 C1137.99485,254.999824 1202.70696,236.016564 1243.7447,231.727835 C1271.1032,228.868682 1319.1883,244.082264 1388,277.36858 C1318.15387,252.738191 1270.06877,246.230024 1243.7447,257.844079 C1204.2586,275.265162 1128.10573,283.84953 1093,288.627029 C1057.89427,293.404528 956.842731,250.799516 922.130301,245.716724 C898.988681,242.328196 857.611914,245.886578 798,256.39187 Z" id="Path-6" fill="url(#linearGradient-20)"></path>
                <path d="M265,154.39187 C303.758926,128.79729 340.126333,116 374.102219,116 C425.066049,116 515.005147,152.999824 560,152.999824 C604.994853,152.999824 669.70696,134.016564 710.744703,129.727835 C738.103199,126.868682 786.188298,142.082264 855,175.36858 C785.153873,150.738191 737.068775,144.230024 710.744703,155.844079 C671.258596,173.265162 595.105735,181.84953 560,186.627029 C524.894265,191.404528 423.842731,148.799516 389.130301,143.716724 C365.988681,140.328196 324.611914,143.886578 265,154.39187 Z" id="Path-6" fill="url(#linearGradient-20)"></path>
                <path d="M1148,103.39187 C1186.75893,77.7972901 1223.12633,65 1257.10222,65 C1308.06605,65 1398.00515,101.999824 1443,101.999824 C1487.99485,101.999824 1552.70696,83.0165636 1593.7447,78.7278346 C1621.1032,75.868682 1669.1883,91.0822637 1738,124.36858 C1668.15387,99.738191 1620.06877,93.2300241 1593.7447,104.844079 C1554.2586,122.265162 1478.10573,130.84953 1443,135.627029 C1407.89427,140.404528 1306.84273,97.7995158 1272.1303,92.7167237 C1248.98868,89.3281956 1207.61191,92.8865777 1148,103.39187 Z" id="Path-6" fill="url(#linearGradient-20)"></path>
                <path d="M354,158.984565 C392.758926,136.994855 429.126333,126 463.102219,126 C514.066049,126 604.005147,157.788581 649,157.788581 C693.994853,157.788581 758.70696,141.479019 799.744703,137.794337 C827.103199,135.337882 875.188298,148.408705 944,177.006808 C874.153873,155.845488 826.068775,150.253964 799.744703,160.232237 C760.258596,175.199646 684.105735,182.574948 649,186.67956 C613.894265,190.784172 512.842731,154.179866 478.130301,149.81296 C454.988681,146.901689 413.611914,149.958891 354,158.984565 Z" id="Path-6" fill="url(#linearGradient-21)"></path>
                <g id="wave" transform="translate(634.000000, 34.000000)">
                    <path d="M0,25.8373261 C41.5180363,8.61244203 80.474309,-4.48763833e-15 116.868818,-4.48763833e-15 C171.460582,-4.48763833e-15 267.802123,24.9004934 316,24.9004934 C364.197877,24.9004934 433.516608,12.1249584 477.475682,9.23868877 C506.781732,7.31450902 558.289838,17.55309 632,39.9544317 C557.181776,23.3784383 505.67367,18.9985102 477.475682,26.8146475 C435.1787,38.5388535 353.604787,44.3160433 316,47.53125 C278.395213,50.7464567 170.150179,22.0737302 132.966695,18.6530644 C108.177706,16.3726206 63.8554742,18.7673744 0,25.8373261 Z" id="Path-6" fill="url(#linearGradient-22)"></path>
                    <path d="M0,25.8872296 C41.5180363,15.6418083 80.474309,10.5190977 116.868818,10.5190977 C171.460582,10.5190977 267.802123,32.9859042 316,32.9859042 C364.197877,32.9859042 433.516608,17.7310653 477.475682,16.0143021 C506.781732,14.8697932 558.289838,22.8498364 632,39.9544317 C557.19157,24.8257076 505.683464,20.3304117 477.475682,26.4685438 C435.164009,35.6757419 353.604787,45.8698394 316,47.7822556 C278.395213,49.6946718 170.150179,23.6486296 132.966695,21.6140056 C108.177706,20.2575896 63.8554742,21.6819976 0,25.8872296 Z" id="Path-6" fill="url(#linearGradient-23)"></path>
                </g>
                <g id="wave" transform="translate(777.000000, 48.000000)">
                    <path d="M0,25.8373261 C41.5180363,8.61244203 80.474309,-4.48763833e-15 116.868818,-4.48763833e-15 C171.460582,-4.48763833e-15 267.802123,24.9004934 316,24.9004934 C364.197877,24.9004934 433.516608,12.1249584 477.475682,9.23868877 C506.781732,7.31450902 558.289838,17.55309 632,39.9544317 C557.181776,23.3784383 505.67367,18.9985102 477.475682,26.8146475 C435.1787,38.5388535 353.604787,44.3160433 316,47.53125 C278.395213,50.7464567 170.150179,22.0737302 132.966695,18.6530644 C108.177706,16.3726206 63.8554742,18.7673744 0,25.8373261 Z" id="Path-6" fill="url(#linearGradient-22)"></path>
                    <path d="M0,25.8872296 C41.5180363,15.6418083 80.474309,10.5190977 116.868818,10.5190977 C171.460582,10.5190977 267.802123,32.9859042 316,32.9859042 C364.197877,32.9859042 433.516608,17.7310653 477.475682,16.0143021 C506.781732,14.8697932 558.289838,22.8498364 632,39.9544317 C557.19157,24.8257076 505.683464,20.3304117 477.475682,26.4685438 C435.164009,35.6757419 353.604787,45.8698394 316,47.7822556 C278.395213,49.6946718 170.150179,23.6486296 132.966695,21.6140056 C108.177706,20.2575896 63.8554742,21.6819976 0,25.8872296 Z" id="Path-6" fill="url(#linearGradient-23)"></path>
                </g>
                <g id="wave" transform="translate(496.000000, 109.000000)">
                    <path d="M0,25.8373261 C41.5180363,8.61244203 80.474309,-4.48763833e-15 116.868818,-4.48763833e-15 C171.460582,-4.48763833e-15 267.802123,24.9004934 316,24.9004934 C364.197877,24.9004934 433.516608,12.1249584 477.475682,9.23868877 C506.781732,7.31450902 558.289838,17.55309 632,39.9544317 C557.181776,23.3784383 505.67367,18.9985102 477.475682,26.8146475 C435.1787,38.5388535 353.604787,44.3160433 316,47.53125 C278.395213,50.7464567 170.150179,22.0737302 132.966695,18.6530644 C108.177706,16.3726206 63.8554742,18.7673744 0,25.8373261 Z" id="Path-6" fill="url(#linearGradient-22)"></path>
                    <path d="M0,25.8872296 C41.5180363,15.6418083 80.474309,10.5190977 116.868818,10.5190977 C171.460582,10.5190977 267.802123,32.9859042 316,32.9859042 C364.197877,32.9859042 433.516608,17.7310653 477.475682,16.0143021 C506.781732,14.8697932 558.289838,22.8498364 632,39.9544317 C557.19157,24.8257076 505.683464,20.3304117 477.475682,26.4685438 C435.164009,35.6757419 353.604787,45.8698394 316,47.7822556 C278.395213,49.6946718 170.150179,23.6486296 132.966695,21.6140056 C108.177706,20.2575896 63.8554742,21.6819976 0,25.8872296 Z" id="Path-6" fill="url(#linearGradient-23)"></path>
                </g>
                <g id="wave" transform="translate(400.000000, 80.000000)">
                    <path d="M0,25.8373261 C38.7589263,8.61244203 75.1263328,-4.48763833e-15 109.102219,-4.48763833e-15 C160.066049,-4.48763833e-15 250.005147,24.9004934 295,24.9004934 C339.994853,24.9004934 404.70696,12.1249584 445.744703,9.23868877 C473.103199,7.31450902 521.188298,17.55309 590,39.9544317 C520.153873,23.3784383 472.068775,18.9985102 445.744703,26.8146475 C406.258596,38.5388535 330.105735,44.3160433 295,47.53125 C259.894265,50.7464567 158.842731,22.0737302 124.130301,18.6530644 C100.988681,16.3726206 59.6119142,18.7673744 0,25.8373261 Z" id="Path-6" fill="url(#linearGradient-24)"></path>
                    <path d="M0,25.8872296 C38.7589263,15.6418083 75.1263328,10.5190977 109.102219,10.5190977 C160.066049,10.5190977 250.005147,32.9859042 295,32.9859042 C339.994853,32.9859042 404.70696,17.7310653 445.744703,16.0143021 C473.103199,14.8697932 521.188298,22.8498364 590,39.9544317 C520.163017,24.8257076 472.077918,20.3304117 445.744703,26.4685438 C406.244882,35.6757419 330.105735,45.8698394 295,47.7822556 C259.894265,49.6946718 158.842731,23.6486296 124.130301,21.6140056 C100.988681,20.2575896 59.6119142,21.6819976 0,25.8872296 Z" id="Path-6" fill="url(#linearGradient-25)"></path>
                </g>
                <g id="wave" transform="translate(798.000000, 125.000000)">
                    <path d="M0,25.8373261 C38.7589263,8.61244203 75.1263328,-4.48763833e-15 109.102219,-4.48763833e-15 C160.066049,-4.48763833e-15 250.005147,24.9004934 295,24.9004934 C339.994853,24.9004934 404.70696,12.1249584 445.744703,9.23868877 C473.103199,7.31450902 521.188298,17.55309 590,39.9544317 C520.153873,23.3784383 472.068775,18.9985102 445.744703,26.8146475 C406.258596,38.5388535 330.105735,44.3160433 295,47.53125 C259.894265,50.7464567 158.842731,22.0737302 124.130301,18.6530644 C100.988681,16.3726206 59.6119142,18.7673744 0,25.8373261 Z" id="Path-6" fill="url(#linearGradient-24)"></path>
                    <path d="M0,25.8872296 C38.7589263,15.6418083 75.1263328,10.5190977 109.102219,10.5190977 C160.066049,10.5190977 250.005147,32.9859042 295,32.9859042 C339.994853,32.9859042 404.70696,17.7310653 445.744703,16.0143021 C473.103199,14.8697932 521.188298,22.8498364 590,39.9544317 C520.163017,24.8257076 472.077918,20.3304117 445.744703,26.4685438 C406.244882,35.6757419 330.105735,45.8698394 295,47.7822556 C259.894265,49.6946718 158.842731,23.6486296 124.130301,21.6140056 C100.988681,20.2575896 59.6119142,21.6819976 0,25.8872296 Z" id="Path-6" fill="url(#linearGradient-25)"></path>
                </g>
                <g id="wave" transform="translate(655.000000, 178.000000)">
                    <path d="M0,40.370822 C38.7589263,13.4569407 75.1263328,-7.01193489e-15 109.102219,-7.01193489e-15 C160.066049,-7.01193489e-15 250.005147,38.907021 295,38.907021 C339.994853,38.907021 404.70696,18.9452475 445.744703,14.4354512 C473.103199,11.4289203 521.188298,27.4267031 590,62.4287995 C520.153873,36.5288098 472.068775,29.6851722 445.744703,41.8978868 C406.258596,60.2169585 330.105735,69.2438177 295,74.2675781 C259.894265,79.2913386 158.842731,34.4902035 124.130301,29.1454132 C100.988681,25.5822196 59.6119142,29.3240226 0,40.370822 Z" id="Path-6" fill="url(#linearGradient-26)"></path>
                    <path d="M0,40.4487962 C38.7589263,24.4403255 75.1263328,16.4360901 109.102219,16.4360901 C160.066049,16.4360901 250.005147,51.5404754 295,51.5404754 C339.994853,51.5404754 404.70696,27.7047896 445.744703,25.022347 C473.103199,23.2340519 521.188298,35.7028694 590,62.4287995 C520.163017,38.7901682 472.077918,31.7662682 445.744703,41.3570996 C406.244882,55.7433468 330.105735,71.6716241 295,74.6597744 C259.894265,77.6479246 158.842731,36.9509837 124.130301,33.7718838 C100.988681,31.6524838 59.6119142,33.8781213 0,40.4487962 Z" id="Path-6" fill="url(#linearGradient-27)"></path>
                </g>
                <g id="wave-copy-6" transform="translate(432.000000, 182.000000)">
                    <path d="M0,47.9067088 C38.7589263,15.9689029 75.1263328,-8.32082941e-15 109.102219,-8.32082941e-15 C160.066049,-8.32082941e-15 250.005147,46.1696649 295,46.1696649 C339.994853,46.1696649 404.70696,22.4816937 445.744703,17.1300688 C473.103199,13.5623188 521.188298,32.5463544 590,74.0821754 C520.153873,43.347521 472.068775,35.2264044 445.744703,49.7188256 C406.258596,71.4574575 330.105735,82.1693303 295,88.1308594 C259.894265,94.0923884 158.842731,40.9283748 124.130301,34.5858903 C100.988681,30.3575673 59.6119142,34.7978401 0,47.9067088 Z" id="Path-6" fill="url(#linearGradient-28)"></path>
                    <path d="M0,47.9992381 C38.7589263,29.0025196 75.1263328,19.5041603 109.102219,19.5041603 C160.066049,19.5041603 250.005147,61.1613641 295,61.1613641 C339.994853,61.1613641 404.70696,32.8763503 445.744703,29.6931851 C473.103199,27.5710749 521.188298,42.367405 590,74.0821754 C520.163017,46.0309996 472.077918,37.6959716 445.744703,49.0770916 C406.244882,66.1487715 330.105735,85.0503272 295,88.5962656 C259.894265,92.1422039 158.842731,43.8485007 124.130301,40.0759687 C100.988681,37.5609474 59.6119142,40.2020372 0,47.9992381 Z" id="Path-6" fill="url(#linearGradient-29)"></path>
                </g>
                <g id="wave" transform="translate(832.000000, 154.000000)">
                    <path d="M0,47.3684312 C38.7589263,15.7894771 75.1263328,-8.22733694e-15 109.102219,-8.22733694e-15 C160.066049,-8.22733694e-15 250.005147,45.6509046 295,45.6509046 C339.994853,45.6509046 404.70696,22.2290904 445.744703,16.9375961 C473.103199,13.4099332 521.188298,32.180665 590,73.2497914 C520.153873,42.8604702 472.068775,34.8306021 445.744703,49.1601871 C406.258596,70.6545647 330.105735,81.2460794 295,87.140625 C259.894265,93.0351706 158.842731,40.4685054 124.130301,34.1972848 C100.988681,30.016471 59.6119142,34.4068531 0,47.3684312 Z" id="Path-6" fill="url(#linearGradient-30)"></path>
                    <path d="M0,47.4599209 C38.7589263,28.6766486 75.1263328,19.2850124 109.102219,19.2850124 C160.066049,19.2850124 250.005147,60.4741578 295,60.4741578 C339.994853,60.4741578 404.70696,32.5069531 445.744703,29.3595538 C473.103199,27.2612876 521.188298,41.8913668 590,73.2497914 C520.163017,45.5137973 472.077918,37.2724214 445.744703,48.5256636 C406.244882,65.4055269 330.105735,84.0947056 295,87.6008019 C259.894265,91.1068982 158.842731,43.3558209 124.130301,39.6256769 C100.988681,37.1389143 59.6119142,39.7503289 0,47.4599209 Z" id="Path-6" fill="url(#linearGradient-31)"></path>
                </g>
                <g id="wave" transform="translate(1081.000000, 94.000000)">
                    <path d="M0,47.3684312 C38.7589263,15.7894771 75.1263328,-8.22733694e-15 109.102219,-8.22733694e-15 C160.066049,-8.22733694e-15 250.005147,45.6509046 295,45.6509046 C339.994853,45.6509046 404.70696,22.2290904 445.744703,16.9375961 C473.103199,13.4099332 521.188298,32.180665 590,73.2497914 C520.153873,42.8604702 472.068775,34.8306021 445.744703,49.1601871 C406.258596,70.6545647 330.105735,81.2460794 295,87.140625 C259.894265,93.0351706 158.842731,40.4685054 124.130301,34.1972848 C100.988681,30.016471 59.6119142,34.4068531 0,47.3684312 Z" id="Path-6" fill="url(#linearGradient-30)"></path>
                    <path d="M0,47.4599209 C38.7589263,28.6766486 75.1263328,19.2850124 109.102219,19.2850124 C160.066049,19.2850124 250.005147,60.4741578 295,60.4741578 C339.994853,60.4741578 404.70696,32.5069531 445.744703,29.3595538 C473.103199,27.2612876 521.188298,41.8913668 590,73.2497914 C520.163017,45.5137973 472.077918,37.2724214 445.744703,48.5256636 C406.244882,65.4055269 330.105735,84.0947056 295,87.6008019 C259.894265,91.1068982 158.842731,43.3558209 124.130301,39.6256769 C100.988681,37.1389143 59.6119142,39.7503289 0,47.4599209 Z" id="Path-6" fill="url(#linearGradient-31)"></path>
                </g>
                <g id="wave" transform="translate(1114.000000, 80.000000)">
                    <path d="M0,47.3684312 C38.7589263,15.7894771 75.1263328,-8.22733694e-15 109.102219,-8.22733694e-15 C160.066049,-8.22733694e-15 250.005147,45.6509046 295,45.6509046 C339.994853,45.6509046 404.70696,22.2290904 445.744703,16.9375961 C473.103199,13.4099332 521.188298,32.180665 590,73.2497914 C520.153873,42.8604702 472.068775,34.8306021 445.744703,49.1601871 C406.258596,70.6545647 330.105735,81.2460794 295,87.140625 C259.894265,93.0351706 158.842731,40.4685054 124.130301,34.1972848 C100.988681,30.016471 59.6119142,34.4068531 0,47.3684312 Z" id="Path-6" fill="url(#linearGradient-30)"></path>
                    <path d="M0,47.4599209 C38.7589263,28.6766486 75.1263328,19.2850124 109.102219,19.2850124 C160.066049,19.2850124 250.005147,60.4741578 295,60.4741578 C339.994853,60.4741578 404.70696,32.5069531 445.744703,29.3595538 C473.103199,27.2612876 521.188298,41.8913668 590,73.2497914 C520.163017,45.5137973 472.077918,37.2724214 445.744703,48.5256636 C406.244882,65.4055269 330.105735,84.0947056 295,87.6008019 C259.894265,91.1068982 158.842731,43.3558209 124.130301,39.6256769 C100.988681,37.1389143 59.6119142,39.7503289 0,47.4599209 Z" id="Path-6" fill="url(#linearGradient-31)"></path>
                </g>
                <g id="wave" transform="translate(912.000000, 48.000000)">
                    <path d="M0,47.3684312 C38.7589263,15.7894771 75.1263328,-8.22733694e-15 109.102219,-8.22733694e-15 C160.066049,-8.22733694e-15 250.005147,45.6509046 295,45.6509046 C339.994853,45.6509046 404.70696,22.2290904 445.744703,16.9375961 C473.103199,13.4099332 521.188298,32.180665 590,73.2497914 C520.153873,42.8604702 472.068775,34.8306021 445.744703,49.1601871 C406.258596,70.6545647 330.105735,81.2460794 295,87.140625 C259.894265,93.0351706 158.842731,40.4685054 124.130301,34.1972848 C100.988681,30.016471 59.6119142,34.4068531 0,47.3684312 Z" id="Path-6" fill="url(#linearGradient-30)"></path>
                    <path d="M0,47.4599209 C38.7589263,28.6766486 75.1263328,19.2850124 109.102219,19.2850124 C160.066049,19.2850124 250.005147,60.4741578 295,60.4741578 C339.994853,60.4741578 404.70696,32.5069531 445.744703,29.3595538 C473.103199,27.2612876 521.188298,41.8913668 590,73.2497914 C520.163017,45.5137973 472.077918,37.2724214 445.744703,48.5256636 C406.244882,65.4055269 330.105735,84.0947056 295,87.6008019 C259.894265,91.1068982 158.842731,43.3558209 124.130301,39.6256769 C100.988681,37.1389143 59.6119142,39.7503289 0,47.4599209 Z" id="Path-6" fill="url(#linearGradient-31)"></path>
                </g>
                <g id="wave" transform="translate(1188.000000, 201.000000)">
                    <path d="M0,47.3684312 C38.7589263,15.7894771 75.1263328,-8.22733694e-15 109.102219,-8.22733694e-15 C160.066049,-8.22733694e-15 250.005147,45.6509046 295,45.6509046 C339.994853,45.6509046 404.70696,22.2290904 445.744703,16.9375961 C473.103199,13.4099332 521.188298,32.180665 590,73.2497914 C520.153873,42.8604702 472.068775,34.8306021 445.744703,49.1601871 C406.258596,70.6545647 330.105735,81.2460794 295,87.140625 C259.894265,93.0351706 158.842731,40.4685054 124.130301,34.1972848 C100.988681,30.016471 59.6119142,34.4068531 0,47.3684312 Z" id="Path-6" fill="url(#linearGradient-30)"></path>
                    <path d="M0,47.4599209 C38.7589263,28.6766486 75.1263328,19.2850124 109.102219,19.2850124 C160.066049,19.2850124 250.005147,60.4741578 295,60.4741578 C339.994853,60.4741578 404.70696,32.5069531 445.744703,29.3595538 C473.103199,27.2612876 521.188298,41.8913668 590,73.2497914 C520.163017,45.5137973 472.077918,37.2724214 445.744703,48.5256636 C406.244882,65.4055269 330.105735,84.0947056 295,87.6008019 C259.894265,91.1068982 158.842731,43.3558209 124.130301,39.6256769 C100.988681,37.1389143 59.6119142,39.7503289 0,47.4599209 Z" id="Path-6" fill="url(#linearGradient-31)"></path>
                </g>
                <g id="Group" transform="translate(1283.000000, 154.000000)">
                    <g id="wave-copy-4" transform="translate(295.000000, 44.000000) scale(-1, 1) translate(-295.000000, -44.000000) ">
                        <path d="M0,47.3684312 C38.7589263,15.7894771 75.1263328,-8.22733694e-15 109.102219,-8.22733694e-15 C160.066049,-8.22733694e-15 250.005147,45.6509046 295,45.6509046 C339.994853,45.6509046 404.70696,22.2290904 445.744703,16.9375961 C473.103199,13.4099332 521.188298,32.180665 590,73.2497914 C520.153873,42.8604702 472.068775,34.8306021 445.744703,49.1601871 C406.258596,70.6545647 330.105735,81.2460794 295,87.140625 C259.894265,93.0351706 158.842731,40.4685054 124.130301,34.1972848 C100.988681,30.016471 59.6119142,34.4068531 0,47.3684312 Z" id="Path-6" fill="url(#linearGradient-30)"></path>
                        <path d="M0,47.4599209 C38.7589263,28.6766486 75.1263328,19.2850124 109.102219,19.2850124 C160.066049,19.2850124 250.005147,60.4741578 295,60.4741578 C339.994853,60.4741578 404.70696,32.5069531 445.744703,29.3595538 C473.103199,27.2612876 521.188298,41.8913668 590,73.2497914 C520.163017,45.5137973 472.077918,37.2724214 445.744703,48.5256636 C406.244882,65.4055269 330.105735,84.0947056 295,87.6008019 C259.894265,91.1068982 158.842731,43.3558209 124.130301,39.6256769 C100.988681,37.1389143 59.6119142,39.7503289 0,47.4599209 Z" id="Path-6" fill="url(#linearGradient-31)"></path>
                    </g>
                </g>
                <g id="wave" transform="translate(181.000000, 154.000000)">
                    <path d="M0,55.4425956 C38.7589263,18.4808652 75.1263328,-9.62972392e-15 109.102219,-9.62972392e-15 C160.066049,-9.62972392e-15 250.005147,53.4323088 295,53.4323088 C339.994853,53.4323088 404.70696,26.0181399 445.744703,19.8246863 C473.103199,15.6957173 521.188298,37.6660056 590,85.7355513 C520.153873,50.1662322 472.068775,40.7676366 445.744703,57.5397645 C406.258596,82.6979564 330.105735,95.094843 295,101.994141 C259.894265,108.893438 158.842731,47.3665461 124.130301,40.0263674 C100.988681,35.1329149 59.6119142,40.2716577 0,55.4425956 Z" id="Path-6" fill="url(#linearGradient-32)"></path>
                    <path d="M0,55.5496801 C38.7589263,33.5647137 75.1263328,22.5722305 109.102219,22.5722305 C160.066049,22.5722305 250.005147,70.7822529 295,70.7822529 C339.994853,70.7822529 404.70696,38.047911 445.744703,34.3640232 C473.103199,31.908098 521.188298,49.0319407 590,85.7355513 C520.163017,53.271831 472.077918,43.625675 445.744703,56.7970835 C406.244882,76.5541962 330.105735,98.4290304 295,102.532757 C259.894265,106.636483 158.842731,50.7460177 124.130301,46.3800537 C100.988681,43.4694111 59.6119142,46.5259532 0,55.5496801 Z" id="Path-6" fill="url(#linearGradient-33)"></path>
                </g>
                <g id="wave" transform="translate(0.000000, 203.000000)">
                    <path d="M0,55.4425956 C38.7589263,18.4808652 75.1263328,-9.62972392e-15 109.102219,-9.62972392e-15 C160.066049,-9.62972392e-15 250.005147,53.4323088 295,53.4323088 C339.994853,53.4323088 404.70696,26.0181399 445.744703,19.8246863 C473.103199,15.6957173 521.188298,37.6660056 590,85.7355513 C520.153873,50.1662322 472.068775,40.7676366 445.744703,57.5397645 C406.258596,82.6979564 330.105735,95.094843 295,101.994141 C259.894265,108.893438 158.842731,47.3665461 124.130301,40.0263674 C100.988681,35.1329149 59.6119142,40.2716577 0,55.4425956 Z" id="Path-6" fill="url(#linearGradient-32)"></path>
                    <path d="M0,55.5496801 C38.7589263,33.5647137 75.1263328,22.5722305 109.102219,22.5722305 C160.066049,22.5722305 250.005147,70.7822529 295,70.7822529 C339.994853,70.7822529 404.70696,38.047911 445.744703,34.3640232 C473.103199,31.908098 521.188298,49.0319407 590,85.7355513 C520.163017,53.271831 472.077918,43.625675 445.744703,56.7970835 C406.244882,76.5541962 330.105735,98.4290304 295,102.532757 C259.894265,106.636483 158.842731,50.7460177 124.130301,46.3800537 C100.988681,43.4694111 59.6119142,46.5259532 0,55.5496801 Z" id="Path-6" fill="url(#linearGradient-33)"></path>
                </g>
                <path d="M1164,53.0587657 C1181.43884,44.5062302 1196.57433,38.9471555 1209.40645,36.3815416 C1239.21374,30.4219688 1281.9442,28.6853757 1307.08962,29.9687862 C1369.16441,33.1370539 1354.29829,41.9998162 1462.36851,41.9998162 C1501.85721,41.9998162 1556.22099,34.1901321 1601.02106,32.5869874 C1630.88777,31.5182243 1668.66384,27.3225618 1714.34926,20 L1719,44.0105601 C1613.59391,57.3939936 1528.05008,64.0571402 1462.36851,64 C1363.84616,63.9135546 1347.95339,48.8039841 1291.96408,43.6374637 C1254.63788,40.1931167 1229.36524,40.3174822 1216.14617,44.0105601 L1164,53.0587657 Z" id="Path-5" fill="url(#linearGradient-34)"></path>
            </g>
        </g>
    </g>
</svg>