<?xml version="1.0" encoding="UTF-8"?>
<svg width="1200px" height="1024px" viewBox="0 0 1200 1024" version="1.1" xmlns="http://www.w3.org/2000/svg" xmlns:xlink="http://www.w3.org/1999/xlink">
    <title>Artboard Copy 5</title>
    <defs>
        <linearGradient x1="50%" y1="0%" x2="50%" y2="66.6999421%" id="linearGradient-1">
            <stop stop-color="#0D97FA" offset="0%"></stop>
            <stop stop-color="#046C93" offset="100%"></stop>
        </linearGradient>
        <filter x="-10.0%" y="-5.4%" width="120.0%" height="111.3%" filterUnits="objectBoundingBox" id="filter-2">
            <feOffset dx="0" dy="2" in="SourceAlpha" result="shadowOffsetOuter1"></feOffset>
            <feGaussianBlur stdDeviation="2" in="shadowOffsetOuter1" result="shadowBlurOuter1"></feGaussianBlur>
            <feColorMatrix values="0 0 0 0 0.0842131662   0 0 0 0 0.467122956   0 0 0 0 0.587466033  0 0 0 1 0" type="matrix" in="shadowBlurOuter1" result="shadowMatrixOuter1"></feColorMatrix>
            <feMerge>
                <feMergeNode in="shadowMatrixOuter1"></feMergeNode>
                <feMergeNode in="SourceGraphic"></feMergeNode>
            </feMerge>
        </filter>
    </defs>
    <g id="Artboard-Copy-5" stroke="none" stroke-width="1" fill="none" fill-rule="evenodd">
        <rect id="Rectangle" fill="url(#linearGradient-1)" x="0" y="0" width="1200" height="1024"></rect>
        <g id="Group" transform="translate(758.000000, 265.000000)" fill="#FFFFFF">
            <g id="LogoV" transform="translate(85.000000, 0.000000)">
                <path d="M35.9307881,74.3098761 C33.1856061,72.6594304 31.1934693,71.3586668 29.9543777,70.4075851 C26.2074081,67.5315477 22.3790179,64.2719507 18.905714,59.5641206 C11.0990305,48.9826854 9.11336542,42.3443357 8.73731027,40.5176204 C8.36125512,38.6909051 6.53213183,25.9816488 12.4089595,17.2669803 C13.4764751,15.6839757 15.1744059,13.7342623 17.5027518,11.4178402 C19.6031671,9.32818136 23.9081054,5.52223464 30.4175668,-1.81008513e-14 C23.7332535,2.42803852 18.5619907,5.15178457 14.9037786,8.17123815 C9.41646048,12.7004185 4.42108714,17.9397286 1.32365879,28.0645415 C0.0856522449,32.1113129 -0.900486296,39.3384656 1.32365879,47.1427196 C3.54780388,54.9469736 12.8571937,70.870942 20.5058478,80.7927086 C25.6049506,87.4072197 30.7465973,93.8132922 35.9307881,100.010926 C40.6559089,93.2955501 46.5645389,84.8981624 53.656678,74.8187629 C60.7488172,64.7393633 67.8409563,54.6599638 74.9330955,44.5805643 L35.9307881,74.3098761 Z" id="Path-9"></path>
                <path d="M3.74665477,28.2005403 C8.74516884,25.4513164 12.420495,24.0767044 14.7726332,24.0767044 C18.3008405,24.0767044 15.5149136,28.2005403 19.2000491,28.2005403 C22.8851846,28.2005403 24.1225605,24.0767044 28.6468585,24.0767044 C31.6630572,24.0767044 34.6029536,25.4513164 37.4665477,28.2005403 C35.9825088,26.9923093 33.0426124,26.9923093 28.6468585,28.2005403 C22.0532277,30.0128869 22.4993131,33.3369753 18.7793073,33.3369753 C15.0593015,33.3369753 15.5945772,29.0352561 13.1516393,28.2005403 C11.523014,27.6440632 8.38801915,27.6440632 3.74665477,28.2005403 Z" id="Path-10"></path>
            </g>
            <text id="Wind.-Wave.-Weather" font-family="Avenir-LightOblique, Avenir" font-size="24" font-style="italic" font-weight="300" letter-spacing="0.666666667">
                <tspan x="0.486666667" y="146">Wind. Wave. Weather</tspan>
            </text>
        </g>
        <g id="Group-5" transform="translate(104.000000, 265.000000)" stroke="#FFFFFF">
            <g id="Kite" filter="url(#filter-2)">
                <path d="M11.9399359,0.533527787 L119.034184,9.83805203 C101.347651,32.3713899 89.549887,55.18789 83.6334034,78.284025 C77.6890401,101.488993 74.308849,131.75305 73.4985487,169.077126 L73.4985487,169.077126 L11.9798665,165.707416 C1.63883288,120.050991 -1.72054129,83.6814569 1.9190385,56.598858 C5.52429055,29.7716963 8.86297021,11.0828491 11.9399359,0.533527787 L11.9399359,0.533527787 Z" id="Rectangle" fill="#046285"></path>
                <path d="M88.2857143,133.627907 C80.715331,118.191544 74.2796168,101.202526 68.9785714,82.6608527 C63.6775261,64.1191796 60.3989547,47.1301615 59.1428571,31.6937984" id="Line" stroke-linecap="round"></path>
                <path d="M88.2857143,214.147287 C75.8045935,197.135845 66.1189112,181.636643 59.2286675,167.649683 C52.3384238,153.662723 49.1905771,146.034017 49.7851273,144.763566" id="Line" stroke-linecap="round"></path>
                <path d="M88.2857143,183.310078 C78.5115961,168.340511 70.6202078,152.900256 64.6115492,136.989314 C58.6028906,121.078372 54.494279,105.110358 52.2857143,89.0852713" id="Line" stroke-linecap="round"></path>
                <line x1="91.2857143" y1="221" x2="91.2857143" y2="133.627907" id="Path-7" stroke-linecap="round"></line>
            </g>
            <g id="SURFER" transform="translate(45.000000, 192.000000)">
                <path d="M40.8669338,187.764442 C41.5363274,197.268315 43.2078347,205.403269 45.8814557,212.169304 C49.8918871,222.318357 49.8918871,225.891314 57.5190102,231.18489 C62.6037589,234.713941 73.3842353,236.766478 89.8604393,237.342501 L92.3139014,233.038736 C88.4712694,230.792707 85.466933,229.317675 83.3008922,228.613639 C80.226987,227.614518 75.8286467,223.360404 74.3069455,222.740051 C70.7523279,221.290936 66.9480123,224.001982 65.3636865,222.740051 C61.6866817,219.811279 60.298357,211.236718 61.1987124,197.016365 L51.7993327,194.963721 L40.8669338,187.764442 Z" id="Path-11"></path>
                <path d="M58.8733724,104.745793 L68.3046034,81.6825493 L91.9324414,78.350796 C97.6149251,80.7627172 101.42085,82.5201908 103.350215,83.6232168 C105.27958,84.7262428 107.031322,86.1461097 108.605441,87.8828175 C103.32817,85.8725442 99.9414457,85.060278 98.4452685,85.4460189 C96.9490914,85.8317599 95.5967085,86.6440261 94.38812,87.8828175 L100.742346,92.1556887 C102.109364,95.1040599 102.109364,99.4081835 100.742346,105.06806 C99.9885361,108.189066 98.9574766,111.122085 97.6339348,114.03743 C96.9161538,115.618475 95.8342155,117.95038 94.38812,121.033146 C94.5903681,124.868417 94.2728727,127.441421 93.4356339,128.752159 C92.5983951,130.062898 90.3795985,129.919782 86.7792443,128.322812 L79.6396583,121.033146 L75.3049576,127.166259 L64.8900959,118.937609 L71.944044,113.33215 L58.8733724,104.745793 Z" id="Path-13"></path>
                <path d="M58.8733724,104.448537 L68.3046034,81.5709361 L80.6755383,79.8405562 C82.5382565,79.1217872 83.7981869,78.4627015 84.4553294,77.8632989 C85.1124719,77.2638964 86.3736427,77.3981304 88.2388419,78.266001 L85.4410431,79.1739829 L91.9324414,78.266001 C97.6149251,80.658508 101.42085,82.4018352 103.350215,83.4959826 C105.27958,84.59013 107.031322,85.998568 108.605441,87.7212966 C106.392705,87.4485413 104.858554,87.2867757 104.002987,87.2359997 C102.64923,87.1556572 102.381759,88.3256778 101.613697,88.5221037 C100.87804,88.7102426 99.4366509,88.1293907 98.7705207,88.5221037 C98.4918619,88.6863853 100.052954,91.0232492 99.6325328,91.3677945 C99.4510463,91.5165268 97.7029088,90.3010275 94.38812,87.7212966 C91.4255858,88.052118 89.3758264,88.3190537 88.2388419,88.5221037 C86.2890374,88.8703123 86.7186154,93.6895896 85.6687965,94.1361905 C83.7007103,94.9734292 81.5806822,94.9734292 79.3087122,94.1361905 L77.0468212,104.448537 L72.4517985,105.790351 L67.78223,100.629712 L64.8900959,118.526119 L62.6711451,114.177091 L58.8733724,104.448537 Z" id="Path-13" fill="#046285"></path>
                <path d="M159.97557,242.910337 C154.042767,242.914339 147.076798,245.842231 138.646438,244.861911 C133.026198,244.208364 127.895189,242.225986 123.25341,238.914776 L119.616892,235.220746 L110.878824,186.702847 C108.409214,195.988331 106.959098,205.249189 106.189898,212.605477 C105.420698,219.961765 107.76419,227.797506 113.220374,236.1127 L89.4783357,229.428971 L67.9316156,227.063815 C53.7165015,221.913854 44.1234305,214.810223 39.1524026,205.752924 C37.757112,203.21068 33.2023412,198.983381 31.5501832,192.616446 C30.9077511,190.140701 30.9107587,185.70074 31.559206,179.296565 C29.5308981,158.08305 29.5396828,145.114689 31.58556,140.391479 C33.6314372,135.66827 37.197048,129.806043 42.2823923,122.8048 C38.9016375,116.232247 37.8808596,110.589117 39.2200588,105.875408 C41.2288576,98.8048451 45.1154235,90.2984591 45.1167312,88.3679144 C45.1180389,86.4373697 41.1354677,87.5799536 36.7339873,80.1589581 C32.3325068,72.7379625 36.022573,66.9333891 34.7039826,60.0745866 C34.2411885,57.6673089 33.4983833,55.3611498 32.475567,53.1561093 C32.1849619,52.5296077 25.5760871,52.7073058 23.6967435,48.9066618 C22.6850279,46.8606439 18.5065777,45.55743 17.6703973,39.111012 C17.4612208,37.4983941 18.2446479,33.7886735 20.0206788,27.9818502 C30.3761284,32.4407523 36.7910003,36.1456171 39.2652944,39.0964448 C42.0027616,42.3611311 37.8047678,49.2755973 40.0217686,51.88212 C46.0121013,58.9249406 49.8479843,63.767493 52.0384973,66.0051956 C57.7109939,71.7998931 65.0955294,82.805372 65.8111061,84.7096857 C67.0677175,88.053817 67.5455078,90.421027 67.5512395,93.0730169 C67.555082,94.8509167 67.346763,96.7568078 67.0187114,99.1708469 C66.6969909,101.538298 66.2601147,104.394473 65.7952631,108.097941 C64.1493753,121.210714 60.4746933,129.799105 61.2747466,130.757932 C62.9775667,132.798683 65.9406348,136.001191 70.1639511,140.365456 C77.3446535,147.549433 82.0250332,152.335143 84.2050902,154.722586 C88.7747553,159.726958 89.0453378,169.553373 92.4714982,173.717212 C97.9759938,180.406869 104.168199,185.048737 111.048113,187.642818 C118.719486,186.813045 122.800098,185.922837 123.28995,184.972193 C134.419876,163.372617 139.594801,159.170822 163.080341,147.667263 C178.737368,139.998224 196.276239,132.521456 215.696955,125.236958 C219.743365,122.06403 223.834875,120.47617 227.971486,120.47338 C232.108097,120.470589 237.182968,122.052265 243.196099,125.218408 L325.534923,122.613728 L347.456909,122.59894 L372.970692,121.399639 C379.82989,120.596923 384.370471,120.593861 386.592433,121.39045 C388.814395,122.187039 391.667982,123.770214 395.153192,126.139974 C391.076136,128.804468 386.659745,132.101789 381.904019,136.031937 C374.770429,141.927158 371.301086,145.190813 362.125239,145.843769 C349.013791,146.776783 336.81522,141.688752 325.529527,130.579675 C323.9283,135.073924 321.753965,137.525319 319.006521,137.933861 C316.259077,138.342403 312.734401,136.738444 308.432493,133.121984 C307.778377,133.565485 304.875373,135.928358 299.72348,140.210603 C291.99564,146.63397 277.951735,156.319753 268.165631,157.77338 C254.945346,159.737121 242.731092,155.789951 231.522869,145.931868 C224.919062,149.800023 220.083503,152.700399 217.016192,154.632997 C210.456977,158.765712 204.374544,162.895422 198.768894,167.022125 C189.231157,174.043508 183.256101,180.013923 180.843726,184.933369 C179.370141,187.574463 178.63253,190.102417 178.630895,192.517231 C178.629259,194.932045 179.363652,197.153698 180.834074,199.182188 L208.175789,219.229886 C219.89226,223.177647 227.656326,225.752185 231.467986,226.953499 C238.258006,229.093497 242.231444,229.501556 243.124713,230.602154 C244.770153,232.629505 246.413084,236.712428 248.053508,242.850923 C250.424812,252.494086 252.328979,259.560846 253.766006,264.051203 C255.203034,268.54156 257.282482,273.094724 260.00435,277.710696 L250.543167,281.843535 C245.927122,276.505086 242.572085,273.471071 240.478055,272.741489 C224.125494,267.044084 214.54059,267.969316 211.964246,264.079401 C208.893031,259.4423 210.111613,251.033323 215.619993,238.852469" id="Path-8" fill="#046B92" transform="translate(206.395264, 154.912692) rotate(9.000000) translate(-206.395264, -154.912692) "></path>
                <path d="M101.813274,221.326544 C100.320071,217.63301 99.2668022,214.678981 98.6534659,212.464458 C98.0401297,210.249936 97.3560239,206.698998 96.6011487,201.811646 C98.6928401,193.931207 100.430215,188.056374 101.813274,184.187149 C103.196332,180.317923 104.990801,176.127108 107.196681,171.614702 L119.099235,171.614702 C125.015789,163.882157 129.257349,158.730432 131.823914,156.159528 C134.390479,153.588624 137.733816,151.301683 141.853924,149.298707 L187.086423,172.16973 C180.980694,175.77882 177.242891,178.540318 175.873015,180.454225 C174.50314,182.368131 174.50314,186.808351 175.873015,193.774884 L188.348241,209.580596 L175.873015,237.342501 L143.504652,234.741843 C137.865411,235.052199 133.549779,235.052199 130.557754,234.741843 C127.56573,234.431487 124.565105,233.672589 121.555879,232.465148 C117.813494,230.634664 114.835236,228.807005 112.621106,226.982171 C110.406975,225.157336 108.598834,223.040158 107.196681,220.630634 L101.813274,221.326544 Z" id="Path-9" fill="#046285"></path>
                <path d="M120.609734,206.569913 C122.633429,207.617691 124.904839,208.635715 127.423964,209.623984 C129.943089,210.612254 137.103623,209.59423 148.905566,206.569913" id="Path-10" stroke-linecap="round"></path>
                <path d="M46.86908,153.572678 C47.9462993,162.457722 49.7681857,167.484451 52.3347392,168.652862 C54.9012928,169.821274 62.7971669,174.482212 76.0223617,182.635678" id="Path-10" stroke-linecap="round"></path>
                <path d="M89.7415531,237.967711 C90.3774204,235.78481 91.206601,234.314348 92.2290948,233.556326 C93.2515887,232.798304 96.1858854,232.093436 101.031985,231.441721 L110.445801,226.230177 C111.40774,228.622615 111.40774,230.578871 110.445801,232.098944 C109.483862,233.619017 107.504832,234.790061 104.50871,235.612076 C103.6003,237.452477 104.575468,239.212079 107.434213,240.890883 C110.292958,242.569688 114.038583,243.582382 118.671088,243.928965 L124.896981,243.928965 C122.635499,248.382242 119.459145,250.964424 115.367922,251.675513 C111.276698,252.386602 106.498053,251.187064 101.031985,248.0769 L89.7415531,237.967711 Z" id="Path-12"></path>
                <line x1="175.873015" y1="237.342501" x2="202.807121" y2="239.052089" id="Path-3"></line>
            </g>
            <g id="SURFBOARD" transform="translate(168.000000, 347.000000)">
                <path d="M162.019963,309.030055 C198.627714,255.274265 215.33512,195.372942 212.142183,129.326087 C208.949246,63.2792316 199.13598,10.8269705 182.702385,-28.0306964 L148.430266,-27.4484046 C125.614496,37.699611 114.55644,90.6891085 115.256097,131.520088 C116.392273,197.825652 131.980229,256.995641 162.019963,309.030055 Z" id="Oval" fill="#046285" transform="translate(163.875638, 140.499679) scale(1, -1) rotate(-53.000000) translate(-163.875638, -140.499679) "></path>
                <line x1="64.3261496" y1="219.317073" x2="226.435999" y2="95.9512195" id="Line-2" stroke-width="3" stroke-linecap="square"></line>
            </g>
        </g>
    </g>
</svg>